<svg width="46" height="46" viewBox="0 0 46 46" fill="none" xmlns="http://www.w3.org/2000/svg">
<rect width="46" height="46" rx="23" fill="#A8DD15" fill-opacity="0.14"/>
<g clip-path="url(#clip0_5311_3921)">
<path d="M20.3398 28.2598C20.4173 28.2661 20.4934 28.2877 20.5625 28.3232C22.0727 29.0993 23.9273 29.0993 25.4375 28.3232L25.4395 28.3223C25.5784 28.2565 25.7373 28.2475 25.8828 28.2969C26.0284 28.3463 26.1495 28.4501 26.2197 28.5869C26.2899 28.7236 26.3043 28.8823 26.2598 29.0293C26.2151 29.1763 26.1147 29.3004 25.9805 29.375L25.9785 29.376C25.0673 29.8443 24.0375 30.0918 23 30.0918C21.9625 30.0918 20.9326 29.8438 20.0215 29.376C19.9524 29.3405 19.8911 29.2916 19.8408 29.2324C19.7905 29.1732 19.7523 29.1043 19.7285 29.0303C19.7047 28.9563 19.6958 28.8782 19.7021 28.8008C19.7085 28.7235 19.7293 28.6481 19.7646 28.5791C19.8001 28.5101 19.8491 28.4487 19.9082 28.3984C19.9674 28.3482 20.0364 28.3099 20.1104 28.2861C20.1843 28.2624 20.2624 28.2534 20.3398 28.2598ZM19.75 21.8662C20.6735 21.8662 21.4248 22.6175 21.4248 23.541C21.4248 24.4645 20.6735 25.2158 19.75 25.2158C18.8265 25.2158 18.0752 24.4645 18.0752 23.541C18.0752 22.6175 18.8265 21.8662 19.75 21.8662ZM26.25 21.8662C27.1735 21.8662 27.9248 22.6175 27.9248 23.541C27.9248 24.4645 27.1735 25.2158 26.25 25.2158C25.3265 25.2158 24.5752 24.4645 24.5752 23.541C24.5752 22.6175 25.3265 21.8662 26.25 21.8662ZM19.75 23.0488C19.6242 23.055 19.506 23.1101 19.4189 23.2012C19.3314 23.2928 19.2822 23.4143 19.2822 23.541C19.2822 23.6677 19.3314 23.7893 19.4189 23.8809C19.506 23.9719 19.6243 24.026 19.75 24.0322C20.0208 24.0322 20.2412 23.8119 20.2412 23.541C20.2412 23.2702 20.0208 23.0498 19.75 23.0498V23.0488ZM26.25 23.0488C26.1242 23.055 26.006 23.1101 25.9189 23.2012C25.8314 23.2928 25.7822 23.4143 25.7822 23.541C25.7822 23.6677 25.8314 23.7893 25.9189 23.8809C26.006 23.9719 26.1243 24.026 26.25 24.0322C26.5208 24.0322 26.7412 23.8119 26.7412 23.541C26.7412 23.2702 26.5208 23.0498 26.25 23.0498V23.0488Z" fill="#1A1A1A" stroke="#1A1A1A" stroke-width="0.1"/>
<path d="M23 11.0322C24.2225 11.0322 25.2168 12.0265 25.2168 13.249C25.2166 14.2652 24.5253 15.1147 23.5918 15.375V17.5322H30.042C31.5627 17.5324 32.7996 18.7693 32.7998 20.29V21.8652H34.375C35.2984 21.8652 36.0496 22.6167 36.0498 23.54V28.415C36.0498 29.3386 35.2985 30.0908 34.375 30.0908H32.7998V31.665C32.7998 33.1859 31.5628 34.4237 30.042 34.4238H15.958C14.4372 34.4237 13.2002 33.1859 13.2002 31.665V30.0908H11.625C10.7015 30.0908 9.9502 29.3386 9.9502 28.415V23.54C9.95037 22.6167 10.7016 21.8652 11.625 21.8652H13.2002V20.29C13.2004 18.7693 14.4373 17.5324 15.958 17.5322H22.4082V15.375C21.4747 15.1147 20.7834 14.2652 20.7832 13.249C20.7832 12.0265 21.7775 11.0322 23 11.0322ZM15.958 18.7158C15.09 18.716 14.384 19.422 14.3838 20.29V31.665C14.3838 32.5332 15.0899 33.2401 15.958 33.2402H30.042C30.9101 33.2401 31.6162 32.5332 31.6162 31.665V20.29C31.616 19.422 30.91 18.716 30.042 18.7158H15.958ZM11.625 23.0488C11.3543 23.0488 11.134 23.2693 11.1338 23.54V28.415C11.1338 28.6864 11.3541 28.9072 11.625 28.9072H13.2002V23.0488H11.625ZM32.7998 28.9072H34.375C34.6459 28.9072 34.8662 28.6864 34.8662 28.415V23.54C34.866 23.2693 34.6457 23.0488 34.375 23.0488H32.7998V28.9072ZM23 12.2158C22.4302 12.2158 21.9668 12.6792 21.9668 13.249C21.967 13.8187 22.4303 14.2822 23 14.2822C23.5697 14.2822 24.033 13.8187 24.0332 13.249C24.0332 12.6792 23.5698 12.2158 23 12.2158Z" fill="#1A1A1A" stroke="#1A1A1A" stroke-width="0.1"/>
</g>
<defs>
<clipPath id="clip0_5311_3921">
<rect width="26" height="26" fill="white" transform="translate(10 10)"/>
</clipPath>
</defs>
</svg>
