<svg width="46" height="46" viewBox="0 0 46 46" fill="none" xmlns="http://www.w3.org/2000/svg">
<rect width="46" height="46" rx="23" fill="#A8DD15" fill-opacity="0.14"/>
<path d="M22.9972 10.8145C19.7669 10.8185 16.67 12.1036 14.3858 14.3878C12.1016 16.672 10.8166 19.7688 10.8125 22.9992C10.8149 26.2306 12.0993 29.329 14.3836 31.6145C16.668 33.9001 19.7658 35.186 22.9972 35.19C26.2297 35.1876 29.3291 33.9024 31.6148 31.6167C33.9005 29.331 35.1856 26.2316 35.1881 22.9992C35.184 19.7672 33.8977 16.669 31.6115 14.3845C29.3253 12.1 26.2292 10.8161 22.9972 10.8145ZM22.9972 12.4389C24.3853 12.4369 25.7601 12.7087 27.043 13.2387C28.3258 13.7688 29.4915 14.5467 30.4733 15.5279C31.4551 16.5092 32.2337 17.6744 32.7645 18.957C33.2953 20.2395 33.5679 21.6142 33.5667 23.0022C33.5671 24.3902 33.294 25.7647 32.7629 27.047C32.2319 28.3294 31.4533 29.4945 30.4717 30.4758C29.4901 31.4571 28.3248 32.2354 27.0422 32.7661C25.7597 33.2967 24.3852 33.5695 22.9972 33.5687C21.6092 33.5699 20.2345 33.2973 18.9519 32.7665C17.6694 32.2357 16.5041 31.4571 15.5229 30.4753C14.5417 29.4935 13.7638 28.3278 13.2337 27.0449C12.7036 25.762 12.4318 24.3872 12.4339 22.9992C12.4322 21.6115 12.7044 20.2372 13.2346 18.9548C13.7649 17.6725 14.543 16.5074 15.5242 15.5261C16.5054 14.5449 17.6705 13.7669 18.9529 13.2366C20.2352 12.7063 21.6096 12.4342 22.9972 12.4358V12.4389ZM22.988 16.5045C22.7733 16.5086 22.5688 16.5974 22.4192 16.7515C22.2697 16.9057 22.1871 17.1127 22.1896 17.3275V18.0123C20.8784 18.2579 19.7545 19.1024 19.7545 20.5671C19.7545 21.5805 20.2151 22.4034 20.8293 22.8825C21.4434 23.3615 22.1374 23.5703 22.7454 23.773C23.3565 23.9787 23.8816 24.1722 24.1795 24.4056C24.4804 24.6359 24.6216 24.8355 24.6216 25.4435C24.6216 26.7946 21.3789 26.7946 21.3789 25.4435C21.3858 25.3326 21.3698 25.2215 21.3321 25.1171C21.2943 25.0126 21.2356 24.917 21.1595 24.8361C21.0834 24.7551 20.9916 24.6907 20.8896 24.6466C20.7877 24.6025 20.6778 24.5798 20.5667 24.5798C20.4556 24.5798 20.3458 24.6025 20.2438 24.6466C20.1419 24.6907 20.05 24.7551 19.9739 24.8361C19.8978 24.917 19.8391 25.0126 19.8014 25.1171C19.7636 25.2215 19.7477 25.3326 19.7545 25.4435C19.7545 26.9052 20.8784 27.7527 22.1896 27.9983V28.68C22.1828 28.7909 22.1987 28.902 22.2365 29.0065C22.2742 29.1109 22.3329 29.2066 22.409 29.2875C22.4851 29.3684 22.577 29.4329 22.6789 29.4769C22.7809 29.521 22.8908 29.5438 23.0018 29.5438C23.1129 29.5438 23.2228 29.521 23.3247 29.4769C23.4267 29.4329 23.5185 29.3684 23.5946 29.2875C23.6707 29.2066 23.7294 29.1109 23.7672 29.0065C23.8049 28.902 23.8209 28.7909 23.814 28.68V27.9953C25.1252 27.7496 26.2491 26.9021 26.2491 25.4404C26.2491 24.424 25.7885 23.601 25.1744 23.1251C24.5602 22.646 23.8662 22.4311 23.2582 22.2284C22.6472 22.0257 22.1221 21.8323 21.8211 21.602C21.5233 21.3686 21.3789 21.1721 21.3789 20.5641C21.3789 19.2099 24.6216 19.2099 24.6216 20.5641C24.6216 20.7799 24.7074 20.9869 24.86 21.1395C25.0126 21.2921 25.2196 21.3778 25.4354 21.3778C25.6512 21.3778 25.8582 21.2921 26.0108 21.1395C26.1634 20.9869 26.2491 20.7799 26.2491 20.5641C26.2491 19.1024 25.1252 18.2579 23.814 18.0092V17.3244C23.8153 17.2155 23.7947 17.1074 23.7534 17.0066C23.7121 16.9058 23.6509 16.8143 23.5736 16.7375C23.4963 16.6608 23.4043 16.6003 23.3032 16.5598C23.2021 16.5192 23.0939 16.4994 22.9849 16.5015L22.988 16.5045Z" fill="#1A1A1A"/>
</svg>
