<svg width="48" height="48" viewBox="0 0 48 48" fill="none" xmlns="http://www.w3.org/2000/svg">
<path d="M8 32.9998C8 36.3134 10.6863 38.9998 14 38.9998C14 41.7612 16.2386 43.9998 19 43.9998C21.7614 43.9998 24 41.7612 24 38.9998C24 41.7612 26.2386 43.9996 29 43.9996C31.7614 43.9996 34 41.761 34 38.9996C37.3138 38.9996 40 36.3132 40 32.9996C40 31.8622 39.6836 30.7988 39.134 29.8926C41.9054 29.3624 44 26.9256 44 23.9996C44 21.0734 41.9054 18.6366 39.134 18.1065C39.6836 17.2002 40 16.1368 40 14.9995C40 11.6858 37.3138 8.99951 34 8.99951C34 6.23807 31.7614 3.99951 29 3.99951C26.2386 3.99951 24 6.23827 24 8.99969C24 6.23827 21.7614 3.99969 19 3.99969C16.2386 3.99969 14 6.23827 14 8.99969C10.6863 8.99969 8 11.686 8 14.9997C8 16.137 8.31644 17.2004 8.86608 18.1067C6.09454 18.6368 4 21.0736 4 23.9998C4 26.9258 6.09454 29.3626 8.86608 29.8928C8.31644 30.799 8 31.8624 8 32.9998Z" stroke="#A8DD15" stroke-width="3" stroke-linecap="round" stroke-linejoin="round"/>
<path d="M15 29L18.6838 17.9487C18.8726 17.3821 19.4028 17 20 17C20.5972 17 21.1274 17.3821 21.3162 17.9487L25 29M31 17V29M17 25H23" stroke="#A8DD15" stroke-width="3" stroke-linecap="round" stroke-linejoin="round"/>
</svg>
