<svg width="23" height="21" viewBox="0 0 23 21" fill="none" xmlns="http://www.w3.org/2000/svg">
<path fill-rule="evenodd" clip-rule="evenodd" d="M10.2303 0.0112C10.9005 0.0112 11.4852 -0.014 12 0.0112L5.3808 17.3455L5.8398 17.7457L5.0505 18.2104L4.728 19.0552C4.55862 18.9394 4.39255 18.8189 4.23 18.6937L1.8435 20.1001L0.5976 20.0917C0.523911 20.0795 0.453344 20.053 0.389938 20.0135C0.326532 19.974 0.271532 19.9225 0.228088 19.8617C0.184645 19.801 0.15361 19.7322 0.136762 19.6595C0.119913 19.5867 0.117581 19.5114 0.1299 19.4377L0.5979 17.4007C0.816 16.0375 0.9873 15.3625 0.8571 14.3755C0.3081 13.1107 0 11.7253 0 10.2811C0 4.6093 4.5804 0.0112 10.2303 0.0112Z" fill="#A8DD15"/>
<path d="M12.6004 20.4C18.2337 20.4 22.8004 15.8333 22.8004 10.2C22.8004 4.5667 18.2337 0 12.6004 0C6.96709 0 2.40039 4.5667 2.40039 10.2C2.40039 15.8333 6.96709 20.4 12.6004 20.4Z" fill="#A8DD15"/>
<path fill-rule="evenodd" clip-rule="evenodd" d="M11.3992 0C17.0326 0 21.5992 4.5666 21.5992 10.2C21.5992 15.8334 17.0326 20.4 11.3992 20.4C9.8638 20.4023 8.34782 20.0565 6.96523 19.3887C6.12523 19.3173 5.27623 19.3587 4.44163 19.5132L2.11243 19.944C2.01987 19.9611 1.9245 19.9551 1.83484 19.9264C1.74519 19.8977 1.66404 19.8472 1.59864 19.7795C1.53325 19.7118 1.48564 19.6289 1.46007 19.5383C1.43451 19.4477 1.43178 19.3522 1.45213 19.2603L1.86253 17.4063C2.07448 16.4484 2.16818 15.468 2.14153 14.4873C1.51863 13.144 1.19702 11.6807 1.19923 10.2C1.19923 4.5666 5.76583 0 11.3992 0Z" fill="black"/>
<path d="M11.7008 15.4508C14.2688 15.4508 16.3508 13.3688 16.3508 10.8008C16.3508 10.6019 16.2718 10.4111 16.1311 10.2705C15.9905 10.1298 15.7997 10.0508 15.6008 10.0508C15.4019 10.0508 15.2111 10.1298 15.0705 10.2705C14.9298 10.4111 14.8508 10.6019 14.8508 10.8008C14.8508 12.5405 13.4405 13.9508 11.7008 13.9508C9.96108 13.9508 8.55078 12.5405 8.55078 10.8008C8.55078 10.7023 8.53138 10.6048 8.49369 10.5138C8.456 10.4228 8.40076 10.3401 8.33111 10.2705C8.26147 10.2008 8.17879 10.1456 8.08779 10.1079C7.9968 10.0702 7.89927 10.0508 7.80078 10.0508C7.70229 10.0508 7.60476 10.0702 7.51377 10.1079C7.42277 10.1456 7.34009 10.2008 7.27045 10.2705C7.20081 10.3401 7.14556 10.4228 7.10787 10.5138C7.07018 10.6048 7.05078 10.7023 7.05078 10.8008C7.05078 13.3688 9.13278 15.4508 11.7008 15.4508Z" fill="white"/>
</svg>
