<svg width="46" height="46" viewBox="0 0 46 46" fill="none" xmlns="http://www.w3.org/2000/svg">
<rect width="46" height="46" rx="23" fill="#E5FDCD"/>
<g clip-path="url(#clip0_5311_3764)">
<path d="M17.1608 31.4446C15.8194 32.2148 14.3073 32.4911 13.4119 32.5902C13.5111 31.6948 13.7873 30.1828 14.5568 28.8405C14.6059 28.7572 14.6381 28.6649 14.6513 28.5691C14.6646 28.4732 14.6587 28.3757 14.6339 28.2821C14.6092 28.1886 14.5662 28.1009 14.5073 28.0241C14.4484 27.9473 14.3749 27.8829 14.291 27.8347C14.2071 27.7866 14.1144 27.7555 14.0184 27.7434C13.9224 27.7313 13.8249 27.7384 13.7317 27.7643C13.6384 27.7901 13.5512 27.8342 13.4752 27.894C13.3991 27.9537 13.3356 28.028 13.2884 28.1125C11.9104 30.5159 11.8942 33.2605 11.8942 33.3767C11.8942 33.5707 11.9712 33.7567 12.1084 33.8938C12.2455 34.0309 12.4315 34.108 12.6254 34.108C12.7416 34.108 15.4863 34.0917 17.8896 32.7137C17.973 32.6659 18.0461 32.6021 18.1047 32.526C18.1634 32.4499 18.2065 32.3629 18.2316 32.2702C18.2567 32.1774 18.2633 32.0806 18.2509 31.9853C18.2386 31.89 18.2076 31.7981 18.1598 31.7148C18.1119 31.6314 18.0481 31.5583 17.972 31.4997C17.8959 31.441 17.809 31.3979 17.7163 31.3728C17.6235 31.3477 17.5267 31.3411 17.4314 31.3534C17.3361 31.3658 17.2442 31.3967 17.1608 31.4446ZM35.1146 12.662C35.1201 12.4272 35.0778 12.1937 34.99 11.9757C34.9023 11.7578 34.7711 11.5601 34.6044 11.3945C34.2672 11.0573 33.7797 10.8908 33.3393 10.8867C31.3146 10.9249 25.8529 11.5058 20.6854 16.1444C19.7641 15.7861 18.3755 15.2539 17.3217 15.3896C15.7714 15.5887 13.481 17.6979 11.2377 19.9485C11.0919 20.0936 10.9861 20.2739 10.9307 20.472C10.8753 20.67 10.8722 20.8791 10.9216 21.0787C11.0208 21.4898 11.3214 21.8124 11.7244 21.9416L15.2913 23.0872C15.015 23.5879 14.7516 24.0956 14.5015 24.6098C14.3446 24.9357 14.2931 25.3024 14.3539 25.6589C14.4148 26.0155 14.585 26.3442 14.8411 26.5997L19.4017 31.1602C19.6574 31.4161 19.9863 31.5863 20.3428 31.6472C20.6994 31.7082 21.0661 31.657 21.3923 31.5007C21.9221 31.2447 22.4242 30.9798 22.9133 30.7117L24.0598 34.2778C24.1366 34.5222 24.2899 34.7354 24.497 34.8862C24.7041 35.037 24.9541 35.1174 25.2103 35.1155C25.5231 35.1155 25.8245 34.9928 26.0536 34.7645C28.3043 32.5212 30.4135 30.2315 30.6118 28.6821C30.7491 27.6185 30.2153 26.2381 29.8569 25.3167C34.4947 20.1492 35.0764 14.6876 35.1146 12.662ZM12.5751 20.6798C13.7654 19.4943 16.3508 16.9894 17.5078 16.8407C18.0237 16.7749 18.8338 17.0195 19.5179 17.2673C18.3097 18.5161 17.1364 20.0127 16.0428 21.7929L12.5751 20.6798ZM20.7561 30.1836C20.7034 30.208 20.6444 30.2156 20.5871 30.2054C20.5299 30.1953 20.4772 30.1678 20.436 30.1267L15.8746 25.5653C15.8336 25.5242 15.8062 25.4714 15.7962 25.4141C15.7862 25.3568 15.794 25.2979 15.8186 25.2452C21.4988 13.4794 30.6865 12.4004 33.3678 12.35H33.3743C33.4709 12.35 33.5343 12.3931 33.5717 12.4305C33.5985 12.4573 33.6195 12.4893 33.6336 12.5245C33.6477 12.5596 33.6546 12.5973 33.6538 12.6352C33.6018 15.3165 32.5219 24.5042 20.7561 30.1836ZM29.1614 28.4952C29.0128 29.6514 26.5078 32.2376 25.3224 33.4271L24.2076 29.9602C25.9894 28.8665 27.4861 27.6925 28.7349 26.4843C28.9835 27.1676 29.2281 27.976 29.1614 28.4952Z" fill="#1A1A1A"/>
<path d="M29.6062 20.7367C30.1806 20.1605 30.5032 19.3801 30.5032 18.5665C30.5032 17.7529 30.1806 16.9725 29.6062 16.3963C28.4459 15.2377 26.4244 15.2377 25.2658 16.3963C24.6865 16.9756 24.3672 17.7467 24.3672 18.5665C24.3672 19.3863 24.6873 20.1574 25.2658 20.7367C25.8451 21.316 26.6162 21.6353 27.436 21.6353C28.2558 21.6353 29.0261 21.316 29.6062 20.7367ZM28.5711 19.7024C27.9641 20.3101 26.9054 20.3101 26.3001 19.7024C25.9962 19.3993 25.8289 18.9955 25.8289 18.5665C25.8289 18.1375 25.9962 17.7345 26.3001 17.4306C26.4488 17.2811 26.6257 17.1625 26.8205 17.0817C27.0154 17.001 27.2243 16.9597 27.4352 16.9602C27.7527 16.9606 28.063 17.055 28.327 17.2316C28.5909 17.4081 28.7966 17.6589 28.9181 17.9523C29.0396 18.2456 29.0715 18.5684 29.0097 18.8799C28.948 19.1914 28.7953 19.4776 28.5711 19.7024Z" fill="#1A1A1A"/>
</g>
<defs>
<clipPath id="clip0_5311_3764">
<rect width="26" height="26" fill="white" transform="translate(10 10)"/>
</clipPath>
</defs>
</svg>
