<svg width="120" height="118" viewBox="0 0 120 118" fill="none" xmlns="http://www.w3.org/2000/svg">
<path fill-rule="evenodd" clip-rule="evenodd" d="M55.6856 65.5225C57.7157 63.4925 61.0071 63.4925 63.0372 65.5225L84.5655 87.0499C86.5954 89.0799 86.5954 92.3714 84.5655 94.4015L63.0372 115.929C61.0071 117.959 57.7157 117.959 55.6856 115.929L34.1583 94.4015C32.1282 92.3714 32.1282 89.0799 34.1583 87.0499L55.6856 65.5225ZM23.0499 33.4903C25.0799 31.4603 28.3714 31.4603 30.4015 33.4903L51.9298 55.0177C53.9596 57.0477 53.9596 60.3392 51.9298 62.3692L30.4015 83.8966C28.3714 85.9266 25.0799 85.9266 23.0499 83.8966L1.52254 62.3692C-0.507515 60.3392 -0.507515 57.0477 1.52254 55.0177L23.0499 33.4903ZM89.0499 33.4903C91.0799 31.4603 94.3714 31.4603 96.4015 33.4903L117.93 55.0177C119.96 57.0477 119.96 60.3392 117.93 62.3692L96.4015 83.8966C94.3714 85.9266 91.0799 85.9266 89.0499 83.8966L67.5225 62.3692C65.4925 60.3392 65.4925 57.0477 67.5225 55.0177L89.0499 33.4903ZM55.6856 1.52254C57.7157 -0.507515 61.0071 -0.507515 63.0372 1.52254L84.5655 23.0499C86.5954 25.0799 86.5954 28.3714 84.5655 30.4015L63.0372 51.9288C61.0071 53.9589 57.7157 53.9589 55.6856 51.9288L34.1583 30.4015C32.1282 28.3714 32.1282 25.0799 34.1583 23.0499L55.6856 1.52254Z" fill="url(#paint0_linear_769_23749)"/>
<defs>
<linearGradient id="paint0_linear_769_23749" x1="90.5" y1="12.5" x2="29.5" y2="97.5" gradientUnits="userSpaceOnUse">
<stop stop-color="#6586FF"/>
<stop offset="1" stop-color="#4C73FF"/>
</linearGradient>
</defs>
</svg>
