<svg width="171" height="48" viewBox="0 0 171 48" fill="none" xmlns="http://www.w3.org/2000/svg">
<g clip-path="url(#clip0_5482_697)">
<path d="M5.3083 13.4751L8.67694 16.8437L3.37437 22.1578L0 18.7834L5.3083 13.4751Z" fill="#1F324B"/>
<path d="M0.15625 41.772L16.8787 25.0496L22.187 30.3579L5.46455 47.0804L0.15625 41.772Z" fill="#1F324B"/>
<path d="M5.3083 0L22.17 16.8617L16.8617 22.17L0 5.3083L5.3083 0Z" fill="url(#paint0_linear_5482_697)"/>
<path d="M0.15625 28.2972L16.8787 11.5747L22.187 16.883L5.46455 33.6055L0.15625 28.2972Z" fill="url(#paint1_linear_5482_697)"/>
<path d="M35.3125 35.3256H45.1608C47.4351 35.3256 49.1228 34.703 50.2239 33.4578C51.3353 32.2024 51.891 30.5815 51.891 28.5954C51.891 27.5252 51.6286 26.5424 51.1038 25.6471C50.5892 24.7415 49.8123 24.0725 48.7729 23.6404C49.4315 23.2391 49.9461 22.673 50.3165 21.9424C50.687 21.2117 50.8722 20.3422 50.8722 19.3336C50.8722 18.356 50.6459 17.3887 50.1931 16.4316C49.7403 15.4746 49.025 14.6822 48.0474 14.0544C47.0698 13.4164 45.7885 13.0974 44.2038 13.0974H35.3125V35.3256ZM39.5729 21.7726V17.0182H44.142C44.9447 17.0182 45.557 17.2498 45.979 17.7128C46.4009 18.1759 46.6118 18.7471 46.6118 19.4263C46.6118 20.2392 46.3752 20.8362 45.9018 21.2168C45.4387 21.5873 44.8521 21.7726 44.142 21.7726H39.5729ZM39.5729 31.374V25.6934H44.7286C45.7062 25.6934 46.4369 25.9558 46.9206 26.4807C47.4145 26.9952 47.6615 27.6487 47.6615 28.4411C47.6615 29.3364 47.3837 30.0516 46.8279 30.5867C46.2825 31.1115 45.5828 31.374 44.7286 31.374H39.5729ZM54.9696 35.3256H59.1992V26.8048C59.1992 24.8701 59.9606 23.5529 61.4838 22.8531C61.9777 22.6164 62.5283 22.4775 63.1354 22.4363C63.7528 22.3849 64.2932 22.4312 64.7563 22.5752V18.6545C64.005 18.5619 63.2537 18.5824 62.5025 18.7162C61.7513 18.8397 61.0721 19.0867 60.4649 19.4572C60.0739 19.6835 59.7291 19.9563 59.4307 20.2752C59.1426 20.5943 58.8904 20.9493 58.6743 21.3404V18.6545H54.9696V35.3256ZM74.893 35.7887C76.5602 35.7887 78.0266 35.4183 79.2923 34.6773C80.5684 33.926 81.5615 32.8918 82.2716 31.5746C82.9919 30.2471 83.3521 28.7189 83.3521 26.9901C83.3521 25.2715 82.9971 23.7536 82.287 22.4363C81.5769 21.1088 80.5839 20.0694 79.3078 19.3182C78.0421 18.567 76.5705 18.1914 74.893 18.1914C73.2465 18.1914 71.7903 18.5619 70.5246 19.3027C69.2588 20.0437 68.2657 21.0779 67.5453 22.4055C66.825 23.7227 66.4648 25.2509 66.4648 26.9901C66.4648 28.7086 66.8147 30.2317 67.5145 31.5592C68.2246 32.8764 69.2125 33.9106 70.4783 34.6619C71.744 35.4132 73.2156 35.7887 74.893 35.7887ZM74.893 31.8679C73.5861 31.8679 72.593 31.4305 71.9139 30.5558C71.2449 29.6708 70.9104 28.4822 70.9104 26.9901C70.9104 25.5391 71.2295 24.3659 71.8676 23.4706C72.5158 22.565 73.5243 22.1122 74.893 22.1122C76.2206 22.1122 77.2188 22.5547 77.8876 23.4397C78.5669 24.3247 78.9065 25.5082 78.9065 26.9901C78.9065 28.4205 78.572 29.5936 77.9031 30.5095C77.2445 31.4151 76.2411 31.8679 74.893 31.8679ZM86.7158 35.3256H91.0071V27.2987L96.7801 35.3256H102.245L95.8228 26.9901L101.843 18.6545H96.6563L91.0071 26.6813V13.0974H86.7467L86.7158 35.3256ZM111.229 35.7887C112.834 35.7887 114.311 35.3668 115.658 34.523C117.017 33.6791 118.01 32.4956 118.637 30.9726L114.439 29.7686C113.801 31.1682 112.648 31.8679 110.981 31.8679C109.839 31.8679 108.939 31.5489 108.28 30.9109C107.632 30.2729 107.23 29.357 107.076 28.1632H118.776C118.951 26.1462 118.746 24.3916 118.159 22.8994C117.572 21.4073 116.667 20.2495 115.442 19.4263C114.218 18.603 112.731 18.1914 110.981 18.1914C109.335 18.1914 107.878 18.567 106.613 19.3182C105.347 20.0592 104.354 21.1037 103.634 22.4518C102.913 23.7999 102.553 25.3846 102.553 27.2061C102.553 28.8733 102.919 30.3552 103.649 31.6519C104.39 32.9381 105.409 33.9518 106.706 34.6928C108.013 35.4234 109.52 35.7887 111.229 35.7887ZM111.166 21.8344C112.175 21.8344 112.947 22.0864 113.482 22.5907C114.027 23.0949 114.377 23.9131 114.532 25.0451H107.184C107.627 22.9046 108.954 21.8344 111.166 21.8344ZM122.262 35.3256H126.492V26.8048C126.492 24.8701 127.253 23.5529 128.776 22.8531C129.271 22.6164 129.821 22.4775 130.427 22.4363C131.046 22.3849 131.585 22.4312 132.048 22.5752V18.6545C131.298 18.5619 130.547 18.5824 129.795 18.7162C129.044 18.8397 128.364 19.0867 127.758 19.4572C127.366 19.6835 127.021 19.9563 126.724 20.2752C126.435 20.5943 126.183 20.9493 125.967 21.3404V18.6545H122.262V35.3256ZM142.432 35.7887C144.038 35.7887 145.515 35.3668 146.863 34.523C148.221 33.6791 149.214 32.4956 149.842 30.9726L145.644 29.7686C145.006 31.1682 143.853 31.8679 142.185 31.8679C141.043 31.8679 140.143 31.5489 139.484 30.9109C138.836 30.2729 138.434 29.357 138.28 28.1632H149.981C150.155 26.1462 149.95 24.3916 149.363 22.8994C148.777 21.4073 147.871 20.2495 146.646 19.4263C145.422 18.603 143.935 18.1914 142.185 18.1914C140.539 18.1914 139.083 18.567 137.817 19.3182C136.552 20.0592 135.558 21.1037 134.838 22.4518C134.117 23.7999 133.757 25.3846 133.757 27.2061C133.757 28.8733 134.123 30.3552 134.853 31.6519C135.594 32.9381 136.613 33.9518 137.91 34.6928C139.217 35.4234 140.724 35.7887 142.432 35.7887ZM142.371 21.8344C143.379 21.8344 144.151 22.0864 144.686 22.5907C145.232 23.0949 145.581 23.9131 145.736 25.0451H138.388C138.83 22.9046 140.158 21.8344 142.371 21.8344ZM161.215 35.7887C162.821 35.7887 164.298 35.3668 165.646 34.523C167.004 33.6791 167.997 32.4956 168.625 30.9726L164.426 29.7686C163.788 31.1682 162.635 31.8679 160.968 31.8679C159.826 31.8679 158.926 31.5489 158.267 30.9109C157.619 30.2729 157.217 29.357 157.063 28.1632H168.764C168.938 26.1462 168.733 24.3916 168.146 22.8994C167.559 21.4073 166.654 20.2495 165.429 19.4263C164.205 18.603 162.718 18.1914 160.968 18.1914C159.322 18.1914 157.866 18.567 156.6 19.3182C155.335 20.0592 154.341 21.1037 153.621 22.4518C152.9 23.7999 152.54 25.3846 152.54 27.2061C152.54 28.8733 152.906 30.3552 153.636 31.6519C154.377 32.9381 155.396 33.9518 156.693 34.6928C158 35.4234 159.507 35.7887 161.215 35.7887ZM161.154 21.8344C162.162 21.8344 162.934 22.0864 163.469 22.5907C164.014 23.0949 164.364 23.9131 164.519 25.0451H157.171C157.613 22.9046 158.941 21.8344 161.154 21.8344Z" fill="#1F324B"/>
</g>
<defs>
<linearGradient id="paint0_linear_5482_697" x1="1.59581e-07" y1="0.793703" x2="30.6181" y2="20.5339" gradientUnits="userSpaceOnUse">
<stop stop-color="#CEFB2C"/>
<stop offset="1" stop-color="#05C7FB"/>
</linearGradient>
<linearGradient id="paint1_linear_5482_697" x1="-0.00348153" y1="0.793421" x2="30.6147" y2="20.5337" gradientUnits="userSpaceOnUse">
<stop stop-color="#CEFB2C"/>
<stop offset="1" stop-color="#05C7FB"/>
</linearGradient>
<clipPath id="clip0_5482_697">
<rect width="170.118" height="47.2549" fill="white"/>
</clipPath>
</defs>
</svg>
