<svg width="32" height="32" viewBox="0 0 32 32" fill="none" xmlns="http://www.w3.org/2000/svg">
<path fill-rule="evenodd" clip-rule="evenodd" d="M13.8722 29.8713C6.22003 29.8713 0 23.6505 0 15.9991C0 8.34772 6.22003 2.12695 13.8722 2.12695C17.3808 2.12695 20.6739 3.40108 23.2391 5.75297C22.3841 6.25992 21.5598 6.817 20.7706 7.42128C18.8177 5.84413 16.3823 4.98569 13.8722 4.98967C7.80788 4.98967 2.86272 9.93484 2.86272 15.9991C2.86272 22.0634 7.80788 27.0078 13.8722 27.0078C22.3097 27.0078 27.3191 17.9885 23.6901 10.9764C24.404 10.3124 25.1433 9.67605 25.9062 9.06893C27.1205 11.1654 27.7443 13.5431 27.7443 15.9984C27.7443 23.6505 21.5243 29.8713 13.8722 29.8713Z" fill="#A8DD15"/>
<path fill-rule="evenodd" clip-rule="evenodd" d="M14.2366 23.1301C14.1633 23.1289 14.092 23.1061 14.0317 23.0645C13.9714 23.0228 13.9248 22.9642 13.8978 22.8961C13.8719 22.8444 11.6337 17.0658 8.17233 14.8793C7.49541 14.4629 6.97498 14.0208 7.18315 13.0316C7.39132 12.069 8.04167 11.522 9.21319 11.2621C11.2949 10.8192 13.5338 14.0466 14.3658 15.3739C17.2817 11.1322 23.1112 4.46925 31.596 3.68824C32.0049 3.64026 32.157 4.24705 31.7783 4.41684C31.6484 4.46851 19.5199 10.0124 14.6005 22.9219C14.5638 22.9857 14.5107 23.0387 14.4467 23.0752C14.3828 23.1118 14.3103 23.1307 14.2366 23.1301Z" fill="#A8DD15"/>
</svg>
