<svg width="48" height="48" viewBox="0 0 48 48" fill="none" xmlns="http://www.w3.org/2000/svg">
<path d="M34 24C34 29.5228 29.5228 34 24 34C18.4772 34 14 29.5228 14 24C14 18.4772 18.4772 14 24 14" stroke="#A8DD15" stroke-width="3" stroke-linecap="round"/>
<path d="M28 4.40008C26.7076 4.13772 25.3698 4 24 4C12.9543 4 4 12.9543 4 24C4 35.0456 12.9543 44 24 44C35.0456 44 44 35.0456 44 24C44 22.6302 43.8622 21.2924 43.6 20" stroke="#A8DD15" stroke-width="3" stroke-linecap="round"/>
<path d="M24.0625 23.9248L33.1683 14.819M39.4827 8.68902L38.3763 4.71474C38.1725 4.06 37.3847 3.79908 36.8537 4.23302C33.9815 6.58014 30.8527 9.7416 33.4079 14.7282C38.5561 17.1289 41.4951 13.8915 43.7485 11.1704C44.1969 10.629 43.9265 9.81512 43.2513 9.61988L39.4827 8.68902Z" stroke="#A8DD15" stroke-width="3" stroke-linecap="round" stroke-linejoin="round"/>
</svg>
