<svg width="46" height="46" viewBox="0 0 46 46" fill="none" xmlns="http://www.w3.org/2000/svg">
<rect width="46" height="46" rx="23" fill="#A8DD15" fill-opacity="0.14"/>
<path d="M35.7767 27.8435L33.7629 25.8296V18.9218L35.0776 18.4478C35.225 18.3947 35.3524 18.2975 35.4426 18.1693C35.5327 18.0412 35.5811 17.8884 35.5812 17.7318C35.5813 17.5751 35.5331 17.4223 35.4432 17.294C35.3532 17.1658 35.226 17.0684 35.0787 17.0151L23.0497 12.6588C22.8822 12.5981 22.6986 12.5981 22.531 12.6588L10.5022 17.0151C10.3555 17.0683 10.2287 17.1652 10.1389 17.2928C10.0491 17.4203 10.0006 17.5724 10 17.7284C9.99943 17.8845 10.0468 18.0369 10.1356 18.1651C10.2245 18.2934 10.3506 18.3912 10.4969 18.4455L14.9362 20.09V25.1095C14.9362 25.2653 14.9839 25.4174 15.0731 25.5451C15.1221 25.6154 15.5862 26.2492 16.7746 26.8474C18.2759 27.6031 20.245 27.9864 22.6271 27.9864C25.0075 27.9864 26.9866 27.604 28.5093 26.8497C29.7094 26.2552 30.189 25.628 30.2398 25.5585C30.3348 25.4281 30.386 25.271 30.386 25.1096V20.1391L32.2396 19.4708V25.8296L30.2257 27.8435C30.0829 27.9863 30.0027 28.18 30.0027 28.382C30.0027 28.584 30.0829 28.7777 30.2257 28.9205L32.2396 30.9344V32.6241C32.2396 33.0447 32.5807 33.3857 33.0013 33.3857C33.4219 33.3857 33.7629 33.0447 33.7629 32.6241V30.9344L35.7768 28.9205C36.0742 28.6232 36.0742 28.1409 35.7767 27.8435ZM22.7904 14.185L32.5781 17.7296L22.6307 21.3159L12.9759 17.7393L22.7904 14.185ZM28.8627 24.806C26.2589 27.1489 18.5217 26.8802 16.4595 24.8136V20.6543L22.3625 22.841C22.4562 22.8559 22.5446 22.9366 22.8854 22.8434L28.8628 20.6884L28.8627 24.806ZM33.0012 29.5418L31.8414 28.382L33.0012 27.2221L34.1611 28.382L33.0012 29.5418Z" fill="#1A1A1A"/>
</svg>
