<svg width="46" height="46" viewBox="0 0 46 46" fill="none" xmlns="http://www.w3.org/2000/svg">
<rect width="46" height="46" rx="23" fill="#A8DD15" fill-opacity="0.14"/>
<g clip-path="url(#clip0_5311_3891)">
<path d="M35.614 23.4281L32.6482 17.0759L33.9285 17.4431C34.2096 17.5238 34.503 17.3614 34.5835 17.0801C34.6027 17.0132 34.6085 16.9433 34.6006 16.8742C34.5928 16.8051 34.5714 16.7382 34.5377 16.6774C34.504 16.6166 34.4587 16.563 34.4043 16.5197C34.3499 16.4764 34.2874 16.4442 34.2206 16.4251L25.3191 13.8707C25.3209 13.8325 25.322 13.7945 25.322 13.7563C25.3222 12.6992 24.6086 11.7755 23.5858 11.5092C22.563 11.2428 21.4894 11.701 20.9741 12.6237L12.0717 10.0695C11.7907 9.9888 11.4973 10.1514 11.4166 10.4326C11.3361 10.7138 11.4985 11.0069 11.7797 11.0876L13.5365 11.5918L10.3549 18.4066C10.2512 18.4429 10.1615 18.5104 10.0979 18.5999C10.0343 18.6894 10.0001 18.7964 10 18.9062C9.99936 20.6256 11.0357 22.1756 12.6248 22.832C14.2139 23.4887 16.0421 23.1221 17.2553 21.9038C17.6554 21.5136 17.9736 21.0475 18.1912 20.5328C18.4087 20.018 18.5213 19.465 18.5223 18.9062C18.5222 18.7908 18.4844 18.6786 18.4148 18.5866C18.3451 18.4946 18.2473 18.4279 18.1362 18.3967L15.1792 12.0632L20.6812 13.6418C20.6793 13.6799 20.6783 13.7181 20.6783 13.7564C20.6799 14.8341 21.4216 15.7694 22.4705 16.0164V26.5074H21.0086C19.8406 26.5074 18.8691 27.4448 18.8691 28.6131V28.9205C17.8861 29.1274 17.1804 29.9918 17.1742 30.9964V31.7379C17.1785 31.8818 17.2382 32.0186 17.3408 32.1196C17.4434 32.2206 17.581 32.2782 17.725 32.2803H28.2754C28.4193 32.2782 28.557 32.2206 28.6595 32.1196C28.7621 32.0186 28.8218 31.8818 28.8261 31.7379V30.9964C28.8199 29.9918 28.1142 29.1274 27.1313 28.9205V28.6131C27.1313 27.4448 26.1595 26.5074 24.9917 26.5074H23.5298V16.0165C23.8437 15.9422 24.1388 15.8037 24.3964 15.6095C24.6539 15.4154 24.8684 15.1698 25.0262 14.8885L31.0209 16.6087L27.8326 23.4381C27.729 23.4743 27.6391 23.5418 27.5755 23.6313C27.5119 23.7207 27.4777 23.8278 27.4776 23.9375C27.4772 25.6569 28.5135 27.2069 30.1026 27.8634C31.6916 28.52 33.5197 28.1536 34.7329 26.9353C35.133 26.5451 35.4512 26.079 35.6688 25.5642C35.8864 25.0494 35.999 24.4964 36.0001 23.9375C36 23.8222 35.9622 23.71 35.8925 23.618C35.8229 23.5261 35.7251 23.4594 35.614 23.4281H35.614ZM14.2478 12.5465L16.9578 18.3512H11.538L14.2478 12.5465ZM14.2478 22.0691C12.6879 22.0782 11.3537 20.9503 11.1033 19.4104H17.4165C17.1469 20.949 15.81 22.071 14.2478 22.0691ZM27.7668 30.9965V31.2212H18.2334V30.9965C18.2334 30.4124 18.73 29.9501 19.3138 29.9501H26.6865C27.2703 29.9501 27.7668 30.4124 27.7668 30.9965H27.7668ZM26.072 28.6132V28.8908H19.9283V28.6132C19.9283 28.0291 20.4248 27.5668 21.0086 27.5668H24.9916C25.5754 27.5668 26.072 28.0291 26.072 28.6132ZM23.0001 15.0189C22.7374 15.0191 22.4812 14.9374 22.2671 14.7852C22.053 14.633 21.8916 14.4178 21.8055 14.1696C21.7193 13.9214 21.7127 13.6525 21.7864 13.4004C21.8602 13.1482 22.0108 12.9253 22.2172 12.7628C22.4236 12.6002 22.6755 12.506 22.938 12.4933C23.2004 12.4806 23.4603 12.5501 23.6814 12.692C23.9025 12.8338 24.0739 13.041 24.1718 13.2848C24.2696 13.5286 24.2891 13.7968 24.2274 14.0521C24.214 14.0855 24.204 14.1201 24.1975 14.1555C24.1135 14.4067 23.9528 14.6252 23.7379 14.7801C23.5231 14.935 23.265 15.0186 23.0001 15.0189ZM34.4355 23.3827H29.0158L31.7256 17.5781L34.4355 23.3827ZM31.7255 27.1007C30.1656 27.1097 28.8314 25.9818 28.5811 24.4419H34.8942C34.6247 25.9805 33.2877 27.1025 31.7255 27.1007Z" fill="#1A1A1A"/>
</g>
<defs>
<clipPath id="clip0_5311_3891">
<rect width="26" height="26" fill="white" transform="translate(10 10)"/>
</clipPath>
</defs>
</svg>
