<svg width="414" height="401" viewBox="0 0 414 401" fill="none" xmlns="http://www.w3.org/2000/svg">
<path d="M142.528 21.0485C142.528 21.0485 112.816 5.04971 87.675 30.1906C62.5341 55.3315 94.5316 72.473 103.674 105.613C112.816 138.754 44.2498 120.469 19.109 145.61C-6.03193 170.751 16.7434 206.177 33.9649 211.319C51.1864 216.462 85.3895 202.749 89.9605 229.032C89.9605 229.032 97.9599 240.46 76.2473 273.6C54.5348 306.74 55.6775 342.166 95.6744 350.166C135.671 358.165 144.813 304.455 174.525 312.454C204.237 320.454 196.238 383.306 253.376 374.164C310.515 365.022 281.694 322.156 298.961 303.015C316.229 283.874 339.084 309.026 364.225 289.599C389.366 270.172 349.369 227.889 352.797 199.32C356.225 170.751 383.652 168.465 385.937 144.467C388.223 120.469 371.081 123.898 333.37 91.9001C295.659 59.9026 313.943 37.0472 287.659 22.1912C261.376 7.33525 237.378 51.9032 203.095 42.761C182.339 37.2155 162.08 29.9529 142.528 21.0485Z" fill="#A8DD15"/>
<path opacity="0.8" d="M142.528 21.0485C142.528 21.0485 112.816 5.04971 87.675 30.1906C62.5341 55.3315 94.5316 72.473 103.674 105.613C112.816 138.754 44.2498 120.469 19.109 145.61C-6.03193 170.751 16.7434 206.177 33.9649 211.319C51.1864 216.462 85.3895 202.749 89.9605 229.032C89.9605 229.032 97.9599 240.46 76.2473 273.6C54.5348 306.74 55.6775 342.166 95.6744 350.166C135.671 358.165 144.813 304.455 174.525 312.454C204.237 320.454 196.238 383.306 253.376 374.164C310.515 365.022 281.694 322.156 298.961 303.015C316.229 283.874 339.084 309.026 364.225 289.599C389.366 270.172 349.369 227.889 352.797 199.32C356.225 170.751 383.652 168.465 385.937 144.467C388.223 120.469 371.081 123.898 333.37 91.9001C295.659 59.9026 313.943 37.0472 287.659 22.1912C261.376 7.33525 237.378 51.9032 203.095 42.761C182.339 37.2155 162.08 29.9529 142.528 21.0485Z" fill="white"/>
<path d="M177.718 282.916C217.543 269.911 243.095 260.061 272.179 259.718C272.179 259.718 313.604 265.055 330.746 259.718C380.867 244.085 385.233 187.152 358.172 145.121C330.151 101.593 279.721 114.015 279.721 114.015C219.36 125.1 179.089 112.872 158.028 102.69C141.149 94.5537 120.751 97.5821 107.746 111.044C104.817 113.949 102.524 117.432 101.015 121.272C82.4908 171.999 103.826 221.572 111.437 251.844C114.248 263.066 137.881 295.921 177.718 282.916Z" stroke="#263238" stroke-linecap="round" stroke-linejoin="round" stroke-dasharray="2 2"/>
<path d="M196.163 73.068C194.552 92.0608 192.861 111.316 193.284 130.298C194.278 176.283 198.895 222.119 201.82 268.001C203.569 295.348 208.974 324.248 203.466 351.423C198.312 376.896 178.028 397.923 151.458 399.808C122.215 401.888 101.085 374.587 104.274 347.126C106.662 326.557 119.027 307.552 119.758 286.823C120.729 258.916 88.1148 262.516 66.9165 244.54C41.9698 223.422 17.3432 195.344 10.098 162.615C8.00678 153.21 7.46968 143.188 10.9551 134.149C26.7367 93.3292 93.7258 83.0786 119.758 117.773C146.579 153.542 136.008 205.56 179.902 210.44C223.796 215.32 266.878 196.624 309.149 186.053C351.42 175.483 398.559 201.504 391.245 256.768C383.932 312.032 315.651 310.478 283.951 272.218C252.251 233.958 266.878 155.976 273.38 125.041C276.957 108.082 286.145 92.8607 294.202 77.7305C300.544 65.8 308.543 53.3438 306.486 39.2535C300.418 -2.28612 231.064 -14.0338 209.98 21.8148C209.957 21.8606 199.249 36.5908 196.163 73.068Z" stroke="#263238" stroke-linecap="round" stroke-linejoin="round" stroke-dasharray="2 2"/>
<path d="M205.271 240.182C194.584 240.182 184.335 235.936 176.778 228.38C169.222 220.823 164.977 210.574 164.977 199.888C164.977 189.201 169.222 178.952 176.778 171.396C184.335 163.839 194.584 159.594 205.271 159.594C215.957 159.594 226.206 163.839 233.763 171.396C241.319 178.952 245.565 189.201 245.565 199.888C245.565 210.574 241.319 220.823 233.763 228.38C226.206 235.936 215.957 240.182 205.271 240.182Z" fill="#263238" stroke="#263238" stroke-miterlimit="10"/>
<path d="M198.881 224.239H208.697V199.681H215.554L216.273 191.453H208.697V186.745C208.697 184.814 209.085 184.048 210.982 184.048H216.285V175.512H209.497C202.195 175.512 198.903 178.723 198.903 184.871V191.43H193.807V199.761H198.903L198.881 224.239Z" fill="#A8DD15"/>
<path d="M221.064 166.859C224.842 168.663 228.283 171.102 231.235 174.07" stroke="white" stroke-width="0.75" stroke-linecap="round" stroke-linejoin="round"/>
<path d="M182.588 171.16C183.422 170.497 184.302 169.868 185.216 169.263C190.09 166.066 195.657 164.081 201.454 163.473C207.25 162.865 213.108 163.651 218.539 165.766" stroke="white" stroke-width="0.75" stroke-linecap="round" stroke-linejoin="round"/>
<path d="M200.812 236.217C195.533 235.569 190.458 233.778 185.942 230.967C181.427 228.156 177.578 224.395 174.666 219.944C170.55 213.669 168.464 206.28 168.691 198.78C168.917 191.279 171.446 184.03 175.934 178.016" stroke="white" stroke-width="0.75" stroke-linecap="round" stroke-linejoin="round"/>
<path d="M214.344 235.359C211.963 235.988 209.524 236.371 207.064 236.502" stroke="white" stroke-width="0.75" stroke-linecap="round" stroke-linejoin="round"/>
<path d="M231.233 174.074C232.969 175.823 234.531 177.736 235.895 179.788C238.534 183.808 240.354 188.31 241.251 193.034C242.148 197.759 242.105 202.614 241.123 207.322C240.141 212.029 238.24 216.497 235.529 220.469C232.818 224.441 229.351 227.84 225.325 230.47C222.681 232.197 219.828 233.58 216.834 234.584" stroke="white" stroke-width="0.75" stroke-linecap="round" stroke-linejoin="round"/>
<path d="M372.228 240.182C361.541 240.182 351.292 235.936 343.735 228.38C336.179 220.823 331.934 210.574 331.934 199.888C331.934 189.201 336.179 178.952 343.735 171.396C351.292 163.839 361.541 159.594 372.228 159.594C382.914 159.594 393.163 163.839 400.72 171.396C408.276 178.952 412.522 189.201 412.522 199.888C412.522 210.574 408.276 220.823 400.72 228.38C393.163 235.936 382.914 240.182 372.228 240.182Z" fill="#263238" stroke="#263238" stroke-miterlimit="10"/>
<path d="M353.063 231.048C349.496 228.855 346.333 226.064 343.715 222.797" stroke="white" stroke-width="0.75" stroke-linecap="round" stroke-linejoin="round"/>
<path d="M391.78 230.855C390.866 231.427 389.929 231.998 388.957 232.467C383.774 235.126 378.029 236.508 372.203 236.498C366.377 236.489 360.638 235.087 355.463 232.41" stroke="white" stroke-width="0.75" stroke-linecap="round" stroke-linejoin="round"/>
<path d="M380.584 164.246C385.765 165.448 390.621 167.767 394.811 171.042C399.002 174.317 402.426 178.468 404.845 183.205C408.27 189.88 409.559 197.448 408.537 204.881C407.515 212.314 404.231 219.252 399.131 224.756" stroke="white" stroke-width="0.75" stroke-linecap="round" stroke-linejoin="round"/>
<path d="M367.006 163.651C369.442 163.298 371.908 163.195 374.365 163.343" stroke="white" stroke-width="0.75" stroke-linecap="round" stroke-linejoin="round"/>
<path d="M343.717 222.799C342.172 220.866 340.825 218.783 339.694 216.582C337.498 212.305 336.167 207.637 335.777 202.845C335.387 198.053 335.945 193.231 337.421 188.656C338.896 184.08 341.259 179.84 344.375 176.178C347.491 172.517 351.298 169.506 355.579 167.317C358.39 165.878 361.374 164.806 364.458 164.129" stroke="white" stroke-width="0.75" stroke-linecap="round" stroke-linejoin="round"/>
<path d="M372.226 181.774C378.134 181.774 378.831 181.774 381.162 181.899C382.563 181.917 383.951 182.176 385.265 182.665C386.216 183.036 387.079 183.6 387.801 184.322C388.523 185.044 389.087 185.908 389.459 186.859C389.944 188.173 390.199 189.561 390.213 190.962C390.316 193.247 390.339 193.99 390.339 199.887C390.339 205.783 390.338 206.48 390.213 208.812C390.199 210.212 389.944 211.6 389.459 212.914C389.092 213.868 388.53 214.734 387.807 215.457C387.085 216.179 386.219 216.742 385.265 217.108C383.951 217.597 382.563 217.856 381.162 217.874C378.877 217.977 378.134 217.999 372.226 217.999C366.318 217.999 365.632 217.999 363.301 217.874C361.899 217.856 360.511 217.597 359.198 217.108C358.242 216.752 357.376 216.19 356.661 215.463C355.952 214.741 355.413 213.87 355.084 212.914C354.599 211.6 354.344 210.212 354.33 208.812C354.216 206.526 354.193 205.783 354.193 199.887C354.193 193.99 354.193 193.293 354.33 190.962C354.344 189.561 354.599 188.173 355.084 186.859C355.437 185.899 356.003 185.031 356.741 184.322C357.453 183.587 358.319 183.021 359.278 182.665C360.591 182.176 361.979 181.917 363.381 181.899C365.666 181.797 366.409 181.774 372.306 181.774M372.306 177.797C366.306 177.797 365.563 177.797 363.163 177.923C361.332 177.962 359.52 178.309 357.804 178.951C356.333 179.51 355 180.379 353.896 181.499C352.77 182.604 351.9 183.942 351.347 185.419C350.7 187.134 350.352 188.946 350.319 190.779C350.204 193.133 350.182 193.887 350.182 199.921C350.182 205.955 350.182 206.675 350.319 209.063C350.352 210.899 350.7 212.716 351.347 214.434C351.916 215.899 352.784 217.23 353.896 218.342C355.008 219.453 356.339 220.322 357.804 220.891C359.52 221.532 361.332 221.88 363.163 221.919C365.529 222.022 366.272 222.045 372.306 222.045C378.339 222.045 379.059 222.045 381.448 221.919C383.279 221.879 385.091 221.531 386.807 220.891C388.273 220.322 389.604 219.453 390.715 218.342C391.827 217.23 392.695 215.899 393.264 214.434C393.911 212.716 394.259 210.899 394.292 209.063C394.407 206.709 394.43 205.955 394.43 199.921C394.43 193.887 394.43 193.167 394.292 190.779C394.259 188.946 393.911 187.134 393.264 185.419C392.712 183.942 391.842 182.604 390.716 181.499C389.611 180.379 388.278 179.51 386.807 178.951C385.091 178.311 383.279 177.963 381.448 177.923C379.082 177.82 378.328 177.797 372.306 177.797Z" fill="#A8DD15"/>
<path d="M372.227 188.539C369.986 188.555 367.8 189.234 365.944 190.49C364.089 191.747 362.647 193.524 361.8 195.599C360.953 197.674 360.74 199.953 361.187 202.149C361.634 204.345 362.721 206.36 364.311 207.939C365.901 209.518 367.923 210.59 370.122 211.022C372.321 211.453 374.599 211.224 376.668 210.363C378.736 209.502 380.504 208.047 381.747 206.183C382.991 204.318 383.654 202.128 383.654 199.887C383.654 196.877 382.459 193.991 380.331 191.863C378.203 189.735 375.316 188.539 372.307 188.539M372.227 207.315C370.769 207.315 369.344 206.882 368.132 206.072C366.92 205.263 365.975 204.111 365.417 202.765C364.859 201.418 364.713 199.936 364.997 198.506C365.282 197.076 365.984 195.763 367.015 194.732C368.046 193.701 369.359 192.999 370.789 192.715C372.218 192.43 373.701 192.576 375.047 193.134C376.394 193.692 377.545 194.637 378.355 195.849C379.165 197.061 379.598 198.486 379.598 199.944C379.599 200.912 379.409 201.871 379.04 202.766C378.67 203.661 378.127 204.474 377.442 205.159C376.757 205.844 375.944 206.387 375.049 206.757C374.154 207.127 373.195 207.316 372.227 207.315Z" fill="#A8DD15"/>
<path d="M386.707 188.097C386.707 188.621 386.551 189.133 386.26 189.569C385.969 190.005 385.555 190.345 385.07 190.546C384.586 190.747 384.053 190.799 383.538 190.697C383.024 190.595 382.552 190.342 382.181 189.971C381.81 189.6 381.558 189.128 381.455 188.614C381.353 188.099 381.405 187.566 381.606 187.082C381.807 186.598 382.147 186.183 382.583 185.892C383.019 185.601 383.531 185.445 384.056 185.445C384.759 185.445 385.433 185.725 385.93 186.222C386.427 186.719 386.707 187.393 386.707 188.097Z" fill="#A8DD15"/>
<path d="M205.271 387.404C194.584 387.404 184.335 383.159 176.778 375.602C169.222 368.046 164.977 357.797 164.977 347.11C164.977 336.422 169.221 326.172 176.778 318.614C184.334 311.056 194.583 306.808 205.271 306.805C215.958 306.808 226.207 311.056 233.763 318.614C241.32 326.172 245.565 336.422 245.565 347.11C245.565 357.797 241.319 368.046 233.763 375.602C226.206 383.159 215.957 387.404 205.271 387.404Z" fill="#263238" stroke="#263238" stroke-miterlimit="10"/>
<path d="M186.289 315.798C189.863 313.617 193.787 312.07 197.888 311.227" stroke="white" stroke-width="0.75" stroke-linecap="round" stroke-linejoin="round"/>
<path d="M168.815 350.342C168.723 349.28 168.678 348.194 168.678 347.108C168.673 341.281 170.062 335.536 172.728 330.354C175.393 325.172 179.259 320.702 184.002 317.316" stroke="white" stroke-width="0.75" stroke-linecap="round" stroke-linejoin="round"/>
<path d="M233.202 370.734C229.773 374.8 225.496 378.067 220.671 380.305C215.847 382.544 210.591 383.7 205.273 383.693C197.774 383.695 190.455 381.394 184.306 377.102C178.156 372.81 173.472 366.735 170.887 359.695" stroke="white" stroke-width="0.75" stroke-linecap="round" stroke-linejoin="round"/>
<path d="M239.918 358.949C239.12 361.275 238.091 363.515 236.844 365.634" stroke="white" stroke-width="0.75" stroke-linecap="round" stroke-linejoin="round"/>
<path d="M197.887 311.305C200.316 310.808 202.789 310.559 205.269 310.563C214.968 310.563 224.269 314.415 231.127 321.273C237.985 328.131 241.838 337.433 241.838 347.131C241.839 350.29 241.431 353.436 240.626 356.49" stroke="white" stroke-width="0.75" stroke-linecap="round" stroke-linejoin="round"/>
<path fill-rule="evenodd" clip-rule="evenodd" d="M228.618 358.938C228.138 358.687 227.627 358.502 227.098 358.39C224.615 357.528 222.451 355.934 220.892 353.819C219.998 352.697 219.281 351.444 218.767 350.105C218.658 349.851 218.609 349.576 218.623 349.301C218.636 349.026 218.713 348.757 218.847 348.516C219.41 347.863 220.153 347.39 220.984 347.156C222.035 346.854 223.017 346.349 223.875 345.671C224.042 345.516 224.181 345.335 224.286 345.133C224.318 345.068 224.341 344.999 224.355 344.928C224.422 344.677 224.402 344.411 224.298 344.174C224.07 343.757 223.719 343.421 223.292 343.214C223.031 343.064 222.74 342.973 222.44 342.947C222.14 342.922 221.838 342.962 221.555 343.065C221.056 343.249 220.544 343.398 220.024 343.511C219.453 343.65 218.858 343.65 218.287 343.511C218.287 343.442 218.287 343.305 218.287 343.122C218.287 342.071 218.344 340.997 218.356 339.865C218.463 338.12 218.417 336.369 218.218 334.631C217.595 331.662 215.835 329.054 213.316 327.363C211.538 326.138 209.469 325.401 207.316 325.226C206.585 325.158 205.877 325.135 205.157 325.135C202.213 325.081 199.334 325.997 196.963 327.741C195.213 329.114 193.838 330.906 192.963 332.952C192.286 335.001 192.064 337.173 192.312 339.317C192.448 340.707 192.482 342.105 192.415 343.499C192.417 343.53 192.417 343.56 192.415 343.591C191.734 343.71 191.038 343.71 190.358 343.591C189.878 343.511 189.364 343.316 188.781 343.156C188.516 343.1 188.242 343.102 187.978 343.161C187.713 343.22 187.465 343.336 187.249 343.499C187.015 343.622 186.815 343.801 186.667 344.021C186.519 344.24 186.429 344.493 186.404 344.756C186.398 344.798 186.398 344.84 186.404 344.882C186.479 345.218 186.664 345.52 186.929 345.739C187.158 345.922 187.352 346.048 187.467 346.139C188.489 346.725 189.574 347.197 190.701 347.545C191.028 347.65 191.328 347.828 191.577 348.066C191.827 348.303 192.019 348.594 192.14 348.916C192.234 349.782 192.037 350.654 191.58 351.396C190.431 353.643 188.743 355.571 186.667 357.007C185.569 357.756 184.352 358.313 183.067 358.652C182.564 358.737 182.109 359.001 181.787 359.395L181.718 359.544C181.673 359.717 181.67 359.898 181.707 360.072C181.745 360.247 181.823 360.41 181.936 360.549C182.082 360.728 182.265 360.872 182.473 360.972C183.525 361.509 184.649 361.894 185.809 362.115C186.518 362.22 187.214 362.392 187.889 362.629C187.889 362.629 187.969 362.869 188.106 363.201C188.301 363.783 188.392 364.481 188.609 365.212C188.643 365.312 188.701 365.401 188.779 365.471C188.857 365.541 188.952 365.59 189.055 365.612C189.32 365.69 189.604 365.67 189.855 365.555H189.923C191.644 365.134 193.433 365.067 195.18 365.36C196.936 366.031 198.596 366.93 200.117 368.035C201.281 368.854 202.641 369.351 204.059 369.474C205.172 369.521 206.287 369.498 207.396 369.406C208.329 369.307 209.228 368.998 210.025 368.503C211.807 367.486 213.384 366.275 215.121 365.509C215.79 365.343 216.478 365.262 217.167 365.269C218.61 365.227 220.055 365.3 221.487 365.486H221.624C221.815 365.457 221.99 365.36 222.115 365.212C222.195 365.125 222.25 365.019 222.275 364.903C222.275 364.766 222.355 364.698 222.275 364.812C222.281 364.774 222.281 364.736 222.275 364.698C222.411 363.943 222.69 363.221 223.098 362.572C223.351 362.374 223.669 362.276 223.989 362.298H224.069C225.245 362.109 226.395 361.787 227.498 361.338C228.041 361.163 228.524 360.838 228.892 360.401C228.971 360.292 229.026 360.168 229.054 360.036C229.081 359.905 229.081 359.769 229.053 359.638C229.025 359.506 228.97 359.382 228.891 359.274C228.812 359.165 228.711 359.074 228.595 359.007L228.618 358.938Z" fill="#A8DD15"/>
<path d="M40.8283 240.182C35.5339 240.186 30.2906 239.147 25.3979 237.124C20.5053 235.101 16.0592 232.134 12.314 228.392C8.56868 224.65 5.59758 220.206 3.57047 215.315C1.54337 210.425 0.499998 205.182 0.5 199.888C0.499998 194.593 1.54337 189.351 3.57047 184.46C5.59758 179.569 8.56868 175.126 12.314 171.383C16.0592 167.641 20.5053 164.674 25.3979 162.651C30.2906 160.628 35.5339 159.589 40.8283 159.594C51.5149 159.594 61.7638 163.839 69.3204 171.396C76.877 178.952 81.1223 189.201 81.1223 199.888C81.1223 210.574 76.877 220.823 69.3204 228.38C61.7638 235.936 51.5149 240.182 40.8283 240.182Z" fill="#263238" stroke="#263238" stroke-miterlimit="10"/>
<path d="M21.8125 168.587C25.3856 166.404 29.3101 164.858 33.4116 164.016" stroke="white" stroke-width="0.75" stroke-linecap="round" stroke-linejoin="round"/>
<path d="M4.3305 203.135C4.23907 202.061 4.19337 200.987 4.19337 199.89C4.18906 194.062 5.57759 188.318 8.24325 183.135C10.9089 177.953 14.7745 173.483 19.5179 170.098" stroke="white" stroke-width="0.75" stroke-linecap="round" stroke-linejoin="round"/>
<path d="M68.7242 223.543C65.2937 227.597 61.0212 230.855 56.2039 233.091C51.3867 235.327 46.1401 236.487 40.8292 236.49C33.3283 236.5 26.006 234.202 19.855 229.909C13.7039 225.617 9.02179 219.536 6.44336 212.492" stroke="white" stroke-width="0.75" stroke-linecap="round" stroke-linejoin="round"/>
<path d="M75.4334 211.727C74.6432 214.059 73.613 216.303 72.3594 218.423" stroke="white" stroke-width="0.75" stroke-linecap="round" stroke-linejoin="round"/>
<path d="M33.4102 164.028C35.8394 163.531 38.3129 163.282 40.7924 163.285C50.491 163.285 59.7924 167.138 66.6503 173.996C73.5082 180.854 77.361 190.155 77.361 199.854C77.3632 203.013 76.956 206.159 76.1497 209.213" stroke="white" stroke-width="0.75" stroke-linecap="round" stroke-linejoin="round"/>
<path d="M19.3223 213.37C23.3496 215.964 28.0396 217.34 32.8298 217.336C49.1828 217.336 58.4164 203.519 57.8678 191.132C59.5881 189.878 61.0736 188.331 62.256 186.561C60.6494 187.267 58.9475 187.733 57.205 187.944C59.0432 186.846 60.4169 185.115 61.0676 183.075C59.3381 184.096 57.4489 184.819 55.4794 185.212C54.1549 183.799 52.4015 182.861 50.4904 182.544C48.5793 182.228 46.6171 182.55 44.9074 183.46C43.1977 184.371 41.8358 185.82 41.0325 187.583C40.2292 189.346 40.0292 191.324 40.4635 193.212C36.9615 193.037 33.5356 192.126 30.4089 190.539C27.2823 188.952 24.5249 186.724 22.3163 184.001C21.1901 185.942 20.8445 188.238 21.3496 190.424C21.8547 192.61 23.1727 194.522 25.0361 195.772C23.6343 195.716 22.2665 195.324 21.0478 194.629C21.0204 196.682 21.711 198.681 23.0005 200.279C24.29 201.877 26.0973 202.975 28.1102 203.382C26.8127 203.731 25.4532 203.782 24.1333 203.531C24.6957 205.281 25.7912 206.811 27.2667 207.908C28.7421 209.004 30.5234 209.611 32.3612 209.645C30.5403 211.094 28.4511 212.169 26.2134 212.808C23.9758 213.448 21.6339 213.639 19.3223 213.37Z" fill="#A8DD15"/>
<path d="M205.271 83.6153C194.584 83.6153 184.335 79.3701 176.778 71.8135C169.222 64.2569 164.977 54.0079 164.977 43.3213C164.977 32.6347 169.222 22.3858 176.778 14.8292C184.335 7.27258 194.584 3.02734 205.271 3.02734C215.957 3.02734 226.206 7.27258 233.763 14.8292C241.319 22.3858 245.565 32.6347 245.565 43.3213C245.565 54.0079 241.319 64.2569 233.763 71.8135C226.206 79.3701 215.957 83.6153 205.271 83.6153Z" fill="#263238" stroke="#263238" stroke-miterlimit="10"/>
<path fill-rule="evenodd" clip-rule="evenodd" d="M228.494 42.3413C228.545 36.5828 226.307 31.0396 222.271 26.9313C218.236 22.823 212.734 20.486 206.975 20.4345C201.217 20.3829 195.674 22.6211 191.565 26.6566C187.457 30.692 185.12 36.1942 185.068 41.9528C185.068 42.2613 185.068 42.5813 185.068 42.8899C185.067 46.8145 186.142 50.6645 188.177 54.0204L184.303 65.6195L196.325 61.7912C199.618 63.6038 203.326 64.5301 207.085 64.4795C210.844 64.4289 214.526 63.4031 217.77 61.5025C221.013 59.6019 223.708 56.8917 225.59 53.637C227.472 50.3824 228.476 46.6949 228.505 42.9356C228.505 42.7641 228.505 42.5242 228.494 42.3413ZM206.781 61.0027C203.213 61.0115 199.723 59.9659 196.747 57.9972L189.731 60.2828L192.016 53.5519C189.773 50.4681 188.572 46.749 188.588 42.9356C188.588 42.3528 188.588 41.7928 188.68 41.1871C189.222 36.7228 191.391 32.615 194.771 29.6489C198.151 26.6827 202.506 25.0664 207.003 25.1088C211.5 25.1512 215.823 26.8495 219.147 29.8788C222.471 32.9082 224.561 37.0562 225.02 41.53C225.065 42.0023 225.088 42.4708 225.088 42.9356C225.064 47.7617 223.124 52.3807 219.696 55.7772C216.267 59.1737 211.63 61.0697 206.804 61.0484L206.781 61.0027Z" fill="#A8DD15"/>
<path fill-rule="evenodd" clip-rule="evenodd" d="M216.744 47.2441C216.207 46.9812 213.602 45.7013 213.11 45.5299C212.619 45.3585 212.264 45.2671 211.967 45.7927C211.67 46.3184 210.585 47.5069 210.287 47.8497C209.99 48.1925 209.659 48.2497 209.145 47.9869C207.576 47.3695 206.129 46.4797 204.871 45.3585C203.705 44.3009 202.707 43.0716 201.911 41.7131C201.614 41.1874 201.911 40.9017 202.151 40.6389C202.391 40.376 202.677 40.0218 202.951 39.7132L203.145 39.4618C203.259 39.2675 203.351 39.0847 203.477 38.8333C203.554 38.6912 203.594 38.5321 203.594 38.3705C203.594 38.2088 203.554 38.0498 203.477 37.9076C203.339 37.6448 202.334 35.0393 201.831 33.9879C201.328 32.9366 200.94 33.108 200.688 33.108C200.437 33.108 200.025 33.108 199.671 33.108C199.4 33.1134 199.133 33.1751 198.887 33.2892C198.641 33.4033 198.422 33.5673 198.243 33.7708C197.646 34.3355 197.173 35.0183 196.854 35.7758C196.535 36.5333 196.378 37.3488 196.391 38.1705C196.396 38.7824 196.488 39.3904 196.666 39.9761C197.079 41.2966 197.721 42.5343 198.563 43.6329C198.826 43.9757 202.242 49.4839 207.705 51.6323C213.167 53.7807 213.11 53.0265 214.093 52.935C214.834 52.7951 215.537 52.4997 216.155 52.0683C216.774 51.6369 217.294 51.0794 217.681 50.4324C218.033 49.644 218.14 48.7683 217.99 47.9183C217.635 47.644 217.281 47.5069 216.744 47.2441Z" fill="#A8DD15"/>
<path d="M186.289 12.0086C189.863 9.82746 193.787 8.28098 197.888 7.4375" stroke="white" stroke-width="0.75" stroke-linecap="round" stroke-linejoin="round"/>
<path d="M168.815 46.5572C168.723 45.4945 168.678 44.4088 168.678 43.3232C168.673 37.4956 170.062 31.7513 172.728 26.5691C175.393 21.3869 179.259 16.9167 184.002 13.5312" stroke="white" stroke-width="0.75" stroke-linecap="round" stroke-linejoin="round"/>
<path d="M233.202 66.9764C229.771 71.0386 225.493 74.3022 220.669 76.5386C215.845 78.7751 210.59 79.9305 205.273 79.9239C197.774 79.9251 190.455 77.6244 184.306 73.3327C178.156 69.0409 173.472 62.965 170.887 55.9258" stroke="white" stroke-width="0.75" stroke-linecap="round" stroke-linejoin="round"/>
<path d="M239.918 55.1602C239.118 57.489 238.089 59.7323 236.844 61.8568" stroke="white" stroke-width="0.75" stroke-linecap="round" stroke-linejoin="round"/>
<path d="M197.887 7.46158C200.316 6.96434 202.789 6.71546 205.269 6.71878C214.968 6.71878 224.269 10.5715 231.127 17.4295C237.985 24.2874 241.838 33.5888 241.838 43.2874C241.839 46.4463 241.431 49.5921 240.626 52.6466" stroke="white" stroke-width="0.75" stroke-linecap="round" stroke-linejoin="round"/>
<path d="M289.018 318.125C315.481 318.125 336.934 296.673 336.934 270.209C336.934 243.746 315.481 222.293 289.018 222.293C262.554 222.293 241.102 243.746 241.102 270.209C241.102 296.673 262.554 318.125 289.018 318.125Z" fill="#A8DD15" stroke="#263238" stroke-miterlimit="10"/>
<path opacity="0.3" d="M289.018 318.125C315.481 318.125 336.934 296.673 336.934 270.209C336.934 243.746 315.481 222.293 289.018 222.293C262.554 222.293 241.102 243.746 241.102 270.209C241.102 296.673 262.554 318.125 289.018 318.125Z" fill="white" stroke="#263238" stroke-miterlimit="10"/>
<path d="M289.018 222.291C289.018 222.291 264.779 219.663 260.917 231.65C257.054 243.638 273.35 241.512 270.779 247.078C268.208 252.643 257.489 259.888 261.774 268.07C266.059 276.253 273.773 285.212 265.202 282.218C256.631 279.224 254.495 278.355 256.209 287.783C257.923 297.211 266.916 299.782 281.487 298.491C296.057 297.2 294.766 304.068 302.902 304.925C311.039 305.782 319.187 301.062 319.187 289.063C319.187 277.064 309.336 279.647 318.329 273.647C327.323 267.648 325.62 252.22 323.049 247.512C320.478 242.804 315.335 244.941 315.335 238.941C315.335 232.942 302.971 221.491 289.018 222.291Z" fill="#263238" stroke="#263238" stroke-miterlimit="10"/>
<path d="M275.681 227.887C275.681 227.887 266.71 226.687 267.007 232.367C267.304 238.046 282.869 249.12 297.531 249.428C312.192 249.737 313.678 242.24 311.587 240.743" stroke="white" stroke-width="0.75" stroke-linecap="round" stroke-linejoin="round"/>
<path d="M284.961 232.645C284.961 232.645 277.785 233.536 278.676 238.358C279.568 243.181 284.059 245.535 290.95 248.232" stroke="white" stroke-width="0.75" stroke-linecap="round" stroke-linejoin="round"/>
<path d="M320.855 261.953C320.855 261.953 320.26 269.438 310.993 274.226C301.725 279.015 293.371 286.168 301.371 289.78C309.37 293.391 313.941 297.55 310.947 298.453" stroke="white" stroke-width="0.75" stroke-linecap="round" stroke-linejoin="round"/>
<path d="M275.087 284.09C275.087 284.09 271.499 292.466 266.116 290.946C260.734 289.427 258.928 285.233 262.528 285.233C266.128 285.233 266.414 287.027 266.414 287.027" stroke="white" stroke-width="0.75" stroke-linecap="round" stroke-linejoin="round"/>
<path d="M303.659 249.809C303.659 249.809 311.007 249.694 309.807 256.871C308.607 264.048 301.728 264.653 299.934 270.036" stroke="white" stroke-width="0.75" stroke-linecap="round" stroke-linejoin="round"/>
<path d="M289.017 318.171C299.772 318.184 310.215 314.559 318.649 307.886C315.29 305.406 309.302 301.03 305.816 298.744C300.776 295.384 294.057 284.928 285.086 286.791C277.887 288.299 258.62 296.596 251.283 299.818C255.766 305.543 261.493 310.171 268.032 313.351C274.57 316.531 281.747 318.179 289.017 318.171Z" fill="white" stroke="#263238" stroke-miterlimit="10"/>
<path d="M283.622 285.213C283.622 285.213 270.343 289.065 268.629 300.206C266.914 311.348 279.553 303.315 279.553 303.315C279.553 303.315 286.193 313.063 292.192 310.069C298.192 307.075 299.049 296.778 295.621 289.922C292.192 283.065 283.622 285.213 283.622 285.213Z" fill="white" stroke="#263238" stroke-miterlimit="10"/>
<path d="M283.272 277.031C283.342 280.681 282.845 284.32 281.798 287.818C280.118 292.995 274.644 300.126 279.512 303.326C284.38 306.525 290.62 296.343 292.243 287.796C293.865 279.248 295.042 269.031 295.042 269.031L283.272 277.031Z" fill="white"/>
<mask id="mask0_5304_5288" style="mask-type:luminance" maskUnits="userSpaceOnUse" x="277" y="269" width="19" height="35">
<path d="M283.272 277.031C283.342 280.681 282.845 284.32 281.798 287.818C280.118 292.995 274.644 300.126 279.512 303.326C284.38 306.525 290.62 296.343 292.243 287.796C293.865 279.248 295.042 269.031 295.042 269.031L283.272 277.031Z" fill="white"/>
</mask>
<g mask="url(#mask0_5304_5288)">
<g opacity="0.5" style="mix-blend-mode:multiply">
<path d="M282.141 286.673C283.71 287.242 285.34 287.625 286.997 287.816C288.483 287.988 289.077 287.668 289.283 287.291C289.1 289.428 288.403 295.29 285.969 299.61C285.226 300.935 284.62 302.055 284.14 303.038C287.752 300.604 291.123 293.816 292.266 287.828C293.888 279.291 295.02 269.098 295.02 269.098L283.249 277.097C283.306 280.324 282.933 283.545 282.141 286.673Z" fill="#A8DD15"/>
</g>
</g>
<path d="M283.272 277.031C283.342 280.681 282.845 284.32 281.798 287.818C280.118 292.995 274.644 300.126 279.512 303.326C284.38 306.525 290.62 296.343 292.243 287.796C293.865 279.248 295.042 269.031 295.042 269.031L283.272 277.031Z" stroke="#263238" stroke-miterlimit="10"/>
<path d="M276.081 243.891C276.081 243.891 271.967 261.032 271.967 267.42C271.967 273.808 277.841 281.625 285.291 282.276C294.799 283.042 298.296 270.266 300.353 262.986C302.136 256.667 303.347 251.204 303.644 249.856C289.188 255.318 276.081 243.891 276.081 243.891Z" fill="white"/>
<mask id="mask1_5304_5288" style="mask-type:luminance" maskUnits="userSpaceOnUse" x="271" y="243" width="33" height="40">
<path d="M276.081 243.891C276.081 243.891 271.967 261.032 271.967 267.42C271.967 273.808 277.841 281.625 285.291 282.276C294.799 283.042 298.296 270.266 300.353 262.986C302.136 256.667 303.347 251.204 303.644 249.856C289.188 255.318 276.081 243.891 276.081 243.891Z" fill="white"/>
</mask>
<g mask="url(#mask1_5304_5288)">
<g opacity="0.5" style="mix-blend-mode:multiply">
<path d="M303.654 249.809C302.217 250.358 300.727 250.76 299.209 251.009C298.534 255.362 296.466 266.07 291.724 272.653C287.701 278.241 283.393 280.263 280.947 280.995C282.309 281.674 283.786 282.092 285.301 282.229C294.809 282.995 298.306 270.218 300.363 262.939" fill="#A8DD15"/>
</g>
</g>
<path d="M276.081 243.891C276.081 243.891 271.967 261.032 271.967 267.42C271.967 273.808 277.841 281.625 285.291 282.276C294.799 283.042 298.296 270.266 300.353 262.986C302.136 256.667 303.347 251.204 303.644 249.856C289.188 255.318 276.081 243.891 276.081 243.891Z" stroke="#263238" stroke-miterlimit="10"/>
<path d="M283.921 256.027C283.398 257.892 282.576 259.66 281.487 261.261C280.002 263.124 276.825 261.444 277.762 262.564C278.28 263.22 278.928 263.762 279.665 264.155C280.403 264.548 281.214 264.785 282.047 264.85" stroke="#263238" stroke-linecap="round" stroke-linejoin="round"/>
<path d="M276.732 268.391C276.732 268.391 279.532 272.505 285.315 270.448" stroke="#263238" stroke-linecap="round" stroke-linejoin="round"/>
<path d="M281.2 254.702C281.028 255.72 280.434 256.474 279.874 256.371C279.314 256.268 278.994 255.377 279.165 254.36C279.337 253.343 279.931 252.6 280.491 252.691C281.051 252.783 281.371 253.685 281.2 254.702Z" fill="#263238"/>
<path d="M290.616 257.384C290.365 258.39 289.725 259.098 289.176 258.961C288.628 258.824 288.376 257.91 288.616 256.904C288.856 255.899 289.496 255.201 290.056 255.327C290.616 255.453 290.856 256.39 290.616 257.384Z" fill="#263238"/>
<path d="M277.375 249.675C277.375 249.675 278.872 246.132 283.352 248.189" stroke="#263238" stroke-linecap="round" stroke-linejoin="round"/>
<path d="M288.561 251.193C288.561 251.193 292.674 249.89 293.794 253.992" stroke="#263238" stroke-linecap="round" stroke-linejoin="round"/>
<path d="M122.225 318.122C148.688 318.122 170.141 296.669 170.141 270.205C170.141 243.742 148.688 222.289 122.225 222.289C95.7614 222.289 74.3086 243.742 74.3086 270.205C74.3086 296.669 95.7614 318.122 122.225 318.122Z" fill="#A8DD15" stroke="#263238" stroke-miterlimit="10"/>
<path opacity="0.3" d="M122.225 318.122C148.688 318.122 170.141 296.669 170.141 270.205C170.141 243.742 148.688 222.289 122.225 222.289C95.7614 222.289 74.3086 243.742 74.3086 270.205C74.3086 296.669 95.7614 318.122 122.225 318.122Z" fill="white" stroke="#263238" stroke-miterlimit="10"/>
<path d="M92.2461 307.542C101.643 315.112 113.552 318.853 125.589 318.019C137.627 317.184 148.905 311.834 157.167 303.039C151.773 296.091 140.722 284.184 128.426 284.184C114.781 284.184 98.577 300.468 92.2461 307.542Z" fill="white" stroke="#263238" stroke-miterlimit="10"/>
<path d="M116.922 280.638C116.922 280.638 108.797 281.564 108.099 287.838C107.402 294.111 112.271 304.556 112.739 305.711C113.208 306.865 123.652 296.431 127.595 296.431C131.538 296.431 141.754 301.997 141.754 301.997C141.754 301.997 138.508 288.992 132.703 284.112C126.898 279.233 118.533 278.776 116.922 280.638Z" fill="white" stroke="#263238" stroke-miterlimit="10"/>
<path opacity="0.5" d="M106.238 257.602C106.238 257.602 102.753 254.117 100.902 256.905C99.0503 259.694 100.662 262.939 103.187 265.03C105.713 267.122 109.689 267.316 109.689 265.728C109.689 264.139 106.238 257.602 106.238 257.602Z" fill="#A8DD15" stroke="#263238" stroke-miterlimit="10"/>
<path d="M106.238 257.602C106.238 257.602 102.753 254.117 100.902 256.905C99.0503 259.694 100.662 262.939 103.187 265.03C105.713 267.122 109.689 267.316 109.689 265.728C109.689 264.139 106.238 257.602 106.238 257.602Z" stroke="#263238" stroke-miterlimit="10"/>
<path d="M136.199 249.52C136.199 249.52 137.822 245.337 140.142 249.748C142.462 254.159 138.05 258.102 138.05 258.102L136.199 249.52Z" fill="white" stroke="#263238" stroke-miterlimit="10"/>
<path d="M109.721 265.77C109.721 265.77 114.36 282.488 115.526 288.293C116.692 294.099 122.028 302.464 125.971 299.721C129.913 296.979 129.696 291.825 127.365 287.414C125.83 284.364 124.587 281.177 123.651 277.894L109.721 265.77Z" fill="white"/>
<mask id="mask2_5304_5288" style="mask-type:luminance" maskUnits="userSpaceOnUse" x="109" y="265" width="21" height="36">
<path d="M109.721 265.77C109.721 265.77 114.36 282.488 115.526 288.293C116.692 294.099 122.028 302.464 125.971 299.721C129.913 296.979 129.696 291.825 127.365 287.414C125.83 284.364 124.587 281.177 123.651 277.894L109.721 265.77Z" fill="white"/>
</mask>
<g mask="url(#mask2_5304_5288)">
<g opacity="0.5" style="mix-blend-mode:multiply">
<path d="M127.365 287.368C125.83 284.319 124.587 281.131 123.651 277.849L109.721 265.77C109.721 265.77 113.526 279.483 115.103 286.339C117.117 287.912 119.408 289.095 121.857 289.825C123.974 290.404 126.233 290.146 128.165 289.105C127.935 288.51 127.668 287.929 127.365 287.368Z" fill="#A8DD15"/>
</g>
</g>
<path d="M109.721 265.77C109.721 265.77 114.36 282.488 115.526 288.293C116.692 294.099 122.028 302.464 125.971 299.721C129.913 296.979 129.696 291.825 127.365 287.414C125.83 284.364 124.587 281.177 123.651 277.894L109.721 265.77Z" stroke="#263238" stroke-miterlimit="10"/>
<path d="M101.391 248.354C101.391 248.354 112.304 274.638 116.955 280.637C121.606 286.637 134.097 287.14 139.479 278.352C144.862 269.564 138.782 257.69 137.856 252.342C136.931 246.994 134.428 238.183 135.994 236.561C137.559 234.938 144.119 233.772 141.57 229.59C139.022 225.407 135.297 227.499 134.839 224.482C134.382 221.465 136.691 214.025 128.097 212.871C119.504 211.717 104.408 221.922 98.3852 229.818C92.3628 237.715 90.4429 244.869 101.391 248.354Z" fill="#263238" stroke="#263238" stroke-miterlimit="10"/>
<path d="M104.819 240.457C104.819 240.457 97.6649 239.92 101.253 233.04C104.841 226.161 128.782 216.893 129.08 221.978C129.377 227.064 123.994 228.561 123.994 228.561" stroke="white" stroke-width="0.75" stroke-linecap="round" stroke-linejoin="round"/>
<path d="M114.441 233.942C114.441 233.942 109.058 232.742 110.852 228.857C112.647 224.971 125.811 223.143 123.423 225.566C122.007 226.985 120.394 228.193 118.635 229.154" stroke="white" stroke-width="0.75" stroke-linecap="round" stroke-linejoin="round"/>
<path d="M131.779 264.148C131.779 264.148 127.836 270.411 121.562 267.394" stroke="white" stroke-width="0.75" stroke-linecap="round" stroke-linejoin="round"/>
<path d="M137.825 252.298C136.956 247.305 134.659 239.248 135.699 236.905C135.002 235.226 132.602 231.306 125.517 230.94C116.455 230.472 106.707 235.58 104.844 240.459C102.982 245.339 107.404 242.745 109.027 246.265C110.649 249.784 106.467 253.933 107.404 256.481C108.341 259.029 112.741 269.051 112.741 269.051C113.438 266.263 123.894 261.612 123.894 261.612C125.406 262.011 126.972 262.17 128.534 262.081C130.625 261.852 129.459 259.989 129.459 259.989L140.167 260.629C139.253 257.258 138.167 254.321 137.825 252.298Z" fill="white"/>
<mask id="mask3_5304_5288" style="mask-type:luminance" maskUnits="userSpaceOnUse" x="104" y="230" width="37" height="40">
<path d="M137.828 252.302C136.96 247.308 134.663 239.252 135.703 236.909C135.006 235.229 132.606 231.31 125.521 230.944C116.459 230.475 106.711 235.584 104.848 240.463C102.985 245.343 107.408 242.749 109.031 246.269C110.653 249.788 106.471 253.936 107.408 256.485C108.345 259.033 112.745 269.055 112.745 269.055C113.442 266.267 123.898 261.616 123.898 261.616C125.41 262.015 126.976 262.173 128.538 262.084C130.629 261.856 129.463 259.993 129.463 259.993L140.171 260.633C139.257 257.262 138.171 254.325 137.828 252.302Z" fill="white"/>
</mask>
<g mask="url(#mask3_5304_5288)">
<g opacity="0.5" style="mix-blend-mode:multiply">
<path d="M113.098 242.323C112.664 237.752 109.67 236.85 107.682 236.77C106.447 237.753 105.467 239.019 104.825 240.461C102.973 245.34 107.384 242.746 109.007 246.266C110.63 249.786 106.447 253.934 107.384 256.482C108.321 259.031 112.721 269.053 112.721 269.053C112.95 268.161 114.161 267.076 115.715 266.024C113.43 262.767 110.641 258.802 109.064 256.505C106.093 252.105 113.772 249.409 113.098 242.323Z" fill="#A8DD15"/>
</g>
</g>
<path d="M137.825 252.298C136.956 247.305 134.659 239.248 135.699 236.905C135.002 235.226 132.602 231.306 125.517 230.94C116.455 230.472 106.707 235.58 104.844 240.459C102.982 245.339 107.404 242.745 109.027 246.265C110.649 249.784 106.467 253.933 107.404 256.481C108.341 259.029 112.741 269.051 112.741 269.051C113.438 266.263 123.894 261.612 123.894 261.612C125.406 262.011 126.972 262.17 128.534 262.081C130.625 261.852 129.459 259.989 129.459 259.989L140.167 260.629C139.253 257.258 138.167 254.321 137.825 252.298Z" stroke="#263238" stroke-miterlimit="10"/>
<path d="M118.145 251.175C118.442 252.466 118.145 253.643 117.562 253.78C116.979 253.917 116.202 252.98 115.917 251.677C115.631 250.375 115.917 249.209 116.499 249.072C117.082 248.935 117.859 249.872 118.145 251.175Z" fill="#263238"/>
<path d="M131.974 248.331C132.271 249.634 131.974 250.799 131.391 250.936C130.808 251.074 130.031 250.136 129.734 248.834C129.437 247.531 129.734 246.365 130.328 246.228C130.922 246.091 131.676 247.028 131.974 248.331Z" fill="#263238"/>
<path d="M112.742 245.098C112.742 245.098 113.668 239.99 119.016 242.081" stroke="#263238" stroke-linecap="round" stroke-linejoin="round"/>
<path d="M133.387 239.761C129.433 237.201 128.039 240.904 128.039 240.904C128.039 240.904 125.537 243.647 126.554 248.709" stroke="#263238" stroke-linecap="round" stroke-linejoin="round"/>
<path d="M113.436 258.8L120.166 256.023" stroke="#263238" stroke-width="0.5" stroke-linecap="round" stroke-linejoin="round"/>
<path d="M129.697 253.929L135.263 253.461" stroke="#263238" stroke-width="0.5" stroke-linecap="round" stroke-linejoin="round"/>
<path d="M300.23 167.584C325.959 161.393 341.797 135.516 335.606 109.787C329.415 84.0581 303.538 68.2196 277.809 74.4109C252.08 80.6021 236.242 106.479 242.433 132.208C248.624 157.937 274.501 173.775 300.23 167.584Z" fill="#A8DD15" stroke="#263238" stroke-miterlimit="10"/>
<path opacity="0.3" d="M300.23 167.584C325.959 161.393 341.797 135.516 335.606 109.787C329.415 84.0581 303.538 68.2196 277.809 74.4109C252.08 80.6021 236.242 106.479 242.433 132.208C248.624 157.937 274.501 173.775 300.23 167.584Z" fill="white" stroke="#263238" stroke-miterlimit="10"/>
<path d="M329.947 111.455C336.402 94.0516 326.946 74.4955 308.827 67.7751C290.708 61.0546 270.787 69.7147 264.332 87.1178C257.877 104.521 267.333 124.077 285.452 130.797C303.571 137.518 323.492 128.858 329.947 111.455Z" fill="#263238" stroke="#263238" stroke-miterlimit="10"/>
<path d="M329.696 92.6289C331.28 98.2908 331.177 104.292 329.398 109.896" stroke="white" stroke-width="0.75" stroke-linecap="round" stroke-linejoin="round"/>
<path d="M327.27 114.434C327.27 114.434 325.145 117.165 323.934 118.685" stroke="white" stroke-width="0.75" stroke-linecap="round" stroke-linejoin="round"/>
<path d="M277.586 78.082C277.586 78.082 272.741 83.7959 275.769 90.8125" stroke="white" stroke-width="0.75" stroke-linecap="round" stroke-linejoin="round"/>
<path d="M289.023 168.919C297.853 168.935 306.513 166.498 314.039 161.88C308.45 156.726 293.903 143.893 287.046 143.333C279.87 142.75 258.923 149.458 252.215 151.686C256.708 157.086 262.336 161.429 268.697 164.407C275.059 167.386 281.999 168.926 289.023 168.919Z" fill="white" stroke="#263238" stroke-miterlimit="10"/>
<path d="M296.097 149.383C296.291 148.812 296.462 148.24 296.645 147.772C292.965 145.326 289.503 143.544 287.046 143.338C284.063 143.307 281.088 143.649 278.189 144.355C276.921 147.783 276.589 151.212 275.561 157.051C274.167 164.948 276.258 167.267 282.063 164.25C287.869 161.234 293.777 156.343 296.097 149.383Z" fill="white" stroke="#263238" stroke-miterlimit="10"/>
<path d="M282.166 134.739C282.166 134.739 283.56 137.299 281.937 143.333C280.315 149.366 276.224 159.331 278.121 161.228C280.018 163.125 291.457 154.486 291.914 147.984C292.371 141.481 292.382 128.477 292.382 128.477L282.166 134.739Z" fill="white"/>
<mask id="mask4_5304_5288" style="mask-type:luminance" maskUnits="userSpaceOnUse" x="277" y="128" width="16" height="34">
<path d="M282.162 134.743C282.162 134.743 283.556 137.303 281.934 143.336C280.311 149.37 276.22 159.335 278.117 161.232C280.014 163.129 291.453 154.49 291.91 147.988C292.367 141.485 292.378 128.48 292.378 128.48L282.162 134.743Z" fill="white"/>
</mask>
<g mask="url(#mask4_5304_5288)">
<g opacity="0.5" style="mix-blend-mode:multiply">
<path d="M282.697 138.651L290.034 144.365L289.474 153.507C290.774 151.919 291.616 150.007 291.908 147.976C292.376 141.473 292.377 128.469 292.377 128.469L282.16 134.731C282.657 135.974 282.841 137.32 282.697 138.651Z" fill="#A8DD15"/>
</g>
</g>
<path d="M282.166 134.739C282.166 134.739 283.56 137.299 281.937 143.333C280.315 149.366 276.224 159.331 278.121 161.228C280.018 163.125 291.457 154.486 291.914 147.984C292.371 141.481 292.382 128.477 292.382 128.477L282.166 134.739Z" stroke="#263238" stroke-miterlimit="10"/>
<path d="M270.522 106.18C270.522 106.18 268.899 101.997 266.808 105.037C264.716 108.077 267.265 111.768 268.43 111.768C269.596 111.768 270.522 106.18 270.522 106.18Z" fill="white" stroke="#263238" stroke-miterlimit="10"/>
<path d="M275.893 92.707C275.893 92.707 269.162 105.94 267.54 115.002C265.917 124.065 272.648 137.755 279.379 137.755C286.11 137.755 296.52 127.31 296.52 127.31C296.52 127.31 306.268 127.539 307.662 124.293C309.056 121.048 307.434 118.488 304.874 118.488H299.766C299.766 118.488 298.371 119.185 299.069 112.683C299.766 106.18 301.857 103.163 301.857 103.163C301.857 103.163 284.235 104.546 275.893 92.707Z" fill="white"/>
<mask id="mask5_5304_5288" style="mask-type:luminance" maskUnits="userSpaceOnUse" x="267" y="92" width="42" height="46">
<path d="M275.893 92.7109C275.893 92.7109 269.162 105.944 267.54 115.006C265.917 124.068 272.648 137.759 279.379 137.759C286.11 137.759 296.52 127.314 296.52 127.314C296.52 127.314 306.268 127.542 307.662 124.297C309.056 121.052 307.434 118.492 304.874 118.492H299.766C299.766 118.492 298.371 119.189 299.069 112.687C299.766 106.184 301.857 103.167 301.857 103.167C301.857 103.167 284.235 104.55 275.893 92.7109Z" fill="white"/>
</mask>
<g mask="url(#mask5_5304_5288)">
<g opacity="0.5" style="mix-blend-mode:multiply">
<path d="M293.739 123.12C292.327 126.713 290.004 129.876 286.998 132.299C283.993 134.721 280.408 136.319 276.598 136.936H276.529C277.408 137.45 278.403 137.729 279.42 137.748C286.151 137.748 296.562 127.303 296.562 127.303C296.562 127.303 306.31 127.531 307.704 124.286C309.098 121.041 307.475 118.481 304.916 118.481H299.807C299.807 118.481 298.413 119.178 299.11 112.675C299.807 106.173 301.899 103.156 301.899 103.156C301.899 103.156 300.756 103.236 298.87 103.156H298.79" fill="#A8DD15"/>
</g>
</g>
<path d="M275.893 92.707C275.893 92.707 269.162 105.94 267.54 115.002C265.917 124.065 272.648 137.755 279.379 137.755C286.11 137.755 296.52 127.31 296.52 127.31C296.52 127.31 306.268 127.539 307.662 124.293C309.056 121.048 307.434 118.488 304.874 118.488H299.766C299.766 118.488 298.371 119.185 299.069 112.683C299.766 106.18 301.857 103.163 301.857 103.163C301.857 103.163 284.235 104.546 275.893 92.707Z" stroke="#263238" stroke-miterlimit="10"/>
<path d="M277.127 107.52C276.853 108.732 276.282 109.634 275.859 109.543C275.436 109.451 275.322 108.4 275.596 107.166C275.87 105.932 276.442 105.052 276.865 105.143C277.287 105.235 277.379 106.297 277.127 107.52Z" fill="#263238"/>
<path d="M288.04 112.389C287.765 113.6 287.194 114.515 286.771 114.412C286.348 114.309 286.234 113.269 286.508 112.046C286.783 110.824 287.354 109.921 287.777 110.024C288.2 110.126 288.314 111.178 288.04 112.389Z" fill="#263238"/>
<path d="M278.91 110.594C278.91 110.594 273.802 114.308 274.499 115.233C276.405 116.873 278.748 117.921 281.241 118.25C283.333 118.25 282.864 115.702 282.864 115.702" stroke="#263238" stroke-linecap="round" stroke-linejoin="round"/>
<path d="M275.195 121.279C277.749 122.671 280.671 123.238 283.56 122.901C284.752 122.785 285.9 122.387 286.909 121.742C287.918 121.096 288.76 120.221 289.366 119.188" stroke="#263238" stroke-linecap="round" stroke-linejoin="round"/>
<path d="M275.664 102.001C275.664 102.001 277.058 98.9843 279.847 102.47" stroke="#263238" stroke-linecap="round" stroke-linejoin="round"/>
<path d="M287.504 106.181C287.504 106.181 292.155 104.787 292.155 109.426" stroke="#263238" stroke-linecap="round" stroke-linejoin="round"/>
<path d="M129.998 168.289C156.111 163.995 173.797 139.345 169.503 113.232C165.208 87.1194 140.558 69.4326 114.445 73.7274C88.3325 78.0223 70.6457 102.672 74.9405 128.785C79.2353 154.897 103.885 172.584 129.998 168.289Z" fill="#A8DD15" stroke="#263238" stroke-miterlimit="10"/>
<path opacity="0.3" d="M129.998 168.289C156.111 163.995 173.797 139.345 169.503 113.232C165.208 87.1194 140.558 69.4326 114.445 73.7274C88.3325 78.0223 70.6457 102.672 74.9405 128.785C79.2353 154.897 103.885 172.584 129.998 168.289Z" fill="white" stroke="#263238" stroke-miterlimit="10"/>
<path d="M89.2534 145.313C88.4306 148.593 84.6823 148.136 85.8251 152.17C93.4819 161.133 104.175 166.957 115.858 168.528C127.542 170.099 139.394 167.306 149.146 160.683C152.574 156.627 154.631 152.364 154.723 148.936C155.031 138.468 143.969 130.651 143.375 125.612C142.781 120.572 147.557 109.179 147.557 109.179C147.557 109.179 155.922 107.979 158.917 100.517C161.911 93.0544 150.529 76.2671 140.358 71.1818C130.187 66.0965 113.16 70.5876 104.795 82.838C96.43 95.0885 106.589 105.853 101.207 111.533C95.8243 117.212 81.7797 117.51 80.2827 128.869C78.7856 140.228 90.1447 141.725 89.2534 145.313Z" fill="#263238" stroke="#263238" stroke-miterlimit="10"/>
<path d="M140.39 82.5742C140.39 82.5742 143.418 89.9908 131.625 94.3676C119.832 98.7444 110.735 96.3903 107.695 104.138C104.656 111.886 107.021 117.292 107.364 121.28C107.707 125.268 98.2219 124.64 92.508 129.702C86.7942 134.764 98.2219 140.821 101.273 144.192C104.324 147.563 103.627 152.614 98.2333 154.306" stroke="white" stroke-width="0.75" stroke-linecap="round" stroke-linejoin="round"/>
<path d="M104.666 98.0803C104.666 98.0803 109.043 87.2926 115.785 85.6013C122.527 83.91 129.944 88.9725 134.995 84.2529C140.046 79.5332 139.04 76.1735 135.326 73.4766" stroke="white" stroke-width="0.75" stroke-linecap="round" stroke-linejoin="round"/>
<path d="M145.441 86.9492C145.441 86.9492 157.246 94.7086 153.201 100.777C149.155 106.845 147.807 99.4282 147.807 99.4282" stroke="white" stroke-width="0.75" stroke-linecap="round" stroke-linejoin="round"/>
<path d="M96.2344 161.257C105.186 167.042 115.811 169.675 126.428 168.74C137.044 167.804 147.045 163.353 154.847 156.092C151.319 152.851 147.577 149.85 143.648 147.11C136.174 142.024 130.197 140.253 126.015 140.527C126.015 140.527 122.724 142.024 116.45 148.001C112.359 151.898 102.531 157.692 96.2344 161.257Z" fill="white" stroke="#263238" stroke-miterlimit="10"/>
<path d="M137.066 148.739C137.069 146.751 136.784 144.772 136.22 142.865C133.055 141.284 129.552 140.499 126.015 140.58C126.015 140.58 123.398 141.723 118.404 146.294C118.299 147.139 118.245 147.99 118.244 148.842C118.244 156.693 122.45 163.047 127.649 163.047C132.849 163.047 137.066 156.59 137.066 148.739Z" fill="white" stroke="#263238" stroke-miterlimit="10"/>
<path d="M123.613 125.281C123.613 125.281 123.613 133.658 122.721 141.429C121.83 149.199 123.019 157.564 128.698 158.159C134.378 158.753 133.475 145.314 132.881 139.932C132.528 136.554 132.528 133.15 132.881 129.772L123.613 125.281Z" fill="white"/>
<mask id="mask6_5304_5288" style="mask-type:luminance" maskUnits="userSpaceOnUse" x="122" y="125" width="12" height="34">
<path d="M123.613 125.285C123.613 125.285 123.613 133.662 122.721 141.432C121.83 149.203 123.019 157.568 128.698 158.163C134.378 158.757 133.475 145.318 132.881 139.935C132.528 136.558 132.528 133.153 132.881 129.776L123.613 125.285Z" fill="white"/>
</mask>
<g mask="url(#mask6_5304_5288)">
<g opacity="0.5" style="mix-blend-mode:multiply">
<path d="M122.557 143.239L132.647 133.457C132.647 133.148 132.647 132.851 132.647 132.577L130.59 128.749L123.585 125.32C123.585 125.32 123.585 133.697 122.694 141.468C122.659 142.028 122.602 142.633 122.557 143.239Z" fill="#A8DD15"/>
</g>
</g>
<path d="M123.613 125.281C123.613 125.281 123.613 133.658 122.721 141.429C121.83 149.199 123.019 157.564 128.698 158.159C134.378 158.753 133.475 145.314 132.881 139.932C132.528 136.554 132.528 133.15 132.881 129.772L123.613 125.281Z" stroke="#263238" stroke-miterlimit="10"/>
<path d="M143.944 87.9219C143.944 87.9219 144.538 91.8073 134.379 96.5955C124.22 101.384 119.134 105.258 118.243 109.737C117.352 114.217 117.043 116.023 117.043 116.023C117.043 116.023 114.952 111.829 111.066 113.92C107.181 116.011 110.769 124.09 114.357 124.388C117.946 124.685 118.837 123.485 118.837 123.485C118.837 123.485 130.493 135.141 137.361 135.141C144.229 135.141 146.926 128.57 148.423 116.857C149.875 105.612 143.944 87.9219 143.944 87.9219Z" fill="white"/>
<mask id="mask7_5304_5288" style="mask-type:luminance" maskUnits="userSpaceOnUse" x="109" y="87" width="40" height="49">
<path d="M143.944 87.9258C143.944 87.9258 144.538 91.8112 134.379 96.5994C124.22 101.388 119.134 105.262 118.243 109.741C117.352 114.221 117.043 116.026 117.043 116.026C117.043 116.026 114.952 111.832 111.066 113.924C107.181 116.015 110.769 124.094 114.357 124.391C117.946 124.689 118.837 123.489 118.837 123.489C118.837 123.489 130.493 135.145 137.361 135.145C144.229 135.145 146.926 128.574 148.423 116.861C149.875 105.616 143.944 87.9258 143.944 87.9258Z" fill="white"/>
</mask>
<g mask="url(#mask7_5304_5288)">
<g opacity="0.5" style="mix-blend-mode:multiply">
<path d="M121.511 111.898C121.874 108.133 123.213 104.529 125.397 101.441C121.134 104.23 118.814 106.858 118.243 109.738C117.34 114.229 117.043 116.023 117.043 116.023C117.043 116.023 114.952 111.829 111.066 113.92C107.181 116.012 110.769 124.091 114.357 124.388C117.946 124.685 118.837 123.485 118.837 123.485C118.837 123.485 130.493 135.142 137.361 135.142C135.322 134.128 133.405 132.886 131.648 131.439C127.579 128.468 121.18 119.326 121.511 111.898Z" fill="#A8DD15"/>
</g>
</g>
<path d="M143.944 87.9219C143.944 87.9219 144.538 91.8073 134.379 96.5955C124.22 101.384 119.134 105.258 118.243 109.737C117.352 114.217 117.043 116.023 117.043 116.023C117.043 116.023 114.952 111.829 111.066 113.92C107.181 116.011 110.769 124.09 114.357 124.388C117.946 124.685 118.837 123.485 118.837 123.485C118.837 123.485 130.493 135.141 137.361 135.141C144.229 135.141 146.926 128.57 148.423 116.857C149.875 105.612 143.944 87.9219 143.944 87.9219Z" stroke="#263238" stroke-miterlimit="10"/>
<path d="M141.878 106.059C141.539 106.985 141.398 107.972 141.465 108.957C141.532 109.941 141.805 110.9 142.267 111.772C143.832 114.709 144.621 115.681 144.038 116.469C143.871 116.74 143.652 116.976 143.394 117.162C143.135 117.348 142.843 117.482 142.533 117.555C142.223 117.629 141.902 117.64 141.588 117.589C141.273 117.538 140.972 117.425 140.701 117.258" stroke="#263238" stroke-linecap="round" stroke-linejoin="round"/>
<path d="M140.7 124.29C140.7 124.29 134.986 126.45 133.055 122.324" stroke="#263238" stroke-linecap="round" stroke-linejoin="round"/>
<path d="M135.021 110.469C135.021 111.715 134.666 112.755 134.232 112.755C133.798 112.755 133.455 111.749 133.455 110.469C133.455 109.189 133.798 108.184 134.232 108.184C134.666 108.184 135.021 109.224 135.021 110.469Z" fill="#263238"/>
<path d="M144.621 110.174C145.056 110.174 145.409 109.166 145.409 107.923C145.409 106.68 145.056 105.672 144.621 105.672C144.185 105.672 143.832 106.68 143.832 107.923C143.832 109.166 144.185 110.174 144.621 110.174Z" fill="#263238"/>
<path d="M129.34 103.912C129.34 103.912 130.483 100.77 135.214 101.364" stroke="#263238" stroke-linecap="round" stroke-linejoin="round"/>
<path d="M142.07 100.769C142.07 100.769 143.442 97.4432 146.379 100.186" stroke="#263238" stroke-linecap="round" stroke-linejoin="round"/>
</svg>
