<svg width="90" height="90" viewBox="0 0 90 90" fill="none" xmlns="http://www.w3.org/2000/svg">
<path d="M41.7568 2.76409C43.6256 1.17135 46.3744 1.17135 48.2432 2.76409L48.362 2.86527C49.8293 4.11579 51.8848 4.41133 53.6449 3.62485L53.7874 3.56122C56.0292 2.55951 58.6667 3.33393 60.0111 5.38867L60.0965 5.51921C61.1521 7.13245 63.041 7.99513 64.9515 7.7364L65.1061 7.71547C67.5393 7.38594 69.8518 8.87205 70.5628 11.2223L70.608 11.3716C71.1663 13.2169 72.7357 14.5768 74.6417 14.8668L74.7959 14.8903C77.2234 15.2596 79.0235 17.337 79.0436 19.7924L79.0449 19.9484C79.0607 21.8762 80.1834 23.6232 81.9305 24.4385L82.0718 24.5044C84.297 25.5427 85.4389 28.0431 84.7664 30.4047L84.7237 30.5547C84.1957 32.4089 84.7808 34.4015 86.2274 35.6759L86.3444 35.779C88.1869 37.4021 88.5781 40.1229 87.2676 42.1994L87.1843 42.3313C86.1553 43.9617 86.1553 46.0383 87.1843 47.6687L87.2676 47.8006C88.5781 49.8771 88.1869 52.5979 86.3444 54.221L86.2274 54.3241C84.7808 55.5985 84.1957 57.5911 84.7237 59.4452L84.7664 59.5953C85.4389 61.9569 84.297 64.4573 82.0718 65.4956L81.9305 65.5615C80.1834 66.3768 79.0607 68.1238 79.0449 70.0516L79.0436 70.2076C79.0235 72.663 77.2234 74.7404 74.7959 75.1097L74.6417 75.1332C72.7357 75.4232 71.1663 76.7831 70.608 78.6284L70.5628 78.7777C69.8518 81.1279 67.5393 82.6141 65.1061 82.2845L64.9515 82.2636C63.041 82.0049 61.152 82.8676 60.0965 84.4808L60.0111 84.6113C58.6667 86.6661 56.0292 87.4405 53.7874 86.4388L53.645 86.3751C51.8848 85.5887 49.8293 85.8842 48.362 87.1347L48.2432 87.2359C46.3744 88.8287 43.6256 88.8287 41.7568 87.2359L41.638 87.1347C40.1707 85.8842 38.1152 85.5887 36.3551 86.3751L36.2126 86.4388C33.9708 87.4405 31.3333 86.6661 29.9889 84.6113L29.9035 84.4808C28.848 82.8675 26.959 82.0049 25.0485 82.2636L24.8939 82.2845C22.4607 82.6141 20.1482 81.1279 19.4372 78.7777L19.392 78.6284C18.8337 76.7831 17.2643 75.4232 15.3583 75.1332L15.2041 75.1097C12.7766 74.7404 10.9765 72.663 10.9564 70.2076L10.9551 70.0516C10.9393 68.1238 9.81656 66.3768 8.06951 65.5615L7.92816 65.4956C5.70301 64.4573 4.56111 61.9569 5.23358 59.5953L5.2763 59.4452C5.80428 57.5911 5.21921 55.5985 3.7726 54.3241L3.65555 54.221C1.81306 52.5979 1.42187 49.8771 2.73243 47.8006L2.81569 47.6687C3.84466 46.0383 3.84466 43.9617 2.81569 42.3313L2.73243 42.1994C1.42187 40.1229 1.81306 37.4021 3.65556 35.779L3.7726 35.6759C5.21921 34.4015 5.80428 32.4089 5.2763 30.5547L5.23358 30.4047C4.56111 28.0431 5.70301 25.5427 7.92816 24.5044L8.06952 24.4385C9.81656 23.6232 10.9393 21.8762 10.9551 19.9484L10.9564 19.7924C10.9765 17.337 12.7766 15.2596 15.2041 14.8903L15.3583 14.8668C17.2643 14.5768 18.8337 13.2169 19.392 11.3716L19.4372 11.2223C20.1482 8.87205 22.4607 7.38594 24.8939 7.71547L25.0485 7.7364C26.959 7.99513 28.848 7.13245 29.9035 5.5192L29.9889 5.38867C31.3333 3.33393 33.9708 2.55951 36.2126 3.56122L36.355 3.62485C38.1152 4.41133 40.1707 4.11579 41.638 2.86527L41.7568 2.76409Z" fill="#F59E0B" stroke="white" stroke-width="3"/>
<path d="M29.742 43.0312V40.7266L36.5311 30H38.4529V33.2812H37.2811L32.7107 40.5234V40.6484H42.1873V43.0312H29.742ZM37.3748 46V42.3281L37.4061 41.2969V30H40.1404V46H37.3748ZM45.8057 46.1719C45.3317 46.1719 44.9255 46.0052 44.5869 45.6719C44.2484 45.3385 44.0817 44.9323 44.0869 44.4531C44.0817 43.9844 44.2484 43.5833 44.5869 43.25C44.9255 42.9167 45.3317 42.75 45.8057 42.75C46.264 42.75 46.6624 42.9167 47.001 43.25C47.3447 43.5833 47.5192 43.9844 47.5244 44.4531C47.5192 44.7708 47.4359 45.0599 47.2744 45.3203C47.1182 45.5807 46.9098 45.7891 46.6494 45.9453C46.3942 46.0964 46.113 46.1719 45.8057 46.1719ZM55.299 46.2187C54.1376 46.2187 53.1063 46.0234 52.2053 45.6328C51.3094 45.2422 50.6063 44.7083 50.0959 44.0312C49.5907 43.349 49.3407 42.5755 49.3459 41.7109C49.3407 41.0391 49.4865 40.4219 49.7834 39.8594C50.0803 39.2969 50.4813 38.8281 50.9865 38.4531C51.4969 38.0729 52.0646 37.8307 52.6896 37.7266V37.6172C51.8667 37.4349 51.2001 37.0156 50.6896 36.3594C50.1844 35.6979 49.9344 34.9349 49.9396 34.0703C49.9344 33.2474 50.1636 32.513 50.6271 31.8672C51.0907 31.2214 51.7261 30.7135 52.5334 30.3437C53.3407 29.9687 54.2626 29.7812 55.299 29.7812C56.3251 29.7812 57.2391 29.9687 58.0412 30.3437C58.8485 30.7135 59.4839 31.2214 59.9475 31.8672C60.4162 32.513 60.6506 33.2474 60.6506 34.0703C60.6506 34.9349 60.3928 35.6979 59.8771 36.3594C59.3667 37.0156 58.7079 37.4349 57.9006 37.6172V37.7266C58.5256 37.8307 59.0881 38.0729 59.5881 38.4531C60.0933 38.8281 60.4943 39.2969 60.7912 39.8594C61.0933 40.4219 61.2443 41.0391 61.2443 41.7109C61.2443 42.5755 60.9891 43.349 60.4787 44.0312C59.9683 44.7083 59.2652 45.2422 58.3693 45.6328C57.4787 46.0234 56.4553 46.2187 55.299 46.2187ZM55.299 43.9844C55.898 43.9844 56.4188 43.8828 56.8615 43.6797C57.3042 43.4714 57.648 43.1797 57.8928 42.8047C58.1376 42.4297 58.2626 41.9974 58.2678 41.5078C58.2626 40.9974 58.1298 40.5469 57.8693 40.1562C57.6141 39.7604 57.2626 39.4505 56.8146 39.2266C56.3719 39.0026 55.8667 38.8906 55.299 38.8906C54.7261 38.8906 54.2157 39.0026 53.7678 39.2266C53.3199 39.4505 52.9657 39.7604 52.7053 40.1562C52.4501 40.5469 52.3251 40.9974 52.3303 41.5078C52.3251 41.9974 52.4449 42.4297 52.6896 42.8047C52.9344 43.1745 53.2782 43.4635 53.7209 43.6719C54.1688 43.8802 54.6949 43.9844 55.299 43.9844ZM55.299 36.6953C55.7886 36.6953 56.2209 36.5964 56.5959 36.3984C56.9761 36.2005 57.2756 35.9245 57.4943 35.5703C57.7131 35.2161 57.8251 34.8073 57.8303 34.3437C57.8251 33.8854 57.7157 33.4844 57.5021 33.1406C57.2886 32.7917 56.9917 32.5234 56.6115 32.3359C56.2313 32.1432 55.7938 32.0469 55.299 32.0469C54.7938 32.0469 54.3485 32.1432 53.9631 32.3359C53.5829 32.5234 53.286 32.7917 53.0725 33.1406C52.8641 33.4844 52.7626 33.8854 52.7678 34.3437C52.7626 34.8073 52.8667 35.2161 53.0803 35.5703C53.299 35.9193 53.5985 36.1953 53.9787 36.3984C54.3641 36.5964 54.8042 36.6953 55.299 36.6953Z" fill="white"/>
<path d="M31.6011 58.6364C31.6011 59.5682 31.4306 60.3693 31.0897 61.0398C30.7488 61.7074 30.2815 62.2216 29.6877 62.5824C29.0968 62.9403 28.425 63.1193 27.6721 63.1193C26.9164 63.1193 26.2417 62.9403 25.648 62.5824C25.0571 62.2216 24.5912 61.706 24.2502 61.0355C23.9093 60.3651 23.7389 59.5653 23.7389 58.6364C23.7389 57.7045 23.9093 56.9048 24.2502 56.2372C24.5912 55.5668 25.0571 55.0526 25.648 54.6946C26.2417 54.3338 26.9164 54.1534 27.6721 54.1534C28.425 54.1534 29.0968 54.3338 29.6877 54.6946C30.2815 55.0526 30.7488 55.5668 31.0897 56.2372C31.4306 56.9048 31.6011 57.7045 31.6011 58.6364ZM30.2971 58.6364C30.2971 57.9261 30.1821 57.3281 29.952 56.8423C29.7247 56.3537 29.4122 55.9844 29.0145 55.7344C28.6196 55.4815 28.1721 55.3551 27.6721 55.3551C27.1693 55.3551 26.7204 55.4815 26.3255 55.7344C25.9306 55.9844 25.6181 56.3537 25.388 56.8423C25.1608 57.3281 25.0471 57.9261 25.0471 58.6364C25.0471 59.3466 25.1608 59.946 25.388 60.4347C25.6181 60.9205 25.9306 61.2898 26.3255 61.5426C26.7204 61.7926 27.1693 61.9176 27.6721 61.9176C28.1721 61.9176 28.6196 61.7926 29.0145 61.5426C29.4122 61.2898 29.7247 60.9205 29.952 60.4347C30.1821 59.946 30.2971 59.3466 30.2971 58.6364ZM37.0868 60.2855V56.4545H38.3652V63H37.1124V61.8665H37.0442C36.8936 62.2159 36.6522 62.5071 36.3198 62.7401C35.9902 62.9702 35.5797 63.0852 35.0882 63.0852C34.6678 63.0852 34.2956 62.9929 33.9718 62.8082C33.6507 62.6207 33.3979 62.3438 33.2132 61.9773C33.0314 61.6108 32.9405 61.1577 32.9405 60.6179V56.4545H34.2147V60.4645C34.2147 60.9105 34.3382 61.2656 34.5854 61.5298C34.8326 61.794 35.1536 61.9261 35.5485 61.9261C35.7871 61.9261 36.0243 61.8665 36.2601 61.7472C36.4988 61.6278 36.6962 61.4474 36.8525 61.206C37.0115 60.9645 37.0897 60.6577 37.0868 60.2855ZM42.9326 56.4545V57.4773H39.3574V56.4545H42.9326ZM40.3162 54.8864H41.5903V61.0781C41.5903 61.3253 41.6272 61.5114 41.7011 61.6364C41.775 61.7585 41.8701 61.8423 41.9866 61.8878C42.1059 61.9304 42.2352 61.9517 42.3744 61.9517C42.4767 61.9517 42.5662 61.9446 42.6429 61.9304C42.7196 61.9162 42.7792 61.9048 42.8218 61.8963L43.052 62.9489C42.9781 62.9773 42.873 63.0057 42.7366 63.0341C42.6002 63.0653 42.4298 63.0824 42.2252 63.0852C41.89 63.0909 41.5775 63.0312 41.2877 62.9062C40.998 62.7812 40.7636 62.5881 40.5846 62.3267C40.4056 62.0653 40.3162 61.7372 40.3162 61.3423V54.8864ZM49.875 63.1321C49.2613 63.1321 48.7258 62.9915 48.2684 62.7102C47.811 62.429 47.4559 62.0355 47.2031 61.5298C46.9503 61.0241 46.8238 60.4332 46.8238 59.7571C46.8238 59.0781 46.9503 58.4844 47.2031 57.9759C47.4559 57.4673 47.811 57.0724 48.2684 56.7912C48.7258 56.5099 49.2613 56.3693 49.875 56.3693C50.4886 56.3693 51.0241 56.5099 51.4815 56.7912C51.9389 57.0724 52.294 57.4673 52.5468 57.9759C52.7997 58.4844 52.9261 59.0781 52.9261 59.7571C52.9261 60.4332 52.7997 61.0241 52.5468 61.5298C52.294 62.0355 51.9389 62.429 51.4815 62.7102C51.0241 62.9915 50.4886 63.1321 49.875 63.1321ZM49.8792 62.0625C50.277 62.0625 50.6065 61.9574 50.8679 61.7472C51.1292 61.5369 51.3224 61.2571 51.4474 60.9077C51.5753 60.5582 51.6392 60.1733 51.6392 59.7528C51.6392 59.3352 51.5753 58.9517 51.4474 58.6023C51.3224 58.25 51.1292 57.9673 50.8679 57.7543C50.6065 57.5412 50.277 57.4347 49.8792 57.4347C49.4787 57.4347 49.1463 57.5412 48.8821 57.7543C48.6207 57.9673 48.4261 58.25 48.2983 58.6023C48.1733 58.9517 48.1108 59.3352 48.1108 59.7528C48.1108 60.1733 48.1733 60.5582 48.2983 60.9077C48.4261 61.2571 48.6207 61.5369 48.8821 61.7472C49.1463 61.9574 49.4787 62.0625 49.8792 62.0625ZM57.2634 56.4545V57.4773H53.5645V56.4545H57.2634ZM54.5787 63V55.696C54.5787 55.2869 54.6682 54.9474 54.8472 54.6776C55.0262 54.4048 55.2634 54.2017 55.5588 54.0682C55.8543 53.9318 56.1753 53.8636 56.5219 53.8636C56.7776 53.8636 56.9963 53.8849 57.1782 53.9276C57.36 53.9673 57.4949 54.0043 57.583 54.0384L57.2847 55.0696C57.225 55.0526 57.1483 55.0327 57.0546 55.0099C56.9608 54.9844 56.8472 54.9716 56.7137 54.9716C56.404 54.9716 56.1824 55.0483 56.0489 55.2017C55.9182 55.3551 55.8529 55.5767 55.8529 55.8665V63H54.5787ZM64.2174 63.1193C63.6833 63.1193 63.2032 63.017 62.7771 62.8125C62.3538 62.6051 62.0157 62.321 61.7629 61.9602C61.51 61.5994 61.3751 61.1875 61.3581 60.7244H62.6365C62.6677 61.0994 62.8339 61.4077 63.135 61.6491C63.4362 61.8906 63.797 62.0114 64.2174 62.0114C64.5527 62.0114 64.8495 61.9347 65.1081 61.7812C65.3694 61.625 65.574 61.4105 65.7217 61.1378C65.8723 60.8651 65.9475 60.554 65.9475 60.2045C65.9475 59.8494 65.8708 59.5327 65.7174 59.2543C65.564 58.9759 65.3524 58.7571 65.0825 58.598C64.8154 58.4389 64.5086 58.358 64.162 58.3551C63.8978 58.3551 63.6322 58.4006 63.3652 58.4915C63.0981 58.5824 62.8822 58.7017 62.7174 58.8494L61.5115 58.6705L62.0015 54.2727H66.7998V55.402H63.0967L62.8197 57.8438H62.8708C63.0413 57.679 63.2672 57.5412 63.5484 57.4304C63.8325 57.3196 64.1365 57.2642 64.4603 57.2642C64.9916 57.2642 65.4646 57.3906 65.8794 57.6435C66.297 57.8963 66.6251 58.2415 66.8637 58.679C67.1052 59.1136 67.2245 59.6136 67.2217 60.179C67.2245 60.7443 67.0967 61.2486 66.8382 61.6918C66.5825 62.1349 66.2274 62.4844 65.7728 62.7401C65.3211 62.9929 64.8027 63.1193 64.2174 63.1193Z" fill="white"/>
</svg>
