<svg width="48" height="48" viewBox="0 0 48 48" fill="none" xmlns="http://www.w3.org/2000/svg">
<rect width="48" height="48" rx="12" fill="#A8DD15"/>
<path d="M33.6735 15.2502H33.638V13.3421C33.638 13.0017 33.3617 12.7253 33.0212 12.7253C32.6807 12.7253 32.4044 13.0017 32.4044 13.3421V15.2502H32.3689C31.4847 15.2502 30.7653 15.9696 30.7653 16.8538V29.2599C30.7653 30.1441 31.4847 30.8635 32.3689 30.8635H32.4044V32.7716C32.4044 33.112 32.6807 33.3883 33.0212 33.3883C33.3617 33.3883 33.638 33.112 33.638 32.7716V30.8635H33.6735C34.5577 30.8635 35.2771 30.1441 35.2771 29.2599V16.8538C35.2771 15.9696 34.5577 15.2502 33.6735 15.2502ZM34.0436 29.2599C34.0436 29.4642 33.8778 29.6299 33.6735 29.6299H32.3689C32.1646 29.6299 31.9988 29.4642 31.9988 29.2599V16.8538C31.9988 16.6495 32.1646 16.4837 32.3689 16.4837H33.6735C33.8778 16.4837 34.0436 16.6495 34.0436 16.8538V29.2599ZM27.6612 21.2319H27.6256V20.286C27.6256 19.9456 27.3493 19.6693 27.0089 19.6693C26.6684 19.6693 26.3921 19.9456 26.3921 20.286V21.2319H26.3566C25.4724 21.2319 24.7529 21.9513 24.7529 22.8355V32.1079C24.7529 32.9921 25.4724 33.7115 26.3566 33.7115H26.3921V34.6574C26.3921 34.9979 26.6684 35.2742 27.0089 35.2742C27.3493 35.2742 27.6256 34.9979 27.6256 34.6574V33.7115H27.6612C28.5454 33.7115 29.2648 32.9921 29.2648 32.1079V22.8355C29.2648 21.9513 28.5454 21.2319 27.6612 21.2319ZM28.0312 32.1079C28.0312 32.3122 27.8654 32.478 27.6612 32.478H26.3566C26.1523 32.478 25.9865 32.3122 25.9865 32.1079V22.8355C25.9865 22.6313 26.1523 22.4655 26.3566 22.4655H27.6612C27.8654 22.4655 28.0312 22.6313 28.0312 22.8355V32.1079ZM21.6488 19.1995H21.6133V17.9201C21.6133 17.5796 21.337 17.3033 20.9965 17.3033C20.6561 17.3033 20.3798 17.5796 20.3798 17.9201V19.1995H20.3442C19.46 19.1995 18.7406 19.9189 18.7406 20.8031V26.4849C18.7406 27.3691 19.46 28.0885 20.3442 28.0885H20.3798V29.3679C20.3798 29.7084 20.6561 29.9847 20.9965 29.9847C21.337 29.9847 21.6133 29.7084 21.6133 29.3679V28.0885H21.6488C22.533 28.0885 23.2525 27.3691 23.2525 26.4849V20.8031C23.2525 19.9189 22.533 19.1995 21.6488 19.1995ZM22.0189 26.4849C22.0189 26.6892 21.8531 26.8549 21.6488 26.8549H20.3442C20.14 26.8549 19.9742 26.6892 19.9742 26.4849V20.8031C19.9742 20.5989 20.14 20.4331 20.3442 20.4331H21.6488C21.8531 20.4331 22.0189 20.5989 22.0189 20.8031V26.4849ZM15.636 15.5398H15.6005V13.3421C15.6005 13.0017 15.3242 12.7253 14.9837 12.7253C14.6432 12.7253 14.3669 13.0017 14.3669 13.3421V15.5398H14.3314C13.4472 15.5398 12.7278 16.2592 12.7278 17.1434V28.5967C12.7278 29.4809 13.4472 30.2003 14.3314 30.2003H14.3669V32.398C14.3669 32.7385 14.6432 33.0148 14.9837 33.0148C15.3242 33.0148 15.6005 32.7385 15.6005 32.398V30.2003H15.636C16.5202 30.2003 17.2396 29.4809 17.2396 28.5967V17.1434C17.2396 16.2592 16.5202 15.5398 15.636 15.5398ZM16.0061 28.5967C16.0061 28.801 15.8403 28.9668 15.636 28.9668H14.3314C14.1271 28.9668 13.9613 28.801 13.9613 28.5967V17.1434C13.9613 16.9392 14.1271 16.7734 14.3314 16.7734H15.636C15.8403 16.7734 16.0061 16.9392 16.0061 17.1434V28.5967Z" fill="#1A1A1A"/>
</svg>
