<svg width="47" height="47" viewBox="0 0 47 47" fill="none" xmlns="http://www.w3.org/2000/svg">
<path d="M23.5 0C10.5397 0 0 10.5397 0 23.5C0 36.4603 10.5397 47 23.5 47C36.4603 47 47 36.4588 47 23.5C47 10.5412 36.4588 0 23.5 0ZM23.5 3.77763C34.0309 3.77763 42.6598 12.0717 43.1959 22.4704C43.2126 22.8121 43.2214 23.1553 43.2224 23.5C43.2224 33.5947 35.4468 37.3342 31.2814 37.8703C24.6956 38.7163 19.1496 35.1604 19.1496 28.2C19.1496 21.6024 26.4448 15.8904 35.6847 18.7031L36.8803 13.323C33.5316 11.6942 29.9317 10.9554 26.4125 10.9554C12.8868 10.9554 4.42681 21.0163 5.20819 30.149C5.13475 30.1872 5.03487 30.243 4.935 30.2974C4.31666 28.2558 3.98472 25.9851 3.98472 23.5C3.98472 12.6239 12.6239 3.77763 23.5 3.77763Z" fill="#FF101F"/>
</svg>
