<svg width="27" height="27" viewBox="0 0 27 27" fill="none" xmlns="http://www.w3.org/2000/svg">
<g clip-path="url(#clip0_5806_500)">
<path d="M27 20.1193C27 21.5999 25.8242 22.7757 24.3871 22.7757H2.6129C1.17581 22.7757 0 21.5999 0 20.1193V6.88057C0 5.39993 1.17581 4.22412 2.6129 4.22412H24.3871C25.8242 4.22412 27 5.39993 27 6.88057V20.1193Z" fill="white"/>
<path d="M2.60938 4.22412H24.3836C25.8207 4.22412 26.9965 5.39993 26.9965 6.88057V20.1193C26.9965 21.5999 25.8207 22.7757 24.3836 22.7757" fill="#E9F3F4"/>
<path d="M27 20.1193C27 21.5999 25.8242 22.7757 24.3871 22.7757H2.6129C1.17581 22.7757 0 21.5999 0 20.1193M2.6129 4.22412H24.3871C25.8242 4.22412 27 5.39993 27 6.88057V11.7144" fill="#D9ECED"/>
<path d="M14.2422 20.5116L14.1551 20.4245C14.1115 20.381 14.068 20.2939 13.9809 20.2068C13.8938 20.0762 13.7632 19.9455 13.7632 19.9455L13.7196 19.902L13.6761 19.9455C13.6761 19.9891 13.589 20.0762 13.4583 20.2068C13.4148 20.2939 13.3277 20.3374 13.2841 20.4245L13.2406 20.4681H13.1535L13.197 20.4245H13.2406C13.2406 20.4245 13.2406 20.381 13.197 20.381L13.1099 20.2939C13.0228 20.2503 12.9793 20.1632 12.9793 20.1632L13.4583 19.8149L13.2406 19.7278L13.3277 19.5971L13.6761 19.7713L14.0244 19.5971L14.1115 19.7278L13.8938 19.8149L14.3728 20.1632C14.3728 20.1632 14.2857 20.2068 14.2422 20.2939L14.1551 20.381C14.2857 20.4681 14.2857 20.4681 14.2422 20.5116C14.2857 20.5116 14.2857 20.4681 14.2422 20.5116ZM15.1567 19.9455C14.7648 19.9455 14.5035 19.7713 14.5035 19.7713C14.8519 19.5971 15.1132 19.5536 15.3309 19.5536C15.5486 19.5536 15.6357 19.5971 15.7228 19.6842C15.8099 19.7278 15.8099 19.7713 15.8099 19.7713C15.6357 19.902 15.418 19.9455 15.1567 19.9455ZM12.4132 19.9455C12.1954 19.9455 11.9341 19.902 11.7164 19.7713L11.8035 19.6842C11.8906 19.6407 11.9777 19.5971 12.1954 19.5536C12.4132 19.5536 12.718 19.6407 13.0228 19.7713C13.0228 19.7713 12.7615 19.9455 12.4132 19.9455ZM16.2019 19.7278C16.1583 19.7278 16.1148 19.7278 16.1148 19.6842V19.5971C16.1583 19.51 16.2019 19.4665 16.289 19.4665H16.3325V19.5971C16.3325 19.6407 16.289 19.6842 16.289 19.6842C16.2454 19.7278 16.2454 19.7278 16.2019 19.7278ZM11.368 19.7278C11.3244 19.7278 11.2809 19.7278 11.2373 19.6842C11.1938 19.6407 11.1938 19.6407 11.1938 19.5971V19.4665H11.2373C11.3244 19.4665 11.4115 19.5536 11.4115 19.5971V19.6842C11.4551 19.6842 11.4115 19.7278 11.368 19.7278ZM14.3728 19.51C14.7648 18.7697 15.2003 18.6826 15.3309 18.6826H15.418C15.418 18.6826 15.4615 18.8568 15.3309 19.031C15.2438 19.2052 14.9825 19.4229 14.3728 19.51ZM13.197 19.51C12.5873 19.4229 12.3261 19.2052 12.239 19.031C12.1083 18.8568 12.1519 18.6826 12.1519 18.6826H12.239C12.3696 18.6826 12.8051 18.7697 13.197 19.51ZM15.6357 19.3794C15.5051 19.3794 15.3744 19.3794 15.2438 19.3358C15.5486 19.031 15.8535 18.9439 16.0712 18.9439H16.1148C16.289 18.9439 16.3761 18.9874 16.3761 18.9874V19.0745C16.3761 19.1181 16.3325 19.1616 16.2454 19.2052C16.0712 19.3358 15.897 19.3794 15.6357 19.3794ZM11.9341 19.3794C11.6728 19.3794 11.4986 19.3358 11.368 19.2487C11.2809 19.2052 11.2373 19.1616 11.2373 19.1181V19.031C11.2373 19.031 11.368 18.9874 11.4986 18.9874H11.5422C11.7599 18.9874 12.0648 19.031 12.3696 19.3794H11.9341ZM16.8551 19.3358C16.7244 19.3358 16.5938 19.2923 16.5503 19.2487C16.5067 19.2487 16.5067 19.2052 16.5067 19.1616C16.5067 19.1181 16.5503 19.1181 16.5938 19.0745C16.7244 18.9874 16.8986 18.9439 17.1599 18.9439H17.247C17.5519 18.9439 17.7696 19.031 17.7696 19.031C17.5083 19.2487 17.1599 19.3358 16.8551 19.3358ZM10.6712 19.3358C10.4099 19.3358 10.018 19.2487 9.80025 19.031L10.3228 18.9439H10.3664C10.6277 18.9439 10.8019 18.9874 10.9325 19.0745L11.0196 19.1616C11.0196 19.2052 11.0196 19.2052 10.9761 19.2487C10.9761 19.3358 10.8454 19.3358 10.6712 19.3358ZM17.7696 18.9003C17.7261 18.9003 17.7261 18.9003 17.7261 18.8568V18.7697C17.7261 18.7262 17.7696 18.6826 17.7696 18.6826C17.7696 18.6826 17.8132 18.6391 17.8567 18.6391H17.9003V18.7697C17.9003 18.8132 17.9003 18.8568 17.8567 18.8568C17.8132 18.9003 17.7696 18.9003 17.7696 18.9003ZM9.80025 18.9003C9.7567 18.9003 9.7567 18.9003 9.71315 18.8568C9.71315 18.8568 9.66961 18.8132 9.66961 18.7697V18.6391H9.71315C9.7567 18.6391 9.80025 18.6826 9.80025 18.6826C9.8438 18.7262 9.8438 18.7262 9.8438 18.7697V18.8568C9.8438 18.8568 9.8438 18.9003 9.80025 18.9003ZM15.7228 18.8568C15.6793 18.8568 15.6357 18.8568 15.6357 18.8133V18.7262C15.6793 18.6391 15.7228 18.5955 15.8099 18.5955H15.8535V18.7262C15.8535 18.7697 15.8099 18.8133 15.8099 18.8133C15.8099 18.8133 15.7664 18.8568 15.7228 18.8568ZM11.847 18.8568C11.8035 18.8568 11.7599 18.8568 11.7164 18.8133C11.6728 18.7697 11.6728 18.7697 11.6728 18.7262V18.5955H11.7164C11.8035 18.5955 11.8906 18.6826 11.8906 18.7262V18.8133C11.9341 18.8133 11.8906 18.8568 11.847 18.8568ZM10.8454 18.8133C10.2793 18.8133 10.018 18.6391 9.88735 18.5084C9.80025 18.4213 9.7567 18.3778 9.7567 18.3342C9.7567 18.2907 9.71315 18.2471 9.71315 18.2471H9.8438C10.018 18.2036 10.4099 18.2907 10.8454 18.8133ZM16.7244 18.8133C17.1599 18.2907 17.5083 18.2036 17.6825 18.2036H17.8132C17.8132 18.2036 17.8132 18.2471 17.7696 18.2907C17.7261 18.3342 17.6825 18.4213 17.639 18.4649C17.5519 18.6391 17.247 18.7697 16.7244 18.8133ZM11.4551 18.7697C11.0196 18.6826 10.7583 18.5084 10.6277 18.3778C10.497 18.2036 10.4535 18.0729 10.4535 18.0729H10.5841C10.8454 18.0294 11.2373 18.1165 11.4551 18.7697ZM16.1148 18.7697C16.3325 18.16 16.7244 18.0294 16.9422 18.0294H17.0728C17.0728 18.0294 17.0293 18.16 16.8986 18.3342C16.8115 18.5084 16.5503 18.6826 16.1148 18.7697ZM18.3793 18.552C18.118 18.552 17.9438 18.5084 17.9438 18.5084C17.9438 18.5084 18.118 18.2471 18.5099 18.16C18.597 18.16 18.7277 18.1165 18.8148 18.1165H18.8583C19.0761 18.1165 19.2067 18.16 19.2067 18.16V18.2036C19.2067 18.2036 19.2067 18.2471 19.1632 18.2907C19.1196 18.3342 19.0325 18.4213 18.7712 18.5084C18.6406 18.5084 18.5099 18.552 18.3793 18.552ZM9.19057 18.552C9.05993 18.552 8.88574 18.552 8.75509 18.5084C8.53735 18.4649 8.4067 18.3778 8.36316 18.2907C8.31961 18.2471 8.31961 18.2036 8.31961 18.2036V18.16C8.31961 18.16 8.4938 18.1165 8.66799 18.1165H8.71154C8.79864 18.1165 8.92928 18.1165 9.01638 18.16C9.36477 18.2471 9.58251 18.5084 9.58251 18.5084C9.62606 18.5084 9.45186 18.552 9.19057 18.552ZM17.3341 18.16C17.2906 18.16 17.247 18.16 17.247 18.1165V18.0294C17.2906 17.9423 17.3341 17.8987 17.4212 17.8987H17.4648V18.0294C17.4648 18.0729 17.4212 18.1165 17.4212 18.1165C17.4212 18.16 17.3777 18.16 17.3341 18.16ZM10.1922 18.16C10.1486 18.16 10.1051 18.16 10.0615 18.1165C10.018 18.0729 10.018 18.0729 10.018 18.0294V17.8987H10.0615C10.1486 17.8987 10.2357 17.9858 10.2357 18.0294V18.1165C10.2793 18.16 10.2357 18.16 10.1922 18.16ZM9.45186 18.0729C9.45186 18.0729 9.23412 18.0294 9.01638 17.8987C8.84219 17.7681 8.5809 17.5503 8.53735 17.2455H8.5809C8.62445 17.2455 8.75509 17.2455 8.88574 17.3762C9.10348 17.5068 9.27767 17.7245 9.45186 18.0729ZM18.118 18.0729C18.2486 17.7245 18.4228 17.5068 18.597 17.3762C18.7277 17.2891 18.8148 17.2455 18.9019 17.2455H18.9454C18.9019 17.5503 18.6841 17.7681 18.4664 17.8987C18.3357 18.0294 18.118 18.0729 18.118 18.0729ZM9.9309 18.0294C9.9309 18.0294 9.80025 17.9858 9.58251 17.8116C9.40832 17.681 9.19057 17.4197 9.01638 16.9842C9.01638 16.9842 9.05993 16.9842 9.10348 16.9407C9.19057 16.9407 9.32122 16.9842 9.45186 17.1149C9.66961 17.3762 9.80025 17.6374 9.9309 18.0294ZM17.639 18.0294C17.7696 17.6374 17.9003 17.3326 18.0744 17.1584C18.2051 17.0278 18.3357 16.9842 18.4228 16.9842C18.4664 16.9842 18.5099 17.0278 18.5099 17.0278C18.3357 17.4197 18.118 17.681 17.9438 17.8552C17.7696 17.9858 17.639 18.0294 17.639 18.0294ZM18.9019 18.0294C18.8583 18.0294 18.8148 18.0294 18.7712 17.9858C18.7277 17.9423 18.7712 17.8987 18.7712 17.8987C18.8148 17.8116 18.9019 17.7681 19.0325 17.7681H19.1196V17.8987C19.1632 17.8987 19.0761 18.0294 18.9019 18.0294ZM8.62444 18.0294C8.45025 18.0294 8.4067 17.9423 8.36316 17.8987C8.31961 17.8552 8.36316 17.7681 8.36316 17.7681H8.45025C8.5809 17.7681 8.66799 17.8552 8.71154 17.8987C8.71154 17.8987 8.75509 17.9423 8.71154 17.9858C8.75509 17.9858 8.71154 18.0294 8.62444 18.0294ZM19.2938 17.5503H19.1196C19.1196 17.5503 19.1196 17.4197 19.2503 17.2891C19.3373 17.1584 19.5551 17.0278 20.0341 17.0278C20.0341 17.0278 20.0341 17.1149 19.9906 17.2455C19.947 17.3326 19.8599 17.4633 19.7293 17.5068C19.5115 17.5503 19.3809 17.5503 19.2938 17.5503ZM8.27606 17.5503C8.18896 17.5503 8.05832 17.5503 7.88412 17.5068C7.75348 17.4633 7.66638 17.3326 7.62283 17.2455C7.57928 17.1149 7.57928 17.0278 7.57928 17.0278C8.05832 17.0278 8.27606 17.1584 8.36316 17.2891C8.45025 17.4197 8.4938 17.5068 8.4938 17.5503H8.27606ZM18.8148 17.0713C18.8148 17.0713 18.7712 16.81 18.7712 16.5487C18.7712 16.2874 19.0325 16.2003 19.0761 16.2003C19.0761 16.2003 19.0761 16.2874 19.0325 16.4181C19.0325 16.5052 18.989 16.6358 18.989 16.7229C18.989 16.81 18.9454 16.8971 18.9019 16.9842C18.8583 16.9842 18.8148 17.0713 18.8148 17.0713ZM8.75509 17.0713C8.75509 17.0713 8.71154 16.9842 8.66799 16.9407C8.62444 16.8536 8.5809 16.7665 8.5809 16.6794C8.5809 16.5923 8.5809 16.4616 8.53735 16.3745C8.53735 16.2874 8.4938 16.2003 8.4938 16.1568C8.4938 16.1568 8.79864 16.2439 8.79864 16.5052C8.79864 16.7665 8.75509 17.0713 8.75509 17.0713ZM19.1632 17.0278C19.1196 16.9842 19.1196 16.9842 19.1632 16.9407C19.1632 16.8971 19.2067 16.81 19.2503 16.7229C19.2938 16.5923 19.3809 16.4181 19.3809 16.4181L19.6422 16.1568C19.7293 16.0697 19.8164 16.0262 19.8599 15.9826C19.947 15.9391 20.0341 15.8955 20.0777 15.8955H20.1212V16.1568C20.1212 16.331 20.0777 16.4616 19.9906 16.5487C19.9035 16.6358 19.7728 16.7665 19.5986 16.8536C19.4244 16.9407 19.2503 17.0278 19.1632 17.0278ZM8.4067 17.0278C8.31961 17.0278 8.18896 16.9407 8.01477 16.8536C7.84057 16.7665 7.70993 16.6358 7.62283 16.5487C7.53574 16.4616 7.49219 16.331 7.49219 16.1568V15.8955H7.53574C7.57928 15.8955 7.66638 15.9391 7.75348 15.9826C7.84057 16.0262 7.88412 16.1132 7.97122 16.1568L8.23251 16.4181C8.23251 16.4181 8.31961 16.5923 8.36316 16.7229C8.4067 16.81 8.4067 16.8536 8.45025 16.9407C8.4067 16.9842 8.4067 16.9842 8.4067 17.0278Z" fill="#2F4712"/>
<path d="M23.4303 6.48877L23.3432 6.53232H23.2126L23.1255 6.57587L22.9513 6.70651H22.9078L22.8642 6.66296H22.8207V6.75006L22.7771 6.79361L22.7336 6.83716H22.6029L22.4723 6.88071L22.3416 6.83716L22.2545 6.88071L22.1239 7.01135L22.0368 7.0549H21.8626L21.8191 7.09845H21.6884L21.6449 7.142L21.6013 7.27264L21.5578 7.31619H21.4271V7.40329L21.3836 7.44683H21.34L21.2965 7.49038L21.2529 7.53393H21.1658L21.0787 7.57748H20.9481L20.9045 7.66458H20.861L20.8174 7.70812H20.7739L20.7303 7.75167L20.6868 7.70812L20.6432 7.75167H20.5997L20.4691 7.66458L20.4255 7.62103H20.382V7.70812L20.3384 7.75167L20.2513 7.83877L20.1642 7.96941L19.99 8.14361L19.8594 8.2307L19.7287 8.27425L19.6416 8.36135L19.3803 8.492L18.9449 8.70974H18.7271L18.5094 8.79683L18.3352 8.84038H18.2916L18.0303 8.92748H17.8997L17.8126 8.97103H17.4207L17.2465 9.05812L16.9852 9.18877L16.8981 9.27587L16.7674 9.36296L16.5497 9.40651V9.31941H16.2013L15.94 9.40651L15.6352 9.45006L15.5045 9.49361H14.4594L14.3287 9.45006L14.111 9.40651H14.0674L13.9368 9.36296L13.8932 9.40651H13.8497L13.7626 9.36296H13.7191L13.632 9.40651H13.4142L13.3707 9.36296L13.0223 9.40651L12.9352 9.36296L12.6303 9.27587H12.5868L12.5432 9.31941L12.4561 9.36296H12.282L12.1513 9.31941L12.0207 9.27587H11.8465L11.6723 9.18877L11.411 9.01458L11.2368 8.92748H11.1932V8.97103L11.2368 9.05812V9.31941L11.2803 9.40651L11.3239 9.49361V9.842L11.2803 10.1468V10.1904L11.2368 10.3646L11.1932 10.4952L11.0626 10.8872L11.0191 10.9307L10.932 10.9743L10.7578 11.1049L10.6271 11.192H10.3658L10.2787 11.1484L10.1916 11.1049L10.061 11.0178L9.93034 10.9743L9.7997 10.8872L9.75615 10.8436H9.66905L9.6255 10.8872H9.45131L9.32067 10.8436H9.19002L9.10292 10.8872L9.05937 10.9307L9.01583 10.8872H8.53679L8.49325 10.8436H8.3626V10.9743L8.2755 11.0178L8.18841 11.0613L8.14486 11.1484L8.01421 11.4533L7.92712 11.5839L7.88357 11.6275L7.79647 11.7146L7.70938 11.7581L7.53518 11.8888L7.36099 11.9323L7.23034 11.9759H7.0126L6.88196 11.9323L6.75131 11.8452L6.62067 11.7146L6.53357 11.671H6.49002L6.44647 11.6275H6.40292V11.7581L6.35938 11.9759V12.063L6.53357 12.2807L6.57712 12.4113L6.62067 12.4549L6.66421 12.4984L6.70776 12.6726L6.66421 12.7597V12.8033L6.62067 12.8468V12.8904L6.75131 13.0646L6.79486 13.1517L6.75131 13.2388L6.70776 13.2823V13.3259L6.75131 13.3694L6.83841 13.4565L6.88196 13.5872L6.9255 13.6307H7.05615L7.0997 13.6743H7.18679L7.23034 13.7178V13.8484L7.27389 14.0226V14.1097L7.31744 14.1968V14.371L7.36099 14.4146H7.44808L7.49163 14.4581L7.57873 14.5452H7.70938L7.92712 14.7194L7.97066 14.763H8.01421L8.05776 14.8065L8.10131 14.763H8.23196L8.2755 14.8065H8.3626L8.53679 14.8501H8.62389L8.75454 14.9372L8.79808 14.9807L8.84163 15.0243L8.88518 15.0678L8.97228 15.1114H9.14647L9.32067 15.1984L9.40776 15.242L9.49486 15.2855L9.58196 15.3291H9.6255L9.7126 15.2855H9.88679L9.97389 15.242V15.1984L10.0174 15.1549L10.2352 15.1114H10.2787L10.4529 15.242L10.54 15.2855L10.6271 15.242L10.8449 15.2855L10.8884 15.3291L10.932 15.4162H11.0191L10.9755 15.4597L11.0626 15.5468L11.1497 15.6775L11.1932 15.8517L11.2368 15.8952L11.2803 15.9823V16.0259L11.2368 16.0694V16.113H11.4545L11.5416 16.0694L11.5852 16.0259L11.6723 16.0694H11.8029L11.89 16.113H11.9336V16.0259L11.89 15.9823L11.8029 15.8952L11.7594 15.8517L11.7158 15.7646V15.5033L11.7594 15.4597V15.3726L11.8029 15.3291L11.9336 15.242L12.0642 15.1114L12.1949 15.0243L12.3255 14.9807L12.6303 14.8936L12.761 14.8501L13.632 14.8936H13.6755L13.7191 14.8065L13.8061 14.763H13.8497L13.9803 14.8065H14.0239L14.111 14.763H14.1545L14.2852 14.7194H14.4158L14.5465 14.6323L14.6771 14.5888H14.7207L14.8513 14.5017L14.9384 14.4146L15.0255 14.371L15.1126 14.3275H15.3303L15.3739 14.2404H15.461L15.5045 14.1968L15.5916 14.1533L15.6352 14.0662L15.6787 14.0226L15.7223 13.9791H15.8965L16.1142 14.0226H16.1578L16.2013 13.8484L16.2449 13.8049L16.3755 13.6307V13.5001L16.4191 13.413V13.0646L16.5061 12.8468L16.5932 12.7597L16.7239 12.6726L16.7674 12.6291H17.3336L17.5949 12.6726L17.682 12.7162L17.7691 12.8033L17.8561 12.8904L17.9432 12.9339H17.9868L18.0739 12.8904L18.1174 12.8468L18.2045 12.8033L18.2481 12.7162V12.6726L18.4223 12.6291H18.5965L18.64 12.5855H18.6836L18.8142 12.6291H18.9013L18.9449 12.6726H19.0755L19.1626 12.7597H19.2061L19.4239 12.8904H19.511L19.5545 12.9339H19.5981L19.6416 12.8904V12.8468H19.5545L19.6416 12.6291L19.6852 12.542L19.5981 12.4113L19.5545 12.3678L19.3803 12.1065L19.1626 11.9323L19.0755 11.8888H19.032L18.9013 11.7581L18.8142 11.671V11.5839L18.7707 11.4968L18.7271 11.4097L18.64 11.3226L18.5094 11.1484L18.4658 11.1049H18.3352L18.3787 11.0613H18.4223V11.0178L18.3352 10.8001V10.713L18.3787 10.4081V10.3646L18.4658 10.1468L18.5094 10.1033L18.5965 9.97264L18.64 9.88554L18.6836 9.842L18.7707 9.79845H18.9449L19.0755 9.842H19.2932L19.3803 9.79845L19.4239 9.7549L19.4674 9.71135L19.511 9.53716V9.49361L19.5545 9.45006L19.7287 9.23232L19.8594 9.10167L20.1642 8.88393L20.3384 8.79683L20.4255 8.75329L21.1223 8.44845L21.2965 8.27425L21.3836 8.18716L21.5578 8.05651L21.7755 7.96941L21.9497 7.83877L21.9932 7.79522L22.0368 7.66458H22.0803L22.1239 7.57748L22.2545 7.49038L22.7771 7.22909H22.8642L22.9078 7.18554L23.082 7.142H23.1691L23.2126 7.09845V6.9678L23.2562 6.92425V6.75006L23.4303 6.48877Z" fill="#FFAD2D"/>
<path d="M23.3453 6.53232H23.2147L23.1276 6.57587L22.9534 6.70651H22.9098L22.8663 6.66296H22.8227V6.75006L22.7792 6.79361L22.7356 6.83716H22.605L22.4743 6.88071L22.3437 6.83716L22.2566 6.88071L22.126 7.01135L22.0389 7.0549H21.8647L21.8211 7.09845H21.6905L21.6469 7.142L21.6034 7.27264L21.5598 7.31619H21.4292V7.40329L21.3856 7.44683H21.3421L21.2985 7.49038L21.255 7.53393H21.1679L21.0808 7.57748H20.9502L20.9066 7.66458H20.8631L20.8195 7.70812H20.776L20.7324 7.75167L20.6889 7.70812L20.6453 7.75167H20.6018L20.4711 7.66458L20.4276 7.62103H20.384V7.70812L20.3405 7.75167L20.2534 7.83877L20.1663 7.96941L19.9921 8.14361L19.8614 8.2307L19.7308 8.27425L19.6437 8.36135L19.3824 8.492L18.9469 8.70974H18.7292L18.5114 8.79683L18.3372 8.84038H18.2937L18.0324 8.92748H17.9018L17.8147 8.97103H17.4227L17.2485 9.05812L16.9872 9.18877L16.9002 9.27587L16.7695 9.36296L16.5518 9.40651V9.31941H16.2034L15.9421 9.40651L15.6372 9.45006L15.5066 9.49361H14.4614L14.3308 9.45006L14.1131 9.40651H14.0695L13.9389 9.36296L13.8953 9.40651H13.8518L13.7647 9.36296H13.7211L13.634 9.40651H13.4163L13.3727 9.36296L13.0243 9.40651L12.9372 9.36296L12.6324 9.27587H12.5889L12.5453 9.31941L12.4582 9.36296H12.284L12.1534 9.31941L12.0227 9.27587H11.8485L11.6743 9.18877L11.4131 9.01458L11.2389 8.92748H11.1953V8.97103L11.2389 9.05812V9.31941L11.2824 9.40651L11.326 9.49361V9.842L11.2824 10.1468V10.1904L11.2389 10.3646L15.6808 14.1533L15.7243 14.0662L15.7679 14.0226L15.8114 13.9791H15.9856L16.2034 14.0226H16.2469L16.2905 13.8484L16.334 13.8049L16.4647 13.6307V13.5001L16.5082 13.413V13.0646L16.5953 12.8468L16.6824 12.7597L16.8131 12.6726L16.8566 12.6291H17.4227L17.684 12.6726L17.7711 12.7162L17.8582 12.8033L17.9453 12.8904L18.0324 12.9339H18.076L18.1631 12.8904L18.2066 12.8468L18.2937 12.8033L18.3372 12.7162V12.6726L18.5114 12.6291H18.6856L18.7292 12.5855H18.7727L18.9034 12.6291H18.9905L19.034 12.6726H19.1647L19.2518 12.7597H19.2953L19.5131 12.8904H19.6002L19.6437 12.9339H19.6872L19.7308 12.8904V12.8468H19.6437V12.6291L19.6872 12.542L19.6002 12.4113L19.5566 12.3678L19.3824 12.1065L19.1647 11.9323L19.0776 11.8888H19.034L18.9034 11.7581L18.8163 11.671V11.5839L18.7727 11.4968L18.7292 11.4097L18.6421 11.3226L18.5114 11.1484L18.4679 11.1049H18.3372L18.3808 11.0613H18.4243V11.0178L18.3372 10.8001V10.713L18.3808 10.4081V10.3646L18.4679 10.1468L18.5114 10.1033L18.5985 9.97264L18.6421 9.88554L18.6856 9.842L18.7727 9.79845H18.9469L19.0776 9.842H19.2953L19.3824 9.79845L19.426 9.7549L19.4695 9.71135L19.5131 9.53716V9.49361L19.5566 9.45006L19.7308 9.23232L19.8614 9.10167L20.1663 8.88393L20.3405 8.79683L20.4276 8.75329L21.1243 8.44845L21.2985 8.27425L21.3856 8.18716L21.5598 8.05651L21.7776 7.96941L21.9518 7.83877L21.9953 7.79522L22.0389 7.66458H22.0824L22.126 7.57748L22.2566 7.49038L22.7792 7.22909H22.8663L22.9098 7.18554L23.084 7.142H23.1711L23.2147 7.09845V6.9678L23.2582 6.92425V6.83716L23.3453 6.53232H23.3889L23.4324 6.48877L23.3453 6.53232Z" fill="#E88705"/>
<path d="M20.033 9.01458L20.3379 8.75329L20.512 8.66619L20.5556 8.62264L21.2959 8.3178L21.4701 8.14361L21.5572 8.05651L21.7314 7.92587L21.9056 7.83877L22.0798 7.70812L22.1233 7.66458L22.1669 7.53393L22.2104 7.49038L22.254 7.44683V7.40329L22.3846 7.31619H22.4282L22.9508 7.0549H23.0379L23.0814 7.01135L23.212 6.9678H23.2556L23.2991 6.92425V6.88071L23.3427 6.70651V6.66296L23.3862 6.57587L23.4298 6.53232L23.4733 6.48877H23.4298L23.3427 6.53232H23.212L23.1249 6.57587L22.9943 6.70651H22.8201V6.75006L22.7766 6.83716H22.6024L22.5153 6.92425L22.3411 6.88071H22.2975L22.1233 7.01135L22.0798 7.0549H21.9056L21.862 7.142H21.6879L21.6443 7.27264L21.5572 7.35974L21.5137 7.31619L21.4701 7.35974V7.40329L21.4266 7.44683H21.3395L21.2959 7.53393H21.1653L21.0782 7.57748H20.9475L20.904 7.66458H20.8604L20.8169 7.70812H20.5556L20.4685 7.66458H20.3814V7.75167L20.3379 7.79522L20.2508 7.83877L20.1637 7.96941L19.9895 8.14361L19.8588 8.2307L19.7282 8.27425L19.6411 8.3178L19.3362 8.44845L18.9443 8.66619L18.8572 8.70974H18.7266L19.9459 9.10167L20.033 9.01458Z" fill="#E56B07"/>
</g>
<defs>
<clipPath id="clip0_5806_500">
<rect width="27" height="27" fill="white"/>
</clipPath>
</defs>
</svg>
