<svg width="138" height="139" viewBox="0 0 138 139" fill="none" xmlns="http://www.w3.org/2000/svg">
<g filter="url(#filter0_d_1038_6524)">
<path d="M65.3314 22.9849C67.2886 21.005 70.5513 21.005 72.5084 22.9849C74.0834 24.5781 76.5807 24.9372 78.5407 23.8522C80.9764 22.504 84.1069 23.4232 85.427 25.8742C86.4893 27.8466 88.7843 28.8947 90.9705 28.4059C93.6874 27.7984 96.4321 29.5624 97.0082 32.2861C97.4718 34.4778 99.3785 36.13 101.614 36.277C104.392 36.4596 106.529 38.9253 106.314 41.701C106.141 43.9346 107.505 46.0571 109.609 46.8278C112.223 47.7857 113.578 50.7535 112.59 53.3563C111.795 55.4507 112.506 57.8715 114.307 59.2037C116.545 60.8592 117.01 64.0886 115.329 66.3077C113.976 68.0933 113.976 70.6163 115.329 72.4019C117.01 74.621 116.545 77.8504 114.307 79.5059C112.506 80.8381 111.795 83.2589 112.59 85.3533C113.578 87.9561 112.223 90.9239 109.609 91.8818C107.505 92.6525 106.141 94.775 106.314 97.0086C106.529 99.7843 104.392 102.25 101.614 102.433C99.3785 102.58 97.4718 104.232 97.0082 106.424C96.4321 109.147 93.6874 110.911 90.9705 110.304C88.7843 109.815 86.4893 110.863 85.427 112.835C84.1069 115.286 80.9764 116.206 78.5407 114.857C76.5807 113.772 74.0834 114.131 72.5084 115.725C70.5513 117.705 67.2886 117.705 65.3314 115.725C63.7565 114.131 61.2592 113.772 59.2992 114.857C56.8635 116.206 53.733 115.286 52.4129 112.835C51.3506 110.863 49.0556 109.815 46.8693 110.304C44.1524 110.911 41.4077 109.147 40.8316 106.424C40.3681 104.232 38.4613 102.58 36.2259 102.433C33.4479 102.25 31.3113 99.7843 31.5259 97.0086C31.6986 94.775 30.3346 92.6525 28.2311 91.8818C25.6171 90.9239 24.2618 87.9561 25.2497 85.3533C26.0447 83.2589 25.3338 80.8381 23.5327 79.5059C21.2945 77.8504 20.8301 74.621 22.5113 72.4019C23.8642 70.6163 23.8642 68.0933 22.5113 66.3077C20.8301 64.0886 21.2945 60.8592 23.5327 59.2037C25.3338 57.8715 26.0447 55.4507 25.2497 53.3563C24.2618 50.7535 25.6171 47.7857 28.2311 46.8278C30.3346 46.0571 31.6986 43.9346 31.5259 41.701C31.3113 38.9253 33.4479 36.4596 36.2259 36.277C38.4613 36.13 40.3681 34.4778 40.8316 32.2861C41.4077 29.5624 44.1524 27.7984 46.8693 28.4059C49.0556 28.8947 51.3506 27.8466 52.4129 25.8742C53.733 23.4232 56.8635 22.504 59.2992 23.8522C61.2592 24.9372 63.7565 24.5781 65.3314 22.9849Z" fill="#A8DD15"/>
<path d="M65.3314 22.9849C67.2886 21.005 70.5513 21.005 72.5084 22.9849C74.0834 24.5781 76.5807 24.9372 78.5407 23.8522C80.9764 22.504 84.1069 23.4232 85.427 25.8742C86.4893 27.8466 88.7843 28.8947 90.9705 28.4059C93.6874 27.7984 96.4321 29.5624 97.0082 32.2861C97.4718 34.4778 99.3785 36.13 101.614 36.277C104.392 36.4596 106.529 38.9253 106.314 41.701C106.141 43.9346 107.505 46.0571 109.609 46.8278C112.223 47.7857 113.578 50.7535 112.59 53.3563C111.795 55.4507 112.506 57.8715 114.307 59.2037C116.545 60.8592 117.01 64.0886 115.329 66.3077C113.976 68.0933 113.976 70.6163 115.329 72.4019C117.01 74.621 116.545 77.8504 114.307 79.5059C112.506 80.8381 111.795 83.2589 112.59 85.3533C113.578 87.9561 112.223 90.9239 109.609 91.8818C107.505 92.6525 106.141 94.775 106.314 97.0086C106.529 99.7843 104.392 102.25 101.614 102.433C99.3785 102.58 97.4718 104.232 97.0082 106.424C96.4321 109.147 93.6874 110.911 90.9705 110.304C88.7843 109.815 86.4893 110.863 85.427 112.835C84.1069 115.286 80.9764 116.206 78.5407 114.857C76.5807 113.772 74.0834 114.131 72.5084 115.725C70.5513 117.705 67.2886 117.705 65.3314 115.725C63.7565 114.131 61.2592 113.772 59.2992 114.857C56.8635 116.206 53.733 115.286 52.4129 112.835C51.3506 110.863 49.0556 109.815 46.8693 110.304C44.1524 110.911 41.4077 109.147 40.8316 106.424C40.3681 104.232 38.4613 102.58 36.2259 102.433C33.4479 102.25 31.3113 99.7843 31.5259 97.0086C31.6986 94.775 30.3346 92.6525 28.2311 91.8818C25.6171 90.9239 24.2618 87.9561 25.2497 85.3533C26.0447 83.2589 25.3338 80.8381 23.5327 79.5059C21.2945 77.8504 20.8301 74.621 22.5113 72.4019C23.8642 70.6163 23.8642 68.0933 22.5113 66.3077C20.8301 64.0886 21.2945 60.8592 23.5327 59.2037C25.3338 57.8715 26.0447 55.4507 25.2497 53.3563C24.2618 50.7535 25.6171 47.7857 28.2311 46.8278C30.3346 46.0571 31.6986 43.9346 31.5259 41.701C31.3113 38.9253 33.4479 36.4596 36.2259 36.277C38.4613 36.13 40.3681 34.4778 40.8316 32.2861C41.4077 29.5624 44.1524 27.7984 46.8693 28.4059C49.0556 28.8947 51.3506 27.8466 52.4129 25.8742C53.733 23.4232 56.8635 22.504 59.2992 23.8522C61.2592 24.9372 63.7565 24.5781 65.3314 22.9849Z" stroke="white" stroke-width="3"/>
</g>
<path fill-rule="evenodd" clip-rule="evenodd" d="M66.5797 48.977C67.9201 48.977 69.0895 48.9266 70.1191 48.977L56.8807 83.6456L57.7987 84.446L56.2201 85.3754L55.5751 87.065C55.2364 86.8334 54.9042 86.5923 54.5791 86.342L49.8061 89.1548L47.3143 89.138C47.167 89.1137 47.0258 89.0605 46.899 88.9816C46.7722 88.9027 46.6622 88.7995 46.5753 88.678C46.4884 88.5565 46.4264 88.4191 46.3927 88.2736C46.359 88.1281 46.3543 87.9773 46.3789 87.83L47.3149 83.756C47.7511 81.0296 48.0937 79.6796 47.8333 77.7056C46.7353 75.176 46.1191 72.4052 46.1191 69.5168C46.1191 58.1732 55.2799 48.977 66.5797 48.977Z" fill="#F0F1EC"/>
<path d="M71.3199 89.7548C82.5865 89.7548 91.7199 80.6214 91.7199 69.3548C91.7199 58.0882 82.5865 48.9548 71.3199 48.9548C60.0533 48.9548 50.9199 58.0882 50.9199 69.3548C50.9199 80.6214 60.0533 89.7548 71.3199 89.7548Z" fill="#F0F1EC"/>
<path fill-rule="evenodd" clip-rule="evenodd" d="M68.9196 48.9548C80.1864 48.9548 89.3196 58.088 89.3196 69.3548C89.3196 80.6216 80.1864 89.7548 68.9196 89.7548C65.8487 89.7594 62.8167 89.0678 60.0516 87.7322C58.3716 87.5894 56.6736 87.6722 55.0044 87.9812L50.346 88.8428C50.1608 88.8771 49.9701 88.8649 49.7908 88.8075C49.6115 88.7501 49.4492 88.6492 49.3184 88.5138C49.1876 88.3783 49.0924 88.2126 49.0412 88.0314C48.9901 87.8502 48.9847 87.6592 49.0254 87.4754L49.8462 83.7674C50.27 81.8515 50.4574 79.8909 50.4042 77.9294C49.1584 75.2427 48.5151 72.3162 48.5196 69.3548C48.5196 58.088 57.6528 48.9548 68.9196 48.9548Z" fill="black"/>
<path d="M69.5188 79.8548C74.6548 79.8548 78.8188 75.6908 78.8188 70.5548C78.8188 70.157 78.6607 69.7755 78.3794 69.4941C78.0981 69.2128 77.7166 69.0548 77.3188 69.0548C76.9209 69.0548 76.5394 69.2128 76.2581 69.4941C75.9768 69.7755 75.8188 70.157 75.8188 70.5548C75.8188 74.0342 72.9982 76.8548 69.5188 76.8548C66.0394 76.8548 63.2188 74.0342 63.2188 70.5548C63.2188 70.3578 63.18 70.1628 63.1046 69.9808C63.0292 69.7988 62.9187 69.6334 62.7794 69.4941C62.6401 69.3549 62.4748 69.2444 62.2928 69.169C62.1108 69.0936 61.9157 69.0548 61.7188 69.0548C61.5218 69.0548 61.3267 69.0936 61.1447 69.169C60.9627 69.2444 60.7974 69.3549 60.6581 69.4941C60.5188 69.6334 60.4083 69.7988 60.3329 69.9808C60.2575 70.1628 60.2187 70.3578 60.2188 70.5548C60.2188 75.6908 64.3828 79.8548 69.5188 79.8548Z" fill="white"/>
<defs>
<filter id="filter0_d_1038_6524" x="0" y="0" width="137.84" height="138.71" filterUnits="userSpaceOnUse" color-interpolation-filters="sRGB">
<feFlood flood-opacity="0" result="BackgroundImageFix"/>
<feColorMatrix in="SourceAlpha" type="matrix" values="0 0 0 0 0 0 0 0 0 0 0 0 0 0 0 0 0 0 127 0" result="hardAlpha"/>
<feOffset/>
<feGaussianBlur stdDeviation="10"/>
<feComposite in2="hardAlpha" operator="out"/>
<feColorMatrix type="matrix" values="0 0 0 0 0 0 0 0 0 0 0 0 0 0 0 0 0 0 0.1 0"/>
<feBlend mode="normal" in2="BackgroundImageFix" result="effect1_dropShadow_1038_6524"/>
<feBlend mode="normal" in="SourceGraphic" in2="effect1_dropShadow_1038_6524" result="shape"/>
</filter>
</defs>
</svg>
