<svg width="46" height="46" viewBox="0 0 46 46" fill="none" xmlns="http://www.w3.org/2000/svg">
<rect width="46" height="46" rx="23" fill="#F4F4F4"/>
<g clip-path="url(#clip0_5311_3789)">
<mask id="mask0_5311_3789" style="mask-type:luminance" maskUnits="userSpaceOnUse" x="10" y="10" width="26" height="26">
<path d="M10 10H36V36H10V10Z" fill="white"/>
</mask>
<g mask="url(#mask0_5311_3789)">
<path fill-rule="evenodd" clip-rule="evenodd" d="M35.6829 15.7332C35.886 15.9364 36.0001 16.2119 36.0001 16.4991C36.0001 16.7864 35.886 17.0619 35.6829 17.265L25.3913 27.5567C25.1881 27.7598 24.9126 27.8739 24.6254 27.8739C24.3381 27.8739 24.0626 27.7598 23.8594 27.5567L19.2087 22.906L11.8496 30.265C11.6453 30.4624 11.3716 30.5716 11.0876 30.5691C10.8035 30.5666 10.5318 30.4527 10.331 30.2518C10.1301 30.051 10.0162 29.7793 10.0137 29.4952C10.0112 29.2112 10.1204 28.9375 10.3178 28.7332L18.4428 20.6082C18.6459 20.4051 18.9214 20.291 19.2087 20.291C19.496 20.291 19.7715 20.4051 19.9746 20.6082L24.6254 25.259L34.1511 15.7332C34.3543 15.5301 34.6298 15.416 34.917 15.416C35.2043 15.416 35.4798 15.5301 35.6829 15.7332Z" fill="#1A1A1A"/>
<path fill-rule="evenodd" clip-rule="evenodd" d="M27.334 16.4993C27.334 16.212 27.4481 15.9365 27.6513 15.7333C27.8544 15.5302 28.13 15.416 28.4173 15.416H34.9173C35.2046 15.416 35.4802 15.5302 35.6834 15.7333C35.8865 15.9365 36.0007 16.212 36.0007 16.4993V22.9993C36.0007 23.2867 35.8865 23.5622 35.6834 23.7654C35.4802 23.9685 35.2046 24.0827 34.9173 24.0827C34.63 24.0827 34.3544 23.9685 34.1513 23.7654C33.9481 23.5622 33.834 23.2867 33.834 22.9993V17.5827H28.4173C28.13 17.5827 27.8544 17.4685 27.6513 17.2654C27.4481 17.0622 27.334 16.7867 27.334 16.4993Z" fill="#1A1A1A"/>
</g>
</g>
<defs>
<clipPath id="clip0_5311_3789">
<rect width="26" height="26" fill="white" transform="translate(10 10)"/>
</clipPath>
</defs>
</svg>
