<svg width="46" height="46" viewBox="0 0 46 46" fill="none" xmlns="http://www.w3.org/2000/svg">
<rect width="46" height="46" rx="23" fill="#025C42" fill-opacity="0.07"/>
<g clip-path="url(#clip0_5311_3777)">
<path d="M23 10.8125C20.5895 10.8125 18.2332 11.5273 16.229 12.8665C14.2248 14.2056 12.6627 16.1091 11.7402 18.336C10.8178 20.563 10.5764 23.0135 11.0467 25.3777C11.5169 27.7418 12.6777 29.9134 14.3821 31.6179C16.0866 33.3223 18.2582 34.4831 20.6223 34.9533C22.9865 35.4236 25.437 35.1822 27.664 34.2598C29.8909 33.3373 31.7944 31.7752 33.1335 29.771C34.4727 27.7668 35.1875 25.4105 35.1875 23C35.1839 19.7688 33.8986 16.671 31.6138 14.3862C29.329 12.1014 26.2312 10.8162 23 10.8125ZM23 33.5625C21.3222 33.5625 19.5656 31.3996 18.6938 27.875H27.3063C26.4344 31.3996 24.6778 33.5625 23 33.5625ZM18.3639 26.25C18.0454 24.095 18.0454 21.905 18.3639 19.75H27.6361C27.7973 20.8258 27.8771 21.9122 27.875 23C27.8771 24.0878 27.7973 25.1742 27.6361 26.25H18.3639ZM12.4375 23C12.4381 21.8963 12.6125 20.7995 12.9543 19.75H16.7324C16.4225 21.9056 16.4225 24.0944 16.7324 26.25H12.9543C12.6125 25.2005 12.4381 24.1037 12.4375 23ZM23 12.4375C24.6778 12.4375 26.4344 14.6004 27.3063 18.125H18.6938C19.5656 14.6004 21.3222 12.4375 23 12.4375ZM29.2676 19.75H33.0458C33.7346 21.8619 33.7346 24.1381 33.0458 26.25H29.2676C29.4217 25.1735 29.4994 24.0875 29.5 23C29.4994 21.9125 29.4217 20.8265 29.2676 19.75ZM32.3608 18.125H28.9751C28.6136 16.3578 27.9046 14.6801 26.8894 13.1891C29.2442 14.1282 31.185 15.8791 32.3608 18.125ZM19.1106 13.1891C18.0954 14.6801 17.3865 16.3578 17.0249 18.125H13.6392C14.815 15.8791 16.7558 14.1282 19.1106 13.1891ZM13.6392 27.875H17.0249C17.3865 29.6422 18.0954 31.3199 19.1106 32.8109C16.7558 31.8718 14.815 30.1209 13.6392 27.875ZM26.8894 32.8109C27.9046 31.3199 28.6136 29.6422 28.9751 27.875H32.3608C31.185 30.1209 29.2442 31.8718 26.8894 32.8109Z" fill="#1A1A1A"/>
</g>
<defs>
<clipPath id="clip0_5311_3777">
<rect width="26" height="26" fill="white" transform="translate(10 10)"/>
</clipPath>
</defs>
</svg>
