<svg width="16" height="16" viewBox="0 0 16 16" fill="none" xmlns="http://www.w3.org/2000/svg">
<g clip-path="url(#clip0_2660_2207)">
<path d="M8.00065 14.6668C11.2979 14.6668 14.036 12.2732 14.5722 9.12883C14.6347 8.76196 14.6673 8.3849 14.6673 8.00016C14.6673 4.74588 12.3356 2.0362 9.25172 1.45069C8.84645 1.37376 8.42825 1.3335 8.00065 1.3335C6.18044 1.3335 4.53062 2.06297 3.32756 3.24551C2.09708 4.45501 1.33398 6.13847 1.33398 8.00016C1.33398 11.682 4.31875 14.6668 8.00065 14.6668ZM8.00065 14.6668C7.35865 14.1911 7.46112 13.6372 7.78318 13.0833C8.27838 12.2318 8.27838 12.2318 8.27838 11.0964C8.27838 9.9611 8.95305 9.42876 11.334 9.9049C12.4038 10.1189 13.1834 8.64076 14.5722 9.12883M3.32756 3.24551C3.89376 3.30526 4.21076 3.60859 4.73729 4.16494C5.73692 5.22118 6.73652 5.30931 7.40298 4.95723C8.40258 4.42912 7.56258 3.5737 8.73578 3.10882C9.45505 2.82384 9.59212 2.07749 9.25172 1.45069" stroke="#1A1A1A" stroke-opacity="0.7" stroke-width="1.2" stroke-linejoin="round"/>
</g>
<defs>
<clipPath id="clip0_2660_2207">
<rect width="16" height="16" fill="white"/>
</clipPath>
</defs>
</svg>
