<svg width="389" height="93" viewBox="0 0 389 93" fill="none" xmlns="http://www.w3.org/2000/svg">
<path d="M0.246094 52.677C0.246094 52.677 116.786 1.03662 194.248 1.03662C271.709 1.03662 388.249 52.677 388.249 52.677" stroke="url(#paint0_linear_5140_2524)" stroke-width="0.8"/>
<path d="M0.246094 62.6083C0.246094 62.6083 117.25 1.73975 194.712 1.73975C272.174 1.73975 388.249 62.6083 388.249 62.6083" stroke="url(#paint1_linear_5140_2524)" stroke-width="0.8"/>
<path d="M0.246094 72.5365C0.246094 72.5365 117.25 3.20471 194.712 3.20471C272.174 3.20471 388.249 72.5365 388.249 72.5365" stroke="url(#paint2_linear_5140_2524)" stroke-width="0.8"/>
<path d="M0.246094 82.4679C0.246094 82.4679 117.25 3.20862 194.712 3.20862C272.174 3.20862 388.249 82.4679 388.249 82.4679" stroke="url(#paint3_linear_5140_2524)" stroke-width="0.8"/>
<path d="M0.246094 92.4C0.246094 92.4 117.25 0.400024 194.712 0.400024C272.174 0.400024 388.249 92.4 388.249 92.4" stroke="url(#paint4_linear_5140_2524)" stroke-width="0.8"/>
<path d="M0.246094 43.8332C0.246094 43.8332 116.786 3.11475 194.248 3.11475C271.709 3.11475 388.249 43.8332 388.249 43.8332" stroke="url(#paint5_linear_5140_2524)" stroke-width="0.8"/>
<defs>
<linearGradient id="paint0_linear_5140_2524" x1="194.248" y1="12.6162" x2="194.248" y2="52.6774" gradientUnits="userSpaceOnUse">
<stop stop-color="#FEFFFE"/>
<stop offset="1" stop-color="#A8DD15"/>
</linearGradient>
<linearGradient id="paint1_linear_5140_2524" x1="194.248" y1="22.5481" x2="194.248" y2="62.6093" gradientUnits="userSpaceOnUse">
<stop stop-color="#FEFFFE"/>
<stop offset="1" stop-color="#A8DD15"/>
</linearGradient>
<linearGradient id="paint2_linear_5140_2524" x1="194.248" y1="32.4775" x2="194.248" y2="72.5387" gradientUnits="userSpaceOnUse">
<stop stop-color="#FEFFFE"/>
<stop offset="1" stop-color="#A8DD15"/>
</linearGradient>
<linearGradient id="paint3_linear_5140_2524" x1="194.248" y1="42.4084" x2="194.248" y2="82.4696" gradientUnits="userSpaceOnUse">
<stop stop-color="#FEFFFE"/>
<stop offset="1" stop-color="#A8DD15"/>
</linearGradient>
<linearGradient id="paint4_linear_5140_2524" x1="194.248" y1="52.3392" x2="194.248" y2="92.4004" gradientUnits="userSpaceOnUse">
<stop stop-color="#FEFFFE"/>
<stop offset="1" stop-color="#A8DD15"/>
</linearGradient>
<linearGradient id="paint5_linear_5140_2524" x1="194.248" y1="3.11475" x2="194.248" y2="43.8332" gradientUnits="userSpaceOnUse">
<stop stop-color="#FEFFFE"/>
<stop offset="1" stop-color="#A8DD15"/>
</linearGradient>
</defs>
</svg>
