<svg width="389" height="93" viewBox="0 0 389 93" fill="none" xmlns="http://www.w3.org/2000/svg">
<path d="M0.246094 40.037C0.246094 40.037 116.786 91.6773 194.248 91.6773C271.709 91.6773 388.249 40.037 388.249 40.037" stroke="url(#paint0_linear_5140_2517)" stroke-width="0.8"/>
<path d="M0.246094 30.1066C0.246094 30.1066 117.25 90.9752 194.712 90.9752C272.174 90.9752 388.249 30.1066 388.249 30.1066" stroke="url(#paint1_linear_5140_2517)" stroke-width="0.8"/>
<path d="M0.246094 20.1771C0.246094 20.1771 117.25 89.5089 194.712 89.5089C272.174 89.5089 388.249 20.1771 388.249 20.1771" stroke="url(#paint2_linear_5140_2517)" stroke-width="0.8"/>
<path d="M0.246094 10.2456C0.246094 10.2456 117.25 89.5049 194.712 89.5049C272.174 89.5049 388.249 10.2456 388.249 10.2456" stroke="url(#paint3_linear_5140_2517)" stroke-width="0.8"/>
<path d="M0.246094 0.31354C0.246094 0.31354 117.25 92.3135 194.712 92.3135C272.174 92.3135 388.249 0.31354 388.249 0.31354" stroke="url(#paint4_linear_5140_2517)" stroke-width="0.8"/>
<path d="M0.246094 48.8797C0.246094 48.8797 116.786 89.5981 194.248 89.5981C271.709 89.5981 388.249 48.8797 388.249 48.8797" stroke="url(#paint5_linear_5140_2517)" stroke-width="0.8"/>
<defs>
<linearGradient id="paint0_linear_5140_2517" x1="194.248" y1="80.0977" x2="194.248" y2="40.0365" gradientUnits="userSpaceOnUse">
<stop stop-color="#FEFFFE"/>
<stop offset="1" stop-color="#A8DD15"/>
</linearGradient>
<linearGradient id="paint1_linear_5140_2517" x1="194.248" y1="70.1669" x2="194.248" y2="30.1057" gradientUnits="userSpaceOnUse">
<stop stop-color="#FEFFFE"/>
<stop offset="1" stop-color="#A8DD15"/>
</linearGradient>
<linearGradient id="paint2_linear_5140_2517" x1="194.248" y1="60.236" x2="194.248" y2="20.1749" gradientUnits="userSpaceOnUse">
<stop stop-color="#FEFFFE"/>
<stop offset="1" stop-color="#A8DD15"/>
</linearGradient>
<linearGradient id="paint3_linear_5140_2517" x1="194.248" y1="50.3052" x2="194.248" y2="10.244" gradientUnits="userSpaceOnUse">
<stop stop-color="#FEFFFE"/>
<stop offset="1" stop-color="#A8DD15"/>
</linearGradient>
<linearGradient id="paint4_linear_5140_2517" x1="194.248" y1="40.3744" x2="194.248" y2="0.313203" gradientUnits="userSpaceOnUse">
<stop stop-color="#FEFFFE"/>
<stop offset="1" stop-color="#A8DD15"/>
</linearGradient>
<linearGradient id="paint5_linear_5140_2517" x1="194.248" y1="89.5981" x2="194.248" y2="48.8797" gradientUnits="userSpaceOnUse">
<stop stop-color="#FEFFFE"/>
<stop offset="1" stop-color="#A8DD15"/>
</linearGradient>
</defs>
</svg>
