<svg width="16" height="16" viewBox="0 0 16 16" fill="none" xmlns="http://www.w3.org/2000/svg">
<path d="M13.9618 11.2234C13.5243 8.5909 12.1621 6.63059 10.978 5.47917C10.6334 5.14412 10.4611 4.97659 10.0805 4.82155C9.69993 4.6665 9.3728 4.6665 8.71853 4.6665H7.28147C6.62721 4.6665 6.30007 4.6665 5.91948 4.82155C5.53889 4.97659 5.36661 5.14412 5.02203 5.47917C3.83788 6.63059 2.47574 8.5909 2.03818 11.2234C1.71262 13.1821 3.51951 14.6665 5.53888 14.6665H10.4611C12.4805 14.6665 14.2874 13.1821 13.9618 11.2234Z" stroke="#1A1A1A" stroke-opacity="0.7" stroke-width="1.2" stroke-linecap="round" stroke-linejoin="round"/>
<path d="M4.8371 2.96208C4.69956 2.76188 4.5002 2.49016 4.91201 2.4282C5.3353 2.3645 5.77482 2.65426 6.20505 2.6483C6.59426 2.64292 6.79255 2.47029 7.00528 2.22382C7.22928 1.96428 7.57615 1.3335 7.99935 1.3335C8.42255 1.3335 8.76942 1.96428 8.99342 2.22382C9.20615 2.47029 9.40442 2.64292 9.79362 2.6483C10.2239 2.65426 10.6634 2.3645 11.0867 2.4282C11.4985 2.49016 11.2991 2.76188 11.1616 2.96208L10.5397 3.86726C10.2737 4.25447 10.1407 4.44808 9.86228 4.55746C9.58395 4.66683 9.22422 4.66683 8.50482 4.66683H7.49388C6.77448 4.66683 6.41475 4.66683 6.13639 4.55746C5.85803 4.44808 5.72502 4.25447 5.45898 3.86726L4.8371 2.96208Z" stroke="#1A1A1A" stroke-opacity="0.7" stroke-width="1.2" stroke-linejoin="round"/>
<path d="M9.08512 8.61255C8.94099 8.08048 8.20739 7.60035 7.32679 7.95955C6.44618 8.31868 6.3063 9.47435 7.63832 9.59715C8.24032 9.65261 8.63285 9.53275 8.99219 9.87188C9.35159 10.2109 9.41832 11.154 8.49965 11.4081C7.58099 11.6623 6.67132 11.2652 6.57227 10.7013M7.89512 7.32861V7.83555M7.89512 11.4863V11.9953" stroke="#1A1A1A" stroke-opacity="0.7" stroke-width="1.2" stroke-linecap="round" stroke-linejoin="round"/>
</svg>
