<svg width="46" height="46" viewBox="0 0 46 46" fill="none" xmlns="http://www.w3.org/2000/svg">
<rect width="46" height="46" rx="23" fill="#A8DD15" fill-opacity="0.14"/>
<path d="M33.8346 34.6465H12.168C11.7238 34.6465 11.3555 34.2782 11.3555 33.834C11.3555 33.3898 11.7238 33.0215 12.168 33.0215H33.8346C34.2788 33.0215 34.6471 33.3898 34.6471 33.834C34.6471 34.2782 34.2788 34.6465 33.8346 34.6465Z" fill="#1A1A1A"/>
<path d="M25.4375 34.6452H20.5625C20.1183 34.6452 19.75 34.2768 19.75 33.8327V14.3327C19.75 12.4693 20.7792 11.3535 22.5125 11.3535H23.4875C25.2208 11.3535 26.25 12.4693 26.25 14.3327V33.8327C26.25 34.2768 25.8817 34.6452 25.4375 34.6452ZM21.375 33.0202H24.625V14.3327C24.625 13.0868 24.04 12.9785 23.4875 12.9785H22.5125C21.96 12.9785 21.375 13.0868 21.375 14.3327V33.0202V33.0202Z" fill="#1A1A1A"/>
<path d="M17.5833 34.6452H13.25C12.8058 34.6452 12.4375 34.2768 12.4375 33.8327V20.8327C12.4375 18.9693 13.3908 17.8535 14.9833 17.8535H15.85C17.4425 17.8535 18.3958 18.9693 18.3958 20.8327V33.8327C18.3958 34.2768 18.0275 34.6452 17.5833 34.6452ZM14.0625 33.0202H16.7708V20.8327C16.7708 19.4785 16.175 19.4785 15.85 19.4785H14.9833C14.6583 19.4785 14.0625 19.4785 14.0625 20.8327V33.0202V33.0202Z" fill="#1A1A1A"/>
<path d="M32.7513 34.6465H28.418C27.9738 34.6465 27.6055 34.2782 27.6055 33.834V26.2507C27.6055 24.3873 28.5588 23.2715 30.1513 23.2715H31.018C32.6105 23.2715 33.5638 24.3873 33.5638 26.2507V33.834C33.5638 34.2782 33.1955 34.6465 32.7513 34.6465ZM29.2305 33.0215H31.9388V26.2507C31.9388 24.8965 31.343 24.8965 31.018 24.8965H30.1513C29.8263 24.8965 29.2305 24.8965 29.2305 26.2507V33.0215V33.0215Z" fill="#1A1A1A"/>
</svg>
