<svg width="120" height="120" viewBox="0 0 120 120" fill="none" xmlns="http://www.w3.org/2000/svg">
<path d="M31.4062 117.188C30.9375 117.188 30.4492 117.148 29.9414 117.07C29.4336 116.992 28.9844 116.836 28.5938 116.602C27.1875 116.055 26.0547 115.137 25.1953 113.848C24.3359 112.559 23.9062 111.172 23.9062 109.688V101.719C23.9062 100.312 23.3984 99.1016 22.3828 98.0859C21.3672 97.0703 20.1562 96.5625 18.75 96.5625C13.5938 96.5625 9.17969 94.7266 5.50781 91.0547C1.83594 87.3828 0 82.9688 0 77.8125V21.5625C0 16.4062 1.83594 11.9922 5.50781 8.32031C9.17969 4.64844 13.5938 2.8125 18.75 2.8125H101.25C106.406 2.8125 110.82 4.64844 114.492 8.32031C118.164 11.9922 120 16.4062 120 21.5625V54.375C120 55.7031 119.551 56.8164 118.652 57.7148C117.754 58.6133 116.641 59.0625 115.312 59.0625C113.984 59.0625 112.871 58.6133 111.973 57.7148C111.074 56.8164 110.625 55.7031 110.625 54.375V21.5625C110.625 18.9844 109.707 16.7773 107.871 14.9414C106.035 13.1055 103.828 12.1875 101.25 12.1875H18.75C16.1719 12.1875 13.9648 13.1055 12.1289 14.9414C10.293 16.7773 9.375 18.9844 9.375 21.5625V77.8125C9.375 80.3906 10.293 82.5977 12.1289 84.4336C13.9648 86.2695 16.1719 87.1875 18.75 87.1875C22.7344 87.1875 26.1523 88.6133 29.0039 91.4648C31.8555 94.3164 33.2812 97.7344 33.2812 101.719V105.117L43.4766 94.9219C45.9766 92.4219 48.8477 90.5078 52.0898 89.1797C55.332 87.8516 58.7109 87.1875 62.2266 87.1875H101.25C103.828 87.1875 106.035 86.2695 107.871 84.4336C109.707 82.5977 110.625 80.3906 110.625 77.8125C110.625 76.4844 111.074 75.3711 111.973 74.4727C112.871 73.5742 113.984 73.125 115.312 73.125C116.641 73.125 117.754 73.5742 118.652 74.4727C119.551 75.3711 120 76.4844 120 77.8125C120 82.9688 118.164 87.3828 114.492 91.0547C110.82 94.7266 106.406 96.5625 101.25 96.5625H62.2266C59.9609 96.5625 57.7734 96.9922 55.6641 97.8516C53.5547 98.7109 51.7187 99.9609 50.1562 101.602L36.6797 114.961C35.9766 115.664 35.1758 116.211 34.2773 116.602C33.3789 116.992 32.4219 117.188 31.4062 117.188ZM96.5625 30.9375C96.5625 29.6094 96.1133 28.4961 95.2148 27.5977C94.3164 26.6992 93.2031 26.25 91.875 26.25H28.125C26.7969 26.25 25.6836 26.6992 24.7852 27.5977C23.8867 28.4961 23.4375 29.6094 23.4375 30.9375C23.4375 32.2656 23.8867 33.3789 24.7852 34.2773C25.6836 35.1758 26.7969 35.625 28.125 35.625H91.875C93.2031 35.625 94.3164 35.1758 95.2148 34.2773C96.1133 33.3789 96.5625 32.2656 96.5625 30.9375ZM96.5625 49.6875C96.5625 48.3594 96.1133 47.2461 95.2148 46.3477C94.3164 45.4492 93.2031 45 91.875 45H28.125C26.7969 45 25.6836 45.4492 24.7852 46.3477C23.8867 47.2461 23.4375 48.3594 23.4375 49.6875C23.4375 51.0156 23.8867 52.1289 24.7852 53.0273C25.6836 53.9258 26.7969 54.375 28.125 54.375H91.875C93.2031 54.375 94.3164 53.9258 95.2148 53.0273C96.1133 52.1289 96.5625 51.0156 96.5625 49.6875ZM77.8125 68.4375C77.8125 67.1094 77.3633 65.9961 76.4648 65.0977C75.5664 64.1992 74.4531 63.75 73.125 63.75H28.125C26.7969 63.75 25.6836 64.1992 24.7852 65.0977C23.8867 65.9961 23.4375 67.1094 23.4375 68.4375C23.4375 69.7656 23.8867 70.8789 24.7852 71.7773C25.6836 72.6758 26.7969 73.125 28.125 73.125H73.125C74.4531 73.125 75.5664 72.6758 76.4648 71.7773C77.3633 70.8789 77.8125 69.7656 77.8125 68.4375Z" fill="white" fill-opacity="0.2"/>
</svg>
