<svg width="16" height="16" viewBox="0 0 16 16" fill="none" xmlns="http://www.w3.org/2000/svg">
<path d="M9.33398 14.0002H10.6673M9.33398 14.0002C8.78172 14.0002 8.33398 13.5524 8.33398 13.0002V11.3335H8.00065M9.33398 14.0002H6.66732M8.00065 11.3335H7.66732V13.0002C7.66732 13.5524 7.21958 14.0002 6.66732 14.0002M8.00065 11.3335V14.0002M6.66732 14.0002H5.33398" stroke="#1A1A1A" stroke-opacity="0.7" stroke-width="1.2" stroke-linecap="round" stroke-linejoin="round"/>
<path d="M10.6673 2H5.33398C3.44836 2 2.50556 2 1.91977 2.58579C1.33398 3.17157 1.33398 4.11438 1.33398 6V7.33333C1.33398 9.21893 1.33398 10.1617 1.91977 10.7475C2.50556 11.3333 3.44836 11.3333 5.33398 11.3333H10.6673C12.5529 11.3333 13.4957 11.3333 14.0815 10.7475C14.6673 10.1617 14.6673 9.21893 14.6673 7.33333V6C14.6673 4.11438 14.6673 3.17157 14.0815 2.58579C13.4957 2 12.5529 2 10.6673 2Z" stroke="#1A1A1A" stroke-opacity="0.7" stroke-width="1.2" stroke-linecap="round" stroke-linejoin="round"/>
</svg>
