<svg width="50" height="50" viewBox="0 0 50 50" fill="none" xmlns="http://www.w3.org/2000/svg">
<path d="M18.2747 5.2085C17.7079 5.41116 17.1522 5.63648 16.6089 5.88329M11.3073 9.30362C10.8354 9.71741 10.3824 10.1513 9.94966 10.6039M6.32141 15.7601C5.93435 16.5377 5.59506 17.3423 5.30725 18.17M4.20537 23.7322C4.1591 24.5435 4.16085 25.3706 4.2101 26.182M5.35614 31.8039C5.63327 32.5827 5.95606 33.3408 6.32141 34.0747M9.77783 39.0491C10.2866 39.5939 10.8244 40.1125 11.3889 40.6025M16.2059 43.7635C17.0276 44.1572 17.8787 44.5014 18.7552 44.7918" stroke="#A8DD15" stroke-width="2.5" stroke-linecap="round" stroke-linejoin="round"/>
<path d="M25 45.8332C36.5058 45.8332 45.8333 36.5057 45.8333 24.9998C45.8333 13.4939 36.5058 4.1665 25 4.1665" stroke="#A8DD15" stroke-width="2.5" stroke-linecap="round"/>
<path d="M25 28.125C26.7258 28.125 28.125 26.7258 28.125 25C28.125 23.2742 26.7258 21.875 25 21.875M25 28.125C23.2742 28.125 21.875 26.7258 21.875 25C21.875 23.2742 23.2742 21.875 25 21.875M25 28.125V33.3333M25 21.875V12.5" stroke="#A8DD15" stroke-width="2.5" stroke-linecap="round"/>
</svg>
