<svg width="16" height="16" viewBox="0 0 16 16" fill="none" xmlns="http://www.w3.org/2000/svg">
<g clip-path="url(#clip0_2622_1041)">
<path d="M8.08398 3.83317H8.00065M8.16732 3.83317C8.16732 3.92522 8.09272 3.99984 8.00065 3.99984C7.90858 3.99984 7.83398 3.92522 7.83398 3.83317C7.83398 3.74112 7.90858 3.6665 8.00065 3.6665C8.09272 3.6665 8.16732 3.74112 8.16732 3.83317Z" stroke="#1A1A1A" stroke-opacity="0.7" stroke-width="1.2" stroke-linecap="round" stroke-linejoin="round"/>
<path d="M3.33398 6V12.6667M6.00065 6V12.6667" stroke="#1A1A1A" stroke-opacity="0.7" stroke-width="1.2" stroke-linecap="round" stroke-linejoin="round"/>
<path d="M10 6V12.6667M12.6667 6V12.6667" stroke="#1A1A1A" stroke-opacity="0.7" stroke-width="1.2" stroke-linecap="round" stroke-linejoin="round"/>
<path d="M14.2352 6.00016H1.76613C1.52746 6.00016 1.33398 5.8045 1.33398 5.56314C1.33398 5.41522 1.40798 5.27734 1.53062 5.19673L5.8207 2.37673C6.87872 1.68124 7.40778 1.3335 8.00065 1.3335C8.59352 1.3335 9.12258 1.68124 10.1806 2.37673L14.4707 5.19673C14.5933 5.27734 14.6673 5.41522 14.6673 5.56314C14.6673 5.8045 14.4739 6.00016 14.2352 6.00016Z" stroke="#1A1A1A" stroke-opacity="0.7" stroke-width="1.2" stroke-linecap="round" stroke-linejoin="round"/>
<path d="M14.0271 13.5284L13.5686 13.057C13.3811 12.8644 13.2874 12.768 13.1683 12.7172C13.0491 12.6665 12.9165 12.6665 12.6515 12.6665H3.34987C3.08479 12.6665 2.95225 12.6665 2.83307 12.7172C2.7139 12.768 2.62018 12.8644 2.43275 13.057L1.97419 13.5284C1.50303 14.0128 1.26745 14.255 1.35036 14.4607C1.43327 14.6665 1.76643 14.6665 2.43275 14.6665H13.5686C14.2349 14.6665 14.5681 14.6665 14.6509 14.4607C14.7339 14.255 14.4983 14.0128 14.0271 13.5284Z" stroke="#1A1A1A" stroke-opacity="0.7" stroke-width="1.2" stroke-linecap="round" stroke-linejoin="round"/>
</g>
<defs>
<clipPath id="clip0_2622_1041">
<rect width="16" height="16" fill="white"/>
</clipPath>
</defs>
</svg>
