<svg width="48" height="48" viewBox="0 0 48 48" fill="none" xmlns="http://www.w3.org/2000/svg">
<path d="M14 36V32M24 36V30M34 36V26M5 24C5 15.0433 5 10.565 7.78248 7.78248C10.565 5 15.0433 5 24 5C32.9566 5 37.435 5 40.2176 7.78248C43 10.565 43 15.0433 43 24C43 32.9566 43 37.435 40.2176 40.2176C37.435 43 32.9566 43 24 43C15.0433 43 10.565 43 7.78248 40.2176C5 37.435 5 32.9566 5 24Z" stroke="#A8DD15" stroke-width="3" stroke-linecap="round" stroke-linejoin="round"/>
<path d="M11.9844 22.9726C16.2946 23.1162 26.0682 22.4656 31.6274 13.6426M27.9846 12.5767L31.7356 11.973C32.1928 11.9148 32.864 12.2757 33.029 12.706L34.0208 15.9828" stroke="#A8DD15" stroke-width="3" stroke-linecap="round" stroke-linejoin="round"/>
</svg>
