<svg width="46" height="46" viewBox="0 0 46 46" fill="none" xmlns="http://www.w3.org/2000/svg">
<rect width="45.8544" height="46" rx="22.9272" fill="white"/>
<g clip-path="url(#clip0_5311_3814)">
<path d="M35.5855 31.9857L31.0204 27.4206L31.0201 27.4203L31.0198 27.42L29.388 25.7881C28.8367 25.2369 27.9396 25.2367 27.3882 25.7881L27.1881 25.9882L26.499 25.299C27.8491 23.6802 28.6626 21.599 28.6626 19.3313C28.6625 14.186 24.4765 10 19.3312 10C14.1859 10 10 14.186 10 19.3313C10 24.4765 14.1859 28.6625 19.3312 28.6625C21.599 28.6625 23.6802 27.849 25.299 26.4989L25.9881 27.188L25.788 27.3881C25.2369 27.9394 25.2369 28.8365 25.7881 29.3879L31.9856 35.5854C32.5382 36.1381 33.4329 36.1382 33.9856 35.5855L35.5855 33.9856C36.1369 33.4342 36.1369 32.5371 35.5855 31.9857ZM19.3312 26.9656C15.1216 26.9656 11.6969 23.5408 11.6969 19.3313C11.6969 15.1217 15.1216 11.697 19.3312 11.697C23.5408 11.697 26.9656 15.1217 26.9656 19.3313C26.9656 23.5408 23.5408 26.9656 19.3312 26.9656ZM27.1881 28.388L28.388 27.1881L29.2202 28.0203L28.0203 29.2202L27.1881 28.388ZM32.9856 34.1855L29.2202 30.4201L30.4201 29.2202L34.1855 32.9856L32.9856 34.1855Z" fill="#1A1A1A"/>
<path d="M19.3309 13.3945C18.8623 13.3945 18.4824 13.7744 18.4824 14.243C18.4824 14.7116 18.8623 15.0915 19.3309 15.0915C21.6691 15.0915 23.5714 16.9937 23.5714 19.3318C23.5714 19.8004 23.9513 20.1803 24.4199 20.1803C24.8885 20.1803 25.2684 19.8004 25.2684 19.3318C25.2684 16.058 22.6048 13.3945 19.3309 13.3945Z" fill="#1A1A1A"/>
</g>
<defs>
<clipPath id="clip0_5311_3814">
<rect width="26" height="26" fill="white" transform="translate(10 10)"/>
</clipPath>
</defs>
</svg>
