<svg width="51" height="51" viewBox="0 0 51 51" fill="none" xmlns="http://www.w3.org/2000/svg">
<rect x="1.25" y="1.25" width="48" height="48" rx="24" fill="white"/>
<rect x="1.25" y="1.25" width="48" height="48" rx="24" stroke="#20221A" stroke-width="2.5"/>
<g clip-path="url(#clip0_3251_6912)">
<path d="M36.7257 16.2247V24.524C36.7257 26.5782 35.7842 28.9625 34.0753 31.2377C32.0838 33.8886 29.1502 36.2285 25.5917 38.0044L25.2535 38.1731L24.9152 38.0044C21.3567 36.2285 18.4231 33.8886 16.4316 31.2377C14.7228 28.9625 13.7812 26.5782 13.7812 24.524V16.2247L19.3626 12.3269H31.1443L36.7257 16.2247Z" fill="#00358F"/>
<path d="M36.73 16.2247V24.524C36.73 26.5782 35.7885 28.9625 34.0797 31.2377C32.0881 33.8886 29.1546 36.2285 25.596 38.0044L25.2578 38.1731V12.3269H31.1486L36.73 16.2247Z" fill="#012453"/>
<path d="M30.1935 15.356H20.318L16.8125 17.8039V24.5241C16.8125 26.8337 19.0847 31.3469 25.2557 34.761C31.4268 31.3469 33.699 26.8337 33.699 24.5241V17.8039L30.1935 15.356Z" fill="#00B3FE"/>
<path d="M33.7011 17.8039V24.5241C33.7011 26.8337 31.4288 31.3469 25.2578 34.761V15.356H30.1955L33.7011 17.8039Z" fill="#0274F9"/>
<path d="M30.4312 14.5986H20.0792L16.0547 17.409V24.524C16.0547 26.0012 16.8028 27.8781 18.1068 29.6733C19.6945 31.8592 22.0394 33.8477 24.8887 35.4238L25.2552 35.6267L25.6217 35.4238C28.4709 33.8477 30.8158 31.8592 32.4035 29.6733C33.7075 27.8781 34.4556 26.0012 34.4556 24.524V17.409L30.4312 14.5986ZM32.9412 24.524C32.9412 26.5388 30.886 30.6527 25.2552 33.8916C19.6243 30.6527 17.5692 26.5388 17.5692 24.524V18.1986L20.5557 16.1131H29.9546L32.9412 18.1986V24.524Z" fill="#EFF5FA"/>
<path d="M34.4583 17.409V24.524C34.4583 26.0012 33.7101 27.8781 32.4062 29.6733C30.8185 31.8592 28.4736 33.8477 25.6243 35.4238L25.2578 35.6267V33.8916C30.8887 30.6527 32.9438 26.5388 32.9438 24.524V18.1986L29.9573 16.1131H25.2578V14.5986H30.4338L34.4583 17.409Z" fill="#C6E1EC"/>
<path d="M30.0903 21.123L25.2561 26.0915L25.246 26.1021L24.0168 27.3652L20.4219 24.003L21.4563 22.897L23.9663 25.2449L25.246 23.9303L25.2561 23.9197L29.005 20.0669L30.0903 21.123Z" fill="#EFF5FA"/>
<path d="M30.092 21.123L25.2578 26.0915V23.9197L29.0067 20.0669L30.092 21.123Z" fill="#C6E1EC"/>
</g>
<defs>
<clipPath id="clip0_3251_6912">
<rect width="25.8462" height="25.8462" fill="white" transform="translate(12.3281 12.3269)"/>
</clipPath>
</defs>
</svg>
