<svg width="46" height="46" viewBox="0 0 46 46" fill="none" xmlns="http://www.w3.org/2000/svg">
<rect width="46" height="46" rx="23" fill="#A8DD15" fill-opacity="0.14"/>
<path d="M22.7129 11.8877C23.4124 11.9216 24.0339 12.2972 24.3896 12.9131L26.1064 15.8867C26.782 15.5668 27.5428 15.4969 28.2764 15.6934C29.095 15.9127 29.7787 16.436 30.2002 17.166C30.6215 17.896 30.733 18.7489 30.5137 19.5674C30.3171 20.3011 29.8746 20.9234 29.2598 21.3486L30.9775 24.3232C31.3569 24.9804 31.3493 25.762 30.958 26.4121C30.5667 27.0619 29.879 27.4333 29.1221 27.4062C28.6006 27.3872 28.071 27.346 27.5117 27.3027C25.4227 27.1413 23.0934 26.9635 20.8721 28.001L22.9824 31.6543C23.3124 32.2258 23.399 32.8937 23.2275 33.5342C23.0559 34.1747 22.6467 34.71 22.0752 35.04C21.6998 35.2573 21.2736 35.3712 20.8398 35.3711C19.9829 35.3711 19.1481 34.9271 18.6895 34.1328L16.5381 30.4072C15.9915 30.624 15.4095 30.7374 14.8213 30.7373C13.1997 30.7373 11.6195 29.8963 10.752 28.3936C10.1281 27.3128 9.96418 26.0494 10.2891 24.8369C10.614 23.6243 11.3879 22.6123 12.4688 21.9883L15.5752 20.1953C17.9775 18.8084 19.0897 16.4865 20.0771 14.4238C20.3191 13.9184 20.549 13.4403 20.793 12.9795C21.1482 12.309 21.8136 11.8996 22.5723 11.8857L22.7129 11.8877ZM17.75 29.7676L19.876 33.4482C20.1817 33.9775 20.8613 34.1591 21.3906 33.8535C21.6449 33.7065 21.8272 33.4679 21.9043 33.1807C21.9814 32.8931 21.9428 32.5945 21.7959 32.3398L19.6709 28.6582L17.75 29.7676ZM13.1533 23.1748C12.3895 23.6159 11.8416 24.3318 11.6113 25.1914C11.381 26.051 11.4974 26.945 11.9385 27.709C12.5525 28.7725 13.6711 29.3681 14.8193 29.3682C15.382 29.3681 15.9513 29.2248 16.4727 28.9238L18.9893 27.4707L15.667 21.7227L13.1533 23.1748ZM22.501 13.2627C22.284 13.2938 22.1101 13.4178 22.0029 13.6201C21.7721 14.056 21.5489 14.5217 21.3125 15.0156C20.3245 17.0795 19.2074 19.4109 16.8398 21.0156L20.1885 26.8076C22.7592 25.5613 25.3366 25.7613 27.6172 25.9375C28.1636 25.9797 28.6786 26.0191 29.1719 26.0371C29.4341 26.0472 29.6501 25.9295 29.7852 25.7051C29.9201 25.4809 29.9228 25.2345 29.792 25.0078L23.2041 13.5986C23.0916 13.4039 22.9176 13.2869 22.7051 13.2607L22.6123 13.2549H22.5967L22.501 13.2627ZM35.1875 19.5449C35.5654 19.5452 35.8721 19.8524 35.8721 20.2305C35.8718 20.6083 35.5653 20.9148 35.1875 20.915H32.5654C32.1874 20.915 31.8811 20.6085 31.8809 20.2305C31.8809 19.8523 32.1873 19.5449 32.5654 19.5449H35.1875ZM27.9219 17.0146C27.5421 16.913 27.1505 16.9386 26.7949 17.0801L28.5713 20.1562C29.2593 19.6128 29.4647 18.6318 29.0137 17.8506C28.7751 17.4373 28.3876 17.1404 27.9219 17.0156V17.0146ZM33.4131 14.5205C33.7404 14.3316 34.1585 14.4434 34.3477 14.7705C34.5367 15.0979 34.4249 15.5169 34.0977 15.7061L31.7715 17.0488C31.6937 17.0937 31.6076 17.123 31.5186 17.1348C31.4295 17.1465 31.3387 17.1404 31.252 17.1172C31.1652 17.0939 31.0839 17.0537 31.0127 16.999C30.9414 16.9443 30.8819 16.8757 30.8369 16.7979C30.648 16.4705 30.7597 16.0524 31.0869 15.8633L33.4131 14.5205ZM29.4463 10.9727C29.6354 10.6452 30.0543 10.5326 30.3818 10.7217C30.7094 10.9108 30.8219 11.3297 30.6328 11.6572L29.3223 13.9277C29.2773 14.0056 29.2168 14.0741 29.1455 14.1289C29.0743 14.1835 28.9929 14.2238 28.9062 14.2471C28.8194 14.2703 28.7287 14.2754 28.6396 14.2637C28.5505 14.2519 28.4646 14.2227 28.3867 14.1777C28.0593 13.9887 27.9469 13.5706 28.1357 13.2432L29.4463 10.9727Z" fill="#1A1A1A" stroke="black" stroke-width="0.1"/>
</svg>
