<svg xmlns="http://www.w3.org/2000/svg" version="1.1" xmlns:xlink="http://www.w3.org/1999/xlink" width="512" height="512" x="0" y="0" viewBox="0 0 24 24" style="enable-background:new 0 0 512 512" xml:space="preserve" class=""><g><g fill-rule="evenodd"><path d="M12 1.75C6.34 1.75 1.75 6.34 1.75 12S6.34 22.25 12 22.25 22.25 17.66 22.25 12 17.66 1.75 12 1.75zM.25 12C.25 5.51 5.51.25 12 .25S23.75 5.51 23.75 12 18.49 23.75 12 23.75.25 18.49.25 12z" fill="#A8DD15" opacity="1" data-original="#A8DD15"></path><path d="m3.47 19.47 16-16 1.06 1.06-16 16-1.06-1.06z" fill="#000000" opacity="1" data-original="#000000"></path><path d="M7.25 6c0-.967.783-1.75 1.75-1.75h6c.967 0 1.75.783 1.75 1.75v12A1.75 1.75 0 0 1 15 19.75H9A1.75 1.75 0 0 1 7.25 18zM9 5.75a.25.25 0 0 0-.25.25v12c0 .138.112.25.25.25h6a.25.25 0 0 0 .25-.25V6a.25.25 0 0 0-.25-.25z" fill="#000000" opacity="1" data-original="#000000"></path><path d="M10.25 17a.75.75 0 0 1 .75-.75h2a.75.75 0 0 1 0 1.5h-2a.75.75 0 0 1-.75-.75zM9.25 5a.75.75 0 0 1 .75-.75h4a.75.75 0 0 1 .75.75v1A1.75 1.75 0 0 1 13 7.75h-2A1.75 1.75 0 0 1 9.25 6zm1.5.75V6c0 .138.112.25.25.25h2a.25.25 0 0 0 .25-.25v-.25z" fill="#A8DD15" opacity="1" data-original="#A8DD15"></path></g></g></svg>