<svg width="48" height="48" viewBox="0 0 48 48" fill="none" xmlns="http://www.w3.org/2000/svg">
<path d="M32 22C32 17.5817 28.4182 14 24 14C19.5817 14 16 17.5817 16 22C16 26.4182 19.5817 30 24 30C28.4182 30 32 26.4182 32 22Z" stroke="#A8DD15" stroke-width="3" stroke-linecap="round" stroke-linejoin="round"/>
<path d="M10.1405 30C8.77916 27.6466 8 24.9142 8 22C8 13.1634 15.1634 6 24 6C32.8366 6 40 13.1634 40 22C40 24.9142 39.2208 27.6466 37.8594 30" stroke="#A8DD15" stroke-width="3" stroke-linecap="round" stroke-linejoin="round"/>
<path d="M36 42C36 35.3726 30.6274 30 24 30C17.3726 30 12 35.3726 12 42" stroke="#A8DD15" stroke-width="3" stroke-linecap="round" stroke-linejoin="round"/>
</svg>
